<?xml version="1.0" encoding="utf-8"?>
<!-- Generator: Adobe Illustrator 22.0.0, SVG Export Plug-In . SVG Version: 6.00 Build 0)  -->
<svg version="1.1" xmlns="http://www.w3.org/2000/svg" xmlns:xlink="http://www.w3.org/1999/xlink" x="0px" y="0px"
	 viewBox="0 0 323.3 94.8" style="enable-background:new 0 0 323.3 94.8;" xml:space="preserve">
<style type="text/css">
	.st0{fill:#6BC62A;}
	.st1{fill:#FFFFFF;}
	.st2{font-family:'MyriadPro-Regular';}
	.st3{font-size:17.4241px;}
</style>
<g id="cloud-register">
	<path id="XMLID_2_" class="st0" d="M323,92c-48.1,9.5-79.3-19.8-99-16.1c-34.4,6.4-140,11.6-178.5,4.8C-19.7,69.3-1-4,24.7,1.3
		C35.6,3.5,330.9,2,324,2"/>
</g>
<g id="vert-line">
	<g id="XMLID_116_">
		<g>
			<path class="st1" d="M147.9,46.1c0.3-8.9,0-17.9-0.1-26.8c0-1.6-2.6-1.6-2.6,0c0,8.9,0.4,17.9,0.1,26.8
				C145.3,47.7,147.8,47.7,147.9,46.1L147.9,46.1z"/>
		</g>
	</g>
</g>
<g id="texto">
	<text transform="matrix(1 0 0 1 42.1878 39.8482)" class="st1 st2 st3">Registrarse              Iniciar sesión</text>
</g>
</svg>
