<?xml version="1.0" encoding="utf-8"?>
<!-- Generator: Adobe Illustrator 22.0.0, SVG Export Plug-In . SVG Version: 6.00 Build 0)  -->
<svg version="1.1" xmlns="http://www.w3.org/2000/svg" xmlns:xlink="http://www.w3.org/1999/xlink" x="0px" y="0px"
	 viewBox="0 0 659.5 99.7" style="enable-background:new 0 0 659.5 99.7;" xml:space="preserve">
<style type="text/css">
	.st0{fill:#FFFFFF;}
	.st1{fill:#6BC62A;}
	.st2{fill:#FF5A19;}
</style>
<g id="foto">
	<rect x="8.7" y="17.7" class="st0" width="43" height="43"/>
</g>
<g id="cloud-register">
	<path id="XMLID_283_" class="st1" d="M54,0.3c10.9,2.3,612.3,0.4,605.4,0.4c-1.6,30-2.1,64.9-2.1,64.9c-0.7,12.7-68,50-139.9,25.8
		c-34.3-11.6-70.4-19.2-157.2-2c-48.1,9.5-87.3-18.1-107-14.4c-34.4,6.4-140,11.6-178.5,4.8C9.7,68.3,28.3-5,54,0.3z"/>
</g>
<g id="rectangle">
	<path id="XMLID_282_" class="st2" d="M48.6,67.6H12.3c-6.6,0-12-5.4-12-12V21c0-6.6,5.4-12,12-12h36.3c6.6,0,12,5.4,12,12v34.6
		C60.6,62.2,55.2,67.6,48.6,67.6z"/>
</g>
<g id="textos">
	<g id="XMLID_242_">
		<g>
			<path id="XMLID_256_" class="st0" d="M72.7,20.4l4,8.8c0.2,0.4,0.3,0.7,0.4,0.9c0.1,0.3,0.2,0.3,0.2,0.3l-0.6-9.7l7.5-0.5
				l-2,19.8l-3.5-0.5l-6.7-10.7l0.7,10.8l-4.7,0.8l0.2-18.7L72.7,20.4z"/>
			<path id="XMLID_208_" class="st0" d="M93.7,15.9l-2,10.7L87.1,27l-1.3-10.6L93.7,15.9z M91.7,28.8L93.3,42l-6.9,0.6l0.5-13.2
				L91.7,28.8z"/>
			<path id="XMLID_206_" class="st0" d="M109.1,25.2c-0.5-0.3-1-0.5-1.5-0.5c-1.3-0.1-2.4,0.4-3.2,1.7c-0.4,0.6-0.7,1.3-0.8,2.2
				s-0.1,1.6,0,2.3c0.3,1.5,1,2.4,2.1,2.9c0.5,0.2,1,0.2,1.5,0.1c0.5-0.1,0.9-0.2,1.3-0.4c0.4-0.2,0.6-0.4,0.9-0.6
				c0.2-0.2,0.4-0.4,0.6-0.7l0.1,0.1c0.1,0,0.3,0.2,0.8,0.5c0.4,0.3,1.1,0.7,1.9,1.2c0.8,0.5,1.6,1.1,2.5,1.6l-0.1,0.1
				c0,0.1-0.2,0.2-0.5,0.6c-0.3,0.3-0.7,0.8-1.2,1.4c-0.6,0.6-1.3,1.1-2.2,1.6c-0.9,0.5-1.9,0.9-3.1,1.1c-1.2,0.3-2.4,0.3-3.6,0
				c-1.3-0.3-2.5-0.8-3.7-1.6s-2.2-1.7-3-2.7c-1.5-1.9-2.2-4.1-2.1-6.7c0-1.2,0.3-2.5,0.7-3.8c0.4-1.3,1-2.5,1.9-3.5
				c0.8-1,1.9-1.9,3.1-2.6c1.2-0.7,2.4-1.1,3.6-1.3c1.2-0.2,2.3-0.2,3.4,0.1s1.9,0.6,2.7,1.1c0.7,0.5,1.3,1,1.8,1.5
				c0.5,0.6,0.9,1.1,1.3,1.7l-0.1,0.1c-0.1,0.1-0.2,0.2-0.5,0.6c-0.3,0.3-0.8,0.8-1.3,1.4c-0.6,0.6-1.2,1.2-1.8,1.8
				C110.1,25.9,109.6,25.6,109.1,25.2z"/>
			<path id="XMLID_204_" class="st0" d="M124.3,15.8l0.3,13.3l7.6-9.8l4.7,5.7l-7.5,6.7l10.7,6l-4.5,5.3L124.4,32L125,43l-7.6,1.2
				l-0.3-27.3L124.3,15.8z"/>
			<path id="XMLID_202_" class="st0" d="M145.9,20.4l4,8.8c0.2,0.4,0.3,0.7,0.4,0.9c0.1,0.3,0.2,0.3,0.2,0.3l-0.6-9.7l7.5-0.5
				l-2,19.8l-3.5-0.5l-6.7-10.7l0.7,10.8l-4.7,0.8l0.2-18.7L145.9,20.4z"/>
			<path id="XMLID_199_" class="st0" d="M157.3,42.7l9.6-25.2l4.9-0.4l5.9,24.1l-6.2,0.7l-0.8-4.3l-4.9,0.5l-1.3,4.5L157.3,42.7z
				 M168.2,26.3l-1.9,8.7l3.7-0.1L168.2,26.3z"/>
			<path id="XMLID_197_" class="st0" d="M179.3,19l6.2-0.9l2.6,13.7l2.3-14.2l5.5-0.6l1.7,23.9l-5.2,1l-0.7-12.7l-1.4,8.2h-3.3
				l-2.8-10L184,40.7l-5.4,1.1L179.3,19z"/>
			<path id="XMLID_195_" class="st0" d="M210.1,18.2l-0.5,6.5l-4.5,0.9v1.8l2.8-0.5v4.6l-2.9-0.1l-0.2,3.6l6.6-3.2l3.2,6.5
				l-14.1,1.3l-0.9-18.6L210.1,18.2z"/>
		</g>
	</g>
	<g id="XMLID_98_">
		<g>
			<path id="XMLID_463_" class="st0" d="M72,60.4c0.1,1.2,0.2,2.5,0.2,3.8c0.1,1.3,0.2,2.5,0.2,3.7l-2.1,0.1l-0.1-13.2l5.8,8.4
				c0-1.3,0.1-2.5,0.1-3.8s0.1-2.6,0.1-3.8H78l0,13.3L72,60.4z"/>
			<path id="XMLID_460_" class="st0" d="M87.2,61.8c0,0.4,0,0.8-0.1,1.2c-0.1,0.4-0.2,0.8-0.3,1.3c-0.1,0.4-0.3,0.8-0.6,1.2
				c-0.2,0.4-0.5,0.7-0.8,1c-0.3,0.3-0.6,0.5-1,0.7c-0.4,0.2-0.8,0.3-1.3,0.3c-0.5,0-0.9-0.1-1.3-0.3s-0.7-0.4-1-0.8
				c-0.3-0.3-0.6-0.7-0.8-1.1c-0.2-0.4-0.4-0.9-0.6-1.3c-0.2-0.5-0.3-0.9-0.3-1.4c-0.1-0.5-0.1-0.9-0.1-1.3c0-0.6,0.1-1.1,0.2-1.7
				s0.3-1,0.6-1.5s0.6-0.8,1-1.1s0.9-0.5,1.5-0.6c0.1,0,0.2,0,0.4,0c0.1,0,0.2,0,0.4,0c0.7,0,1.3,0.2,1.8,0.5
				c0.5,0.3,0.9,0.7,1.3,1.2c0.3,0.5,0.6,1.1,0.8,1.7S87.2,61.2,87.2,61.8z M83.4,65.7c0.3-0.1,0.7-0.2,0.9-0.4
				c0.3-0.2,0.5-0.5,0.7-0.8c0.2-0.3,0.3-0.7,0.4-1.1c0.1-0.4,0.1-0.8,0.1-1.2c0-0.5-0.1-1-0.2-1.5c-0.1-0.5-0.3-0.9-0.5-1.3
				s-0.5-0.7-0.8-0.9c-0.3-0.2-0.7-0.3-1.1-0.3c-0.3,0-0.6,0.1-0.9,0.3c-0.3,0.2-0.5,0.5-0.7,0.8C81.2,59.7,81,60,81,60.4
				s-0.1,0.8-0.1,1.2c0,0.5,0.1,1,0.2,1.5c0.1,0.5,0.3,1,0.5,1.4c0.2,0.4,0.5,0.7,0.8,1C82.6,65.7,83,65.8,83.4,65.7z"/>
			<path id="XMLID_458_" class="st0" d="M96.5,68c0-0.3,0-0.7,0.1-1.1c0-0.4,0-0.7,0-1.1c0-0.4,0-0.7,0-1c0-0.3,0-0.6,0-0.9
				c0-1,0-1.8-0.1-2.5s-0.1-1.3-0.3-1.7s-0.2-0.8-0.4-1c-0.1-0.2-0.3-0.3-0.5-0.3c-0.1,0-0.2,0-0.3,0.1c-0.1,0.1-0.3,0.2-0.4,0.5
				c-0.1,0.2-0.3,0.5-0.5,0.9s-0.3,0.9-0.5,1.5L92.4,61c0-0.2,0-0.4,0.1-0.7c0-0.3,0-0.5,0-0.7c0-0.2,0-0.4,0-0.6
				c0-0.2-0.1-0.4-0.1-0.5c-0.1-0.1-0.1-0.3-0.2-0.3c-0.1-0.1-0.2-0.1-0.4-0.1c-0.3,0-0.5,0.2-0.7,0.6c-0.2,0.4-0.3,0.9-0.4,1.4
				c-0.1,0.6-0.2,1.2-0.2,2s0,1.4,0,2.1c0,0.3,0,0.6,0,1c0,0.3,0,0.6,0,1c0,0.3,0,0.6,0,0.9s0,0.5,0,0.7l-1.9,0.3l-0.3-11.6l1.9,0
				l0,0.9c0.2-0.3,0.5-0.5,0.8-0.7s0.6-0.3,1-0.3c0.1,0,0.1,0,0.2,0c0.1,0,0.1,0,0.2,0c0.3,0,0.5,0.2,0.8,0.5c0.3,0.3,0.4,0.6,0.6,1
				c0.1-0.2,0.3-0.3,0.5-0.5c0.2-0.2,0.3-0.3,0.5-0.4c0.2-0.1,0.4-0.2,0.6-0.2c0.2-0.1,0.4-0.1,0.6,0c0.4,0.1,0.8,0.3,1.1,0.6
				c0.3,0.3,0.5,0.7,0.7,1.1c0.2,0.5,0.4,1,0.5,1.6c0.1,0.6,0.2,1.2,0.3,1.8c0.1,0.6,0.1,1.3,0.1,2c0,0.7,0,1.3,0,2
				c0,0.1,0,0.3,0,0.5c0,0.2,0,0.3,0,0.5c0,0.2,0,0.3,0,0.5c0,0.2,0,0.3,0,0.4L96.5,68z"/>
			<path id="XMLID_455_" class="st0" d="M100.6,56.1l1.7-0.1l-0.1,4.9c0.3-0.3,0.6-0.5,1-0.6c0.4-0.2,0.8-0.2,1.2-0.2
				c0.4,0,0.8,0.1,1.1,0.4c0.3,0.2,0.6,0.5,0.9,0.8c0.2,0.3,0.4,0.7,0.6,1.1c0.1,0.4,0.2,0.8,0.2,1.1c0,0.6-0.1,1.1-0.3,1.6
				s-0.4,0.9-0.7,1.2c-0.3,0.3-0.7,0.6-1,0.8c-0.4,0.2-0.8,0.3-1.2,0.3c-0.5,0-0.9-0.1-1.2-0.2c-0.3-0.1-0.6-0.3-0.8-0.5
				c0,0.2,0,0.3,0,0.5c0,0.2,0,0.3,0,0.4l-1.8-0.3L100.6,56.1z M102.2,63.7c0,0.3,0,0.6,0.1,0.9c0.1,0.3,0.2,0.5,0.4,0.7
				c0.1,0.2,0.3,0.3,0.5,0.4c0.2,0.1,0.4,0.2,0.5,0.2c0.1,0,0.3,0,0.5-0.1s0.4-0.2,0.5-0.4s0.3-0.4,0.4-0.6c0.1-0.3,0.2-0.5,0.2-0.9
				c0-0.2,0-0.4-0.1-0.7c-0.1-0.3-0.2-0.5-0.3-0.7s-0.3-0.4-0.5-0.5c-0.2-0.1-0.4-0.2-0.7-0.2c-0.2,0-0.4,0.1-0.6,0.2
				c-0.2,0.1-0.4,0.3-0.5,0.5s-0.3,0.4-0.4,0.7S102.2,63.5,102.2,63.7z"/>
			<path id="XMLID_453_" class="st0" d="M108.3,67.5l0-11.5l2.2-0.2l-0.1,1.2c0.3-0.3,0.6-0.6,0.9-0.8c0.3-0.2,0.8-0.3,1.2-0.4
				c0.1,0,0.3,0,0.5,0c0.2,0,0.4,0.1,0.7,0.2c0.2,0.1,0.5,0.2,0.8,0.4s0.5,0.4,0.7,0.6c0.2,0.2,0.4,0.5,0.6,0.9
				c0.2,0.3,0.3,0.8,0.4,1.2l-1.6,0.7c-0.1-0.2-0.2-0.5-0.3-0.8c-0.1-0.3-0.3-0.5-0.4-0.8c-0.2-0.2-0.3-0.4-0.6-0.6
				c-0.2-0.1-0.4-0.2-0.7-0.2c-0.4,0-0.7,0.1-1,0.4c-0.3,0.3-0.5,0.6-0.7,1c-0.2,0.4-0.3,0.9-0.5,1.4c-0.1,0.5-0.2,1.1-0.3,1.6
				c-0.1,0.6-0.1,1.1-0.1,1.7s0,1.1,0,1.5c0,0.2,0,0.4,0,0.6c0,0.2,0,0.4,0,0.6s0,0.4,0,0.5c0,0.2,0,0.3,0,0.4L108.3,67.5z"/>
			<path id="XMLID_450_" class="st0" d="M121.3,67.5c-0.5,0-0.9-0.1-1.3-0.3s-0.7-0.4-1-0.8c-0.3-0.3-0.5-0.7-0.8-1.1
				c-0.2-0.4-0.4-0.9-0.5-1.3c-0.1-0.5-0.2-1-0.3-1.4s-0.1-1-0.1-1.4c0-0.8,0.2-1.6,0.5-2.2c0.3-0.7,0.7-1.2,1.1-1.7
				c0.5-0.5,1-0.8,1.5-1.1c0.6-0.2,1.1-0.4,1.7-0.4c0.1,0,0.1,0,0.2,0s0.1,0,0.2,0c0.4,0.1,0.8,0.2,1.2,0.4c0.4,0.2,0.7,0.5,1,0.9
				c0.3,0.4,0.5,0.9,0.7,1.5s0.3,1.3,0.3,2.1l-6.5-0.2c0,0.2,0,0.4,0,0.6c0,0.2,0,0.4,0,0.5c0,0.6,0.1,1.1,0.2,1.6
				c0.1,0.5,0.3,0.9,0.5,1.2c0.2,0.3,0.4,0.6,0.7,0.8c0.3,0.2,0.6,0.3,0.9,0.4c0.2,0,0.4,0,0.6-0.1c0.3-0.1,0.5-0.2,0.7-0.4
				s0.5-0.5,0.6-0.9s0.3-0.8,0.4-1.4l2.1,0.3c-0.2,0.8-0.4,1.5-0.7,2.1c-0.3,0.6-0.6,1-1,1.4s-0.8,0.6-1.3,0.7
				C122.4,67.4,121.9,67.5,121.3,67.5z M122.2,57.5c-0.2,0-0.5,0-0.7,0.1c-0.3,0.1-0.5,0.1-0.7,0.2c-0.2,0.1-0.4,0.2-0.6,0.4
				c-0.2,0.2-0.4,0.3-0.5,0.5c0.3,0,0.6,0,0.8,0s0.6,0,0.8,0h0.7c0.2,0,0.3,0,0.5,0s0.3,0,0.4,0c0.1,0,0.3,0,0.4,0s0.3,0,0.5,0
				c-0.1-0.1-0.1-0.3-0.2-0.4c-0.1-0.2-0.2-0.3-0.4-0.4c-0.1-0.1-0.3-0.2-0.5-0.3C122.5,57.6,122.4,57.6,122.2,57.5z"/>
			<path id="XMLID_447_" class="st0" d="M140.9,67.5l-1.7,0.3v-1.3c-0.3,0.2-0.7,0.5-1.1,0.6c-0.4,0.2-0.9,0.3-1.4,0.3
				c-0.1,0-0.2,0-0.2,0c-0.1,0-0.1,0-0.2,0c-0.4-0.1-0.7-0.1-1.1-0.3s-0.7-0.4-1-0.6s-0.5-0.6-0.7-1.1s-0.3-1-0.3-1.6
				c0-0.1,0-0.2,0-0.3c0-0.1,0-0.2,0-0.3c0.1-0.6,0.2-1.1,0.5-1.5c0.3-0.4,0.6-0.8,0.9-1.1s0.7-0.5,1.2-0.6c0.4-0.1,0.8-0.2,1.2-0.2
				c0.4,0,0.8,0.1,1.1,0.3c0.4,0.2,0.7,0.4,1,0.7v-5.1l1.7-0.1L140.9,67.5z M139,63.6c0-0.2,0-0.4-0.1-0.7c-0.1-0.3-0.2-0.5-0.4-0.7
				c-0.2-0.2-0.4-0.4-0.6-0.6c-0.2-0.2-0.5-0.3-0.8-0.3c-0.3,0-0.5,0-0.8,0.1c-0.3,0.1-0.5,0.3-0.7,0.5c-0.2,0.2-0.4,0.5-0.5,0.8
				c-0.1,0.3-0.2,0.6-0.2,1c0,0.5,0.1,0.9,0.2,1.2c0.1,0.3,0.3,0.5,0.5,0.6c0.2,0.1,0.4,0.2,0.6,0.3c0.2,0,0.3,0.1,0.4,0.1
				c0.3,0,0.5,0,0.8-0.1c0.3-0.1,0.5-0.3,0.8-0.5c0.2-0.2,0.4-0.4,0.6-0.7S138.9,63.9,139,63.6z"/>
			<path id="XMLID_444_" class="st0" d="M146,67.5c-0.5,0-0.9-0.1-1.3-0.3s-0.7-0.4-1-0.8c-0.3-0.3-0.5-0.7-0.8-1.1
				c-0.2-0.4-0.4-0.9-0.5-1.3c-0.1-0.5-0.2-1-0.3-1.4s-0.1-1-0.1-1.4c0-0.8,0.2-1.6,0.5-2.2c0.3-0.7,0.7-1.2,1.1-1.7
				c0.5-0.5,1-0.8,1.5-1.1c0.6-0.2,1.1-0.4,1.7-0.4c0.1,0,0.1,0,0.2,0s0.1,0,0.2,0c0.4,0.1,0.8,0.2,1.2,0.4c0.4,0.2,0.7,0.5,1,0.9
				c0.3,0.4,0.5,0.9,0.7,1.5s0.3,1.3,0.3,2.1l-6.5-0.2c0,0.2,0,0.4,0,0.6c0,0.2,0,0.4,0,0.5c0,0.6,0.1,1.1,0.2,1.6
				c0.1,0.5,0.3,0.9,0.5,1.2c0.2,0.3,0.4,0.6,0.7,0.8c0.3,0.2,0.6,0.3,0.9,0.4c0.2,0,0.4,0,0.6-0.1c0.3-0.1,0.5-0.2,0.7-0.4
				s0.5-0.5,0.6-0.9s0.3-0.8,0.4-1.4l2.1,0.3c-0.2,0.8-0.4,1.5-0.7,2.1c-0.3,0.6-0.6,1-1,1.4s-0.8,0.6-1.3,0.7
				C147.1,67.4,146.6,67.5,146,67.5z M146.9,57.5c-0.2,0-0.5,0-0.7,0.1c-0.3,0.1-0.5,0.1-0.7,0.2c-0.2,0.1-0.4,0.2-0.6,0.4
				c-0.2,0.2-0.4,0.3-0.5,0.5c0.3,0,0.6,0,0.8,0s0.6,0,0.8,0h0.7c0.2,0,0.3,0,0.5,0s0.3,0,0.4,0c0.1,0,0.3,0,0.4,0s0.3,0,0.5,0
				c-0.1-0.1-0.1-0.3-0.2-0.4c-0.1-0.2-0.2-0.3-0.4-0.4c-0.1-0.1-0.3-0.2-0.5-0.3C147.3,57.6,147.1,57.6,146.9,57.5z"/>
			<path id="XMLID_442_" class="st0" d="M160.9,67.4c-0.4,0-0.7-0.1-1-0.3c-0.3-0.2-0.6-0.5-0.8-0.8c-0.2-0.3-0.4-0.7-0.5-1.1
				c-0.1-0.4-0.2-0.9-0.3-1.4c-0.1-0.5-0.1-1-0.2-1.6c0-0.5,0-1.1,0-1.6c0-0.5,0-1,0-1.5c0-0.5,0-0.9,0.1-1.4c0-0.4,0.1-0.8,0.1-1.1
				s0.1-0.6,0.1-0.8l1.8,0.5c0,0.1-0.1,0.3-0.1,0.6c0,0.3-0.1,0.5-0.1,0.9c0,0.3-0.1,0.7-0.1,1.1c0,0.4,0,0.8,0,1.2
				c0,0.6,0,1.2,0.1,1.9c0,0.6,0.1,1.2,0.2,1.8c0.1,0.5,0.2,1,0.4,1.4c0.2,0.4,0.4,0.6,0.6,0.7c0.4,0,0.7-0.1,1-0.5s0.5-0.9,0.7-1.5
				c0.2-0.6,0.4-1.3,0.5-2.1c0.1-0.8,0.3-1.5,0.3-2.3s0.2-1.4,0.2-2.1c0-0.6,0.1-1.1,0.1-1.5l2.1,0.2l0.6,11.1
				c-0.1,0-0.2,0.1-0.4,0.1c-0.2,0-0.4,0.1-0.6,0.1c-0.3,0-0.6,0.1-1.1,0.2l0.1-3.5c-0.1,0.5-0.3,0.9-0.5,1.4
				c-0.2,0.4-0.5,0.8-0.8,1.1c-0.3,0.3-0.6,0.5-1,0.7C161.8,67.4,161.4,67.5,160.9,67.4z"/>
			<path id="XMLID_440_" class="st0" d="M174.7,64c0,0.1,0,0.3,0,0.4c0,0.1,0,0.3,0,0.4c0,0.6-0.1,1.1-0.3,1.5
				c-0.2,0.4-0.4,0.8-0.8,1c-0.3,0.3-0.7,0.5-1.1,0.6c-0.4,0.1-0.8,0.2-1.3,0.2c-0.5,0-0.9-0.1-1.4-0.2c-0.5-0.2-0.9-0.3-1.3-0.5
				c-0.1,0-0.2-0.1-0.3-0.1s-0.2-0.1-0.3-0.1c-0.1,0-0.2-0.1-0.3-0.1c-0.1,0-0.2-0.1-0.2-0.1l0.4-2.1c0,0,0.1,0,0.1,0.1
				s0.1,0.1,0.2,0.1s0.1,0.1,0.2,0.1c0.1,0,0.1,0.1,0.1,0.1c0.2,0.1,0.3,0.2,0.6,0.3c0.2,0.1,0.4,0.2,0.7,0.3
				c0.2,0.1,0.5,0.2,0.7,0.3c0.3,0.1,0.5,0.1,0.7,0.1c0.2,0,0.4,0,0.6-0.1c0.2-0.1,0.4-0.2,0.5-0.3c0.1-0.1,0.3-0.3,0.4-0.5
				c0.1-0.2,0.1-0.5,0.1-0.7c0,0,0-0.1,0-0.2s0-0.1,0-0.2c0-0.2-0.1-0.5-0.3-0.7c-0.1-0.2-0.3-0.4-0.5-0.5c-0.2-0.2-0.5-0.3-0.7-0.5
				c-0.3-0.1-0.5-0.3-0.8-0.4c-0.4-0.2-0.8-0.4-1.2-0.6c-0.4-0.2-0.7-0.5-1-0.7c-0.3-0.3-0.5-0.6-0.6-0.9c-0.1-0.3-0.2-0.6-0.2-1
				c0-0.3,0-0.6,0.1-0.8c0.1-0.3,0.2-0.5,0.4-0.8s0.3-0.5,0.5-0.7c0.2-0.2,0.4-0.4,0.7-0.5c0.5-0.3,1-0.4,1.4-0.4
				c0.3,0,0.6,0.1,0.9,0.2c0.3,0.1,0.6,0.3,0.8,0.5s0.5,0.5,0.7,0.8c0.2,0.3,0.4,0.7,0.6,1.1l-1.4,1c-0.1-0.2-0.2-0.5-0.4-0.7
				c-0.1-0.2-0.3-0.5-0.4-0.7c-0.1-0.2-0.3-0.4-0.5-0.5c-0.2-0.1-0.3-0.2-0.5-0.2c-0.2,0-0.4,0.1-0.6,0.3c-0.2,0.2-0.3,0.4-0.4,0.6
				c-0.1,0.3-0.2,0.5-0.2,0.8c0,0.2,0,0.3,0.1,0.4c0,0.1,0.1,0.3,0.2,0.4c0.2,0.2,0.4,0.4,0.7,0.5c0.3,0.1,0.5,0.3,0.8,0.4
				c0.2,0.1,0.4,0.2,0.5,0.2c0.2,0.1,0.3,0.1,0.4,0.2c0.3,0.1,0.5,0.3,0.8,0.5c0.3,0.2,0.5,0.4,0.7,0.6c0.2,0.2,0.4,0.5,0.5,0.8
				C174.6,63.3,174.7,63.6,174.7,64z"/>
			<path id="XMLID_438_" class="st0" d="M178.8,67.4c-0.4,0-0.7-0.1-1-0.3c-0.3-0.2-0.6-0.5-0.8-0.8c-0.2-0.3-0.4-0.7-0.5-1.1
				c-0.1-0.4-0.2-0.9-0.3-1.4c-0.1-0.5-0.1-1-0.2-1.6c0-0.5,0-1.1,0-1.6c0-0.5,0-1,0-1.5c0-0.5,0-0.9,0.1-1.4c0-0.4,0.1-0.8,0.1-1.1
				s0.1-0.6,0.1-0.8l1.8,0.5c0,0.1-0.1,0.3-0.1,0.6c0,0.3-0.1,0.5-0.1,0.9c0,0.3-0.1,0.7-0.1,1.1c0,0.4,0,0.8,0,1.2
				c0,0.6,0,1.2,0.1,1.9c0,0.6,0.1,1.2,0.2,1.8c0.1,0.5,0.2,1,0.4,1.4c0.2,0.4,0.4,0.6,0.6,0.7c0.4,0,0.7-0.1,1-0.5s0.5-0.9,0.7-1.5
				c0.2-0.6,0.4-1.3,0.5-2.1c0.1-0.8,0.3-1.5,0.3-2.3s0.2-1.4,0.2-2.1c0-0.6,0.1-1.1,0.1-1.5l2.1,0.2l0.6,11.1
				c-0.1,0-0.2,0.1-0.4,0.1c-0.2,0-0.4,0.1-0.6,0.1c-0.3,0-0.6,0.1-1.1,0.2l0.1-3.5c-0.1,0.5-0.3,0.9-0.5,1.4
				c-0.2,0.4-0.5,0.8-0.8,1.1c-0.3,0.3-0.6,0.5-1,0.7C179.8,67.4,179.3,67.5,178.8,67.4z"/>
			<path id="XMLID_435_" class="st0" d="M189.4,67.4c-0.6,0-1.2-0.1-1.6-0.3s-0.8-0.7-1-1.2s-0.5-1-0.6-1.7
				c-0.1-0.6-0.2-1.3-0.2-1.9c0-0.1,0-0.2,0-0.2c0-0.1,0-0.1,0-0.2c0-0.4,0.1-0.8,0.1-1.3c0.1-0.5,0.2-0.9,0.3-1.4
				c0.1-0.5,0.3-0.9,0.5-1.4c0.2-0.4,0.5-0.8,0.8-1.1c0.3-0.3,0.7-0.6,1.1-0.8c0.4-0.2,0.9-0.3,1.4-0.2c0.4,0,0.7,0.1,1.1,0.3
				c0.3,0.2,0.6,0.4,0.9,0.7c0-0.2,0-0.3,0-0.5c0-0.2,0-0.3,0-0.5l1.9,0.2l-0.2,11.2l-1.7,0.1v-2.3c-0.2,0.3-0.3,0.6-0.5,0.9
				c-0.2,0.3-0.4,0.5-0.6,0.8c-0.2,0.2-0.5,0.4-0.8,0.6C190,67.3,189.7,67.4,189.4,67.4z M189.3,65.7c0.3,0,0.5-0.1,0.8-0.4
				c0.3-0.3,0.5-0.6,0.7-1c0.2-0.4,0.4-0.9,0.5-1.3c0.1-0.5,0.2-0.9,0.3-1.4c0.1-0.5,0.1-0.9,0.1-1.3c0-0.5,0-0.9-0.1-1.3
				s-0.2-0.6-0.3-0.9c-0.1-0.2-0.3-0.4-0.5-0.5c-0.2-0.1-0.4-0.2-0.6-0.2c-0.3,0-0.7,0.1-1,0.4c-0.3,0.3-0.5,0.6-0.8,1
				c-0.2,0.4-0.4,0.9-0.5,1.4c-0.1,0.5-0.2,1.1-0.3,1.7c0,0,0,0.1,0,0.2c0,0.1,0,0.1,0,0.2c0,0.6,0,1.1,0.1,1.6
				c0.1,0.4,0.2,0.8,0.4,1.1c0.1,0.3,0.3,0.5,0.5,0.6S189,65.7,189.3,65.7z"/>
			<path id="XMLID_433_" class="st0" d="M195.5,67.5l0-11.5l2.2-0.2l-0.1,1.2c0.3-0.3,0.6-0.6,0.9-0.8c0.3-0.2,0.8-0.3,1.2-0.4
				c0.1,0,0.3,0,0.5,0c0.2,0,0.4,0.1,0.7,0.2c0.2,0.1,0.5,0.2,0.8,0.4s0.5,0.4,0.7,0.6c0.2,0.2,0.4,0.5,0.6,0.9
				c0.2,0.3,0.3,0.8,0.4,1.2l-1.6,0.7c-0.1-0.2-0.2-0.5-0.3-0.8c-0.1-0.3-0.3-0.5-0.4-0.8c-0.2-0.2-0.3-0.4-0.6-0.6
				c-0.2-0.1-0.4-0.2-0.7-0.2c-0.4,0-0.7,0.1-1,0.4c-0.3,0.3-0.5,0.6-0.7,1c-0.2,0.4-0.3,0.9-0.5,1.4c-0.1,0.5-0.2,1.1-0.3,1.6
				c-0.1,0.6-0.1,1.1-0.1,1.7s0,1.1,0,1.5c0,0.2,0,0.4,0,0.6c0,0.2,0,0.4,0,0.6s0,0.4,0,0.5c0,0.2,0,0.3,0,0.4L195.5,67.5z"/>
			<path id="XMLID_430_" class="st0" d="M206.3,58.7c-0.3,0-0.5,0-0.6-0.1c-0.2-0.1-0.3-0.2-0.4-0.3c-0.1-0.1-0.2-0.3-0.3-0.4
				s-0.1-0.3-0.1-0.5c0-0.2,0-0.4,0.1-0.6c0.1-0.2,0.2-0.4,0.3-0.5s0.3-0.3,0.5-0.4s0.4-0.1,0.6-0.1c0.2,0,0.4,0,0.6,0.1
				c0.2,0.1,0.3,0.2,0.4,0.3c0.1,0.1,0.2,0.3,0.3,0.5c0.1,0.2,0.1,0.4,0.1,0.5c0,0.2,0,0.3-0.1,0.5c-0.1,0.2-0.1,0.3-0.3,0.5
				c-0.1,0.1-0.3,0.2-0.4,0.3C206.8,58.7,206.6,58.7,206.3,58.7z M205.3,59l1.9,0.4l0.2,8.3l-2.1,0V59z"/>
			<path id="XMLID_427_" class="st0" d="M216.9,61.8c0,0.4,0,0.8-0.1,1.2c-0.1,0.4-0.2,0.8-0.3,1.3c-0.1,0.4-0.3,0.8-0.6,1.2
				c-0.2,0.4-0.5,0.7-0.8,1c-0.3,0.3-0.6,0.5-1,0.7c-0.4,0.2-0.8,0.3-1.3,0.3c-0.5,0-0.9-0.1-1.3-0.3s-0.7-0.4-1-0.8
				c-0.3-0.3-0.6-0.7-0.8-1.1c-0.2-0.4-0.4-0.9-0.6-1.3c-0.2-0.5-0.3-0.9-0.3-1.4c-0.1-0.5-0.1-0.9-0.1-1.3c0-0.6,0.1-1.1,0.2-1.7
				s0.3-1,0.6-1.5s0.6-0.8,1-1.1s0.9-0.5,1.5-0.6c0.1,0,0.2,0,0.4,0c0.1,0,0.2,0,0.4,0c0.7,0,1.3,0.2,1.8,0.5
				c0.5,0.3,0.9,0.7,1.3,1.2c0.3,0.5,0.6,1.1,0.8,1.7S216.9,61.2,216.9,61.8z M213.1,65.7c0.3-0.1,0.7-0.2,0.9-0.4
				c0.3-0.2,0.5-0.5,0.7-0.8c0.2-0.3,0.3-0.7,0.4-1.1c0.1-0.4,0.1-0.8,0.1-1.2c0-0.5-0.1-1-0.2-1.5c-0.1-0.5-0.3-0.9-0.5-1.3
				s-0.5-0.7-0.8-0.9c-0.3-0.2-0.7-0.3-1.1-0.3c-0.3,0-0.6,0.1-0.9,0.3c-0.3,0.2-0.5,0.5-0.7,0.8c-0.2,0.3-0.3,0.7-0.4,1.1
				s-0.1,0.8-0.1,1.2c0,0.5,0.1,1,0.2,1.5c0.1,0.5,0.3,1,0.5,1.4c0.2,0.4,0.5,0.7,0.8,1C212.3,65.7,212.7,65.8,213.1,65.7z"/>
		</g>
	</g>
	<g id="XMLID_48_">
		<g>
			<path id="XMLID_326_" class="st0" d="M410.1,41.3c0-0.3,0-0.7,0.1-1.1c0-0.4,0-0.7,0-1.1c0-0.4,0-0.7,0-1c0-0.3,0-0.6,0-0.9
				c0-1,0-1.8-0.1-2.5s-0.1-1.3-0.3-1.7c-0.1-0.5-0.2-0.8-0.4-1c-0.1-0.2-0.3-0.3-0.5-0.3c-0.1,0-0.2,0-0.3,0.1
				c-0.1,0.1-0.3,0.2-0.4,0.5c-0.1,0.2-0.3,0.5-0.5,0.9c-0.2,0.4-0.3,0.9-0.5,1.5l-1.5-0.4c0-0.2,0-0.4,0.1-0.7c0-0.3,0-0.5,0-0.7
				c0-0.2,0-0.4,0-0.6c0-0.2-0.1-0.4-0.1-0.5c-0.1-0.1-0.1-0.3-0.2-0.3c-0.1-0.1-0.2-0.1-0.4-0.1c-0.3,0-0.5,0.2-0.7,0.6
				c-0.2,0.4-0.3,0.9-0.4,1.4c-0.1,0.6-0.2,1.2-0.2,2c0,0.7,0,1.4,0,2.1c0,0.3,0,0.6,0,1s0,0.6,0,1c0,0.3,0,0.6,0,0.9
				c0,0.3,0,0.5,0,0.7l-1.9,0.3L402,29.8l1.9,0l0,0.9c0.2-0.3,0.5-0.5,0.8-0.7c0.3-0.2,0.6-0.3,1-0.3c0.1,0,0.1,0,0.2,0
				c0.1,0,0.1,0,0.2,0c0.3,0,0.5,0.2,0.8,0.5c0.3,0.3,0.4,0.6,0.6,1c0.1-0.2,0.3-0.3,0.5-0.5c0.2-0.2,0.3-0.3,0.5-0.4
				s0.4-0.2,0.6-0.2c0.2,0,0.4-0.1,0.6,0c0.4,0.1,0.8,0.3,1.1,0.6c0.3,0.3,0.5,0.7,0.7,1.1s0.4,1,0.5,1.6c0.1,0.6,0.2,1.2,0.3,1.8
				s0.1,1.3,0.1,2c0,0.7,0,1.3,0,2c0,0.1,0,0.3,0,0.5s0,0.4,0,0.5c0,0.2,0,0.3,0,0.5c0,0.2,0,0.3,0,0.4L410.1,41.3z"/>
			<path id="XMLID_323_" class="st0" d="M415.5,32c-0.3,0-0.5,0-0.6-0.1s-0.3-0.2-0.4-0.3c-0.1-0.1-0.2-0.3-0.3-0.4
				s-0.1-0.3-0.1-0.5c0-0.2,0-0.4,0.1-0.6s0.2-0.4,0.3-0.5c0.1-0.1,0.3-0.3,0.5-0.3c0.2-0.1,0.4-0.1,0.6-0.1c0.2,0,0.4,0,0.6,0.1
				c0.2,0.1,0.3,0.2,0.4,0.3c0.1,0.1,0.2,0.3,0.3,0.5s0.1,0.4,0.1,0.5s0,0.3-0.1,0.5c-0.1,0.2-0.1,0.3-0.3,0.5
				c-0.1,0.1-0.3,0.2-0.4,0.3C415.9,32,415.7,32,415.5,32z M414.4,32.3l1.9,0.4l0.2,8.3l-2.1,0V32.3z"/>
			<path id="XMLID_321_" class="st0" d="M424.9,37.3c0,0.1,0,0.3,0,0.4c0,0.1,0,0.3,0,0.4c0,0.6-0.1,1.1-0.3,1.5
				c-0.2,0.4-0.4,0.8-0.8,1c-0.3,0.3-0.7,0.5-1.1,0.6c-0.4,0.1-0.8,0.2-1.3,0.2c-0.5,0-0.9-0.1-1.4-0.2c-0.5-0.1-0.9-0.3-1.3-0.5
				c-0.1,0-0.2-0.1-0.3-0.1c-0.1,0-0.2-0.1-0.3-0.1c-0.1,0-0.2-0.1-0.3-0.1c-0.1,0-0.2-0.1-0.2-0.1l0.4-2.1c0,0,0.1,0,0.1,0.1
				c0.1,0,0.1,0.1,0.2,0.1s0.1,0.1,0.2,0.1c0.1,0,0.1,0.1,0.1,0.1c0.2,0.1,0.3,0.2,0.6,0.3c0.2,0.1,0.4,0.2,0.7,0.3
				c0.2,0.1,0.5,0.2,0.7,0.3s0.5,0.1,0.7,0.1c0.2,0,0.4,0,0.6-0.1c0.2-0.1,0.4-0.2,0.5-0.3s0.3-0.3,0.4-0.5c0.1-0.2,0.1-0.5,0.1-0.7
				c0,0,0-0.1,0-0.2c0-0.1,0-0.1,0-0.2c0-0.2-0.1-0.5-0.3-0.7c-0.1-0.2-0.3-0.4-0.5-0.5c-0.2-0.2-0.5-0.3-0.7-0.5
				c-0.3-0.1-0.5-0.3-0.8-0.4c-0.4-0.2-0.8-0.4-1.2-0.6c-0.4-0.2-0.7-0.5-1-0.7s-0.5-0.6-0.6-0.9c-0.1-0.3-0.2-0.6-0.2-1
				c0-0.3,0-0.6,0.1-0.9s0.2-0.5,0.4-0.8c0.2-0.2,0.3-0.5,0.5-0.7c0.2-0.2,0.4-0.4,0.7-0.5c0.5-0.3,1-0.4,1.4-0.4
				c0.3,0,0.6,0.1,0.9,0.2c0.3,0.1,0.6,0.3,0.8,0.5c0.3,0.2,0.5,0.5,0.7,0.8c0.2,0.3,0.4,0.7,0.6,1.1l-1.4,1
				c-0.1-0.2-0.2-0.5-0.4-0.7c-0.1-0.2-0.3-0.5-0.4-0.7c-0.1-0.2-0.3-0.4-0.5-0.5c-0.2-0.1-0.3-0.2-0.5-0.2c-0.2,0-0.4,0.1-0.6,0.3
				c-0.2,0.1-0.3,0.3-0.4,0.6c-0.1,0.3-0.2,0.5-0.2,0.8c0,0.2,0,0.3,0.1,0.4c0,0.1,0.1,0.3,0.2,0.4c0.2,0.2,0.4,0.4,0.7,0.5
				c0.3,0.1,0.5,0.3,0.8,0.4c0.2,0.1,0.4,0.2,0.5,0.2s0.3,0.1,0.4,0.2c0.3,0.1,0.5,0.3,0.8,0.5c0.3,0.2,0.5,0.4,0.7,0.6
				c0.2,0.2,0.4,0.5,0.5,0.8C424.7,36.6,424.8,36.9,424.9,37.3z"/>
			<path id="XMLID_319_" class="st0" d="M436.5,40.7c-0.7,0-1.3-0.1-1.8-0.4c-0.5-0.3-1-0.7-1.3-1.2c-0.3-0.5-0.6-1.1-0.8-1.7
				c-0.2-0.6-0.3-1.3-0.3-2c0-0.7,0.1-1.4,0.3-2.1c0.2-0.7,0.5-1.4,0.9-1.9c0.4-0.6,0.9-1.1,1.5-1.5s1.3-0.6,2.1-0.7
				c0.3,0,0.7,0,1.1,0.2c0.4,0.1,0.8,0.4,1.1,0.7c0.3,0.3,0.6,0.7,0.8,1.2c0.2,0.5,0.3,1,0.2,1.6l-1.6-0.1c0-0.4-0.1-0.8-0.3-1
				c-0.2-0.2-0.3-0.4-0.5-0.5c-0.2-0.1-0.4-0.2-0.6-0.2c-0.2,0-0.3,0-0.4,0c-0.2,0-0.4,0-0.6,0.2c-0.2,0.1-0.4,0.2-0.6,0.4
				c-0.2,0.2-0.4,0.4-0.6,0.6c-0.2,0.2-0.3,0.5-0.5,0.7c-0.2,0.4-0.4,0.9-0.5,1.4c-0.1,0.5-0.2,1-0.2,1.6c0,0.4,0.1,0.8,0.2,1.2
				c0.1,0.4,0.3,0.7,0.5,1c0.2,0.3,0.5,0.5,0.8,0.7c0.3,0.2,0.7,0.3,1.1,0.3c0.4,0,0.7-0.1,1-0.2c0.3-0.2,0.5-0.4,0.7-0.6
				s0.4-0.6,0.5-0.9s0.2-0.7,0.3-1l1.7,0.8c-0.1,0.5-0.2,1-0.5,1.5s-0.5,0.9-0.9,1.2s-0.8,0.6-1.3,0.9
				C437.6,40.6,437.1,40.7,436.5,40.7z"/>
			<path id="XMLID_316_" class="st0" d="M450.6,35.1c0,0.4,0,0.8-0.1,1.2c-0.1,0.4-0.2,0.8-0.3,1.3c-0.1,0.4-0.3,0.8-0.6,1.2
				c-0.2,0.4-0.5,0.7-0.8,1c-0.3,0.3-0.6,0.5-1,0.7s-0.8,0.3-1.3,0.3c-0.5,0-0.9-0.1-1.3-0.3c-0.4-0.2-0.7-0.4-1-0.8
				s-0.6-0.7-0.8-1.1c-0.2-0.4-0.4-0.9-0.6-1.3c-0.2-0.5-0.3-0.9-0.3-1.4c-0.1-0.5-0.1-0.9-0.1-1.3c0-0.6,0.1-1.1,0.2-1.7
				c0.1-0.5,0.3-1,0.6-1.5c0.3-0.4,0.6-0.8,1-1.1c0.4-0.3,0.9-0.5,1.5-0.6c0.1,0,0.2,0,0.4,0c0.1,0,0.2,0,0.4,0
				c0.7,0,1.3,0.2,1.8,0.5c0.5,0.3,0.9,0.7,1.3,1.2c0.3,0.5,0.6,1.1,0.8,1.7C450.5,33.8,450.6,34.5,450.6,35.1z M446.7,39
				c0.3-0.1,0.7-0.2,0.9-0.4c0.3-0.2,0.5-0.5,0.7-0.8s0.3-0.7,0.4-1.1c0.1-0.4,0.1-0.8,0.1-1.2c0-0.5-0.1-1-0.2-1.5
				c-0.1-0.5-0.3-0.9-0.5-1.3s-0.5-0.7-0.8-0.9c-0.3-0.2-0.7-0.3-1.1-0.3c-0.3,0-0.6,0.1-0.9,0.3c-0.3,0.2-0.5,0.5-0.7,0.8
				c-0.2,0.3-0.3,0.7-0.4,1.1s-0.1,0.8-0.1,1.2c0,0.5,0.1,1,0.2,1.5s0.3,1,0.5,1.4c0.2,0.4,0.5,0.7,0.8,1
				C446,39,446.3,39.1,446.7,39z"/>
			<path id="XMLID_314_" class="st0" d="M459.8,41.3c0-0.3,0-0.7,0.1-1.1c0-0.4,0-0.7,0-1.1c0-0.4,0-0.7,0-1c0-0.3,0-0.6,0-0.9
				c0-1,0-1.8-0.1-2.5s-0.1-1.3-0.3-1.7c-0.1-0.5-0.2-0.8-0.4-1c-0.1-0.2-0.3-0.3-0.5-0.3c-0.1,0-0.2,0-0.3,0.1
				c-0.1,0.1-0.3,0.2-0.4,0.5c-0.1,0.2-0.3,0.5-0.5,0.9c-0.2,0.4-0.3,0.9-0.5,1.5l-1.5-0.4c0-0.2,0-0.4,0.1-0.7c0-0.3,0-0.5,0-0.7
				c0-0.2,0-0.4,0-0.6c0-0.2-0.1-0.4-0.1-0.5c-0.1-0.1-0.1-0.3-0.2-0.3c-0.1-0.1-0.2-0.1-0.4-0.1c-0.3,0-0.5,0.2-0.7,0.6
				c-0.2,0.4-0.3,0.9-0.4,1.4c-0.1,0.6-0.2,1.2-0.2,2c0,0.7,0,1.4,0,2.1c0,0.3,0,0.6,0,1s0,0.6,0,1c0,0.3,0,0.6,0,0.9
				c0,0.3,0,0.5,0,0.7l-1.9,0.3l-0.3-11.6l1.9,0l0,0.9c0.2-0.3,0.5-0.5,0.8-0.7c0.3-0.2,0.6-0.3,1-0.3c0.1,0,0.1,0,0.2,0
				c0.1,0,0.1,0,0.2,0c0.3,0,0.5,0.2,0.8,0.5c0.3,0.3,0.4,0.6,0.6,1c0.1-0.2,0.3-0.3,0.5-0.5c0.2-0.2,0.3-0.3,0.5-0.4
				s0.4-0.2,0.6-0.2c0.2,0,0.4-0.1,0.6,0c0.4,0.1,0.8,0.3,1.1,0.6c0.3,0.3,0.5,0.7,0.7,1.1s0.4,1,0.5,1.6c0.1,0.6,0.2,1.2,0.3,1.8
				s0.1,1.3,0.1,2c0,0.7,0,1.3,0,2c0,0.1,0,0.3,0,0.5s0,0.4,0,0.5c0,0.2,0,0.3,0,0.5c0,0.2,0,0.3,0,0.4L459.8,41.3z"/>
			<path id="XMLID_311_" class="st0" d="M463.6,29.2l1.5,0v1.1c0.2-0.2,0.4-0.3,0.6-0.5c0.2-0.2,0.4-0.3,0.7-0.4
				c0.2-0.1,0.5-0.2,0.8-0.3s0.6-0.1,0.9,0c0.4,0,0.7,0.1,1.1,0.3c0.4,0.2,0.7,0.4,1,0.7c0.3,0.3,0.5,0.7,0.7,1.2s0.3,1.1,0.3,1.7
				c0,0.1,0,0.2,0,0.3s0,0.2,0,0.3c0,0.6-0.2,1.2-0.4,1.6s-0.5,0.8-0.9,1.1c-0.4,0.3-0.7,0.5-1.2,0.7c-0.4,0.1-0.8,0.2-1.3,0.2
				c-0.4,0-0.7-0.1-1.1-0.3c-0.3-0.2-0.7-0.4-0.9-0.7c0,0.9,0,1.7,0.1,2.6c0,0.9,0,1.7,0.1,2.5l-1.8-0.2V29.2z M465.4,33.3
				c0,0.2,0,0.4,0.1,0.6s0.2,0.5,0.4,0.7c0.2,0.2,0.4,0.4,0.6,0.6c0.2,0.2,0.5,0.3,0.8,0.3c0.3,0,0.5-0.1,0.8-0.2s0.5-0.3,0.7-0.5
				c0.2-0.2,0.4-0.5,0.5-0.8s0.2-0.6,0.2-0.9c0-0.5-0.1-0.9-0.2-1.2c-0.1-0.3-0.3-0.5-0.4-0.7c-0.2-0.2-0.3-0.3-0.5-0.4
				s-0.3-0.1-0.5-0.1c-0.3,0-0.6,0-0.8,0.2c-0.3,0.1-0.5,0.3-0.8,0.6s-0.4,0.5-0.6,0.8C465.5,32.6,465.4,33,465.4,33.3z"/>
			<path id="XMLID_309_" class="st0" d="M472.3,40.8l0-11.5l2.2-0.2l-0.1,1.2c0.3-0.3,0.6-0.6,0.9-0.8c0.3-0.2,0.8-0.3,1.2-0.4
				c0.1,0,0.3,0,0.5,0c0.2,0,0.4,0.1,0.7,0.2s0.5,0.2,0.8,0.4s0.5,0.4,0.7,0.6c0.2,0.2,0.4,0.5,0.6,0.9c0.2,0.3,0.3,0.8,0.4,1.2
				l-1.6,0.7c-0.1-0.2-0.2-0.5-0.3-0.8s-0.3-0.5-0.4-0.8s-0.3-0.4-0.6-0.6c-0.2-0.2-0.4-0.2-0.7-0.2c-0.4,0-0.7,0.2-1,0.4
				c-0.3,0.3-0.5,0.6-0.7,1c-0.2,0.4-0.3,0.9-0.5,1.4c-0.1,0.5-0.2,1.1-0.3,1.6c-0.1,0.6-0.1,1.1-0.1,1.7c0,0.6,0,1.1,0,1.5
				c0,0.2,0,0.4,0,0.6c0,0.2,0,0.4,0,0.6s0,0.4,0,0.5c0,0.2,0,0.3,0,0.4L472.3,40.8z"/>
			<path id="XMLID_306_" class="st0" d="M484.6,40.7c-0.6,0.1-1.2-0.1-1.6-0.3s-0.8-0.7-1-1.2c-0.3-0.5-0.5-1-0.6-1.7
				c-0.1-0.6-0.2-1.3-0.2-1.9c0-0.1,0-0.1,0-0.2c0-0.1,0-0.2,0-0.2c0-0.4,0.1-0.8,0.1-1.3c0.1-0.5,0.2-0.9,0.3-1.4
				c0.1-0.5,0.3-0.9,0.5-1.4c0.2-0.4,0.5-0.8,0.8-1.1c0.3-0.3,0.7-0.6,1.1-0.8c0.4-0.2,0.9-0.3,1.4-0.2c0.4,0,0.7,0.1,1.1,0.3
				c0.3,0.2,0.6,0.4,0.9,0.7c0-0.2,0-0.3,0-0.5s0-0.3,0-0.5l1.9,0.2l-0.2,11.2l-1.7,0.1v-2.3c-0.2,0.3-0.3,0.6-0.5,0.9
				s-0.4,0.5-0.6,0.8c-0.2,0.2-0.5,0.4-0.8,0.6C485.3,40.6,484.9,40.7,484.6,40.7z M484.5,39c0.3,0,0.5-0.1,0.8-0.4
				c0.3-0.3,0.5-0.6,0.7-1c0.2-0.4,0.4-0.9,0.5-1.3c0.1-0.5,0.2-0.9,0.3-1.4c0.1-0.5,0.1-0.9,0.1-1.3c0-0.5,0-0.9-0.1-1.3
				c-0.1-0.4-0.2-0.6-0.3-0.9c-0.1-0.2-0.3-0.4-0.5-0.5c-0.2-0.1-0.4-0.2-0.6-0.2c-0.3,0-0.7,0.1-1,0.4c-0.3,0.3-0.5,0.6-0.8,1
				c-0.2,0.4-0.4,0.9-0.5,1.4c-0.1,0.5-0.2,1.1-0.3,1.7c0,0,0,0.1,0,0.2c0,0.1,0,0.1,0,0.2c0,0.6,0,1.1,0.1,1.6
				c0.1,0.4,0.2,0.8,0.4,1.1c0.1,0.3,0.3,0.5,0.5,0.6S484.3,39,484.5,39z"/>
			<path id="XMLID_304_" class="st0" d="M497.5,37.3c0,0.1,0,0.3,0,0.4c0,0.1,0,0.3,0,0.4c0,0.6-0.1,1.1-0.3,1.5
				c-0.2,0.4-0.4,0.8-0.8,1c-0.3,0.3-0.7,0.5-1.1,0.6c-0.4,0.1-0.8,0.2-1.3,0.2c-0.5,0-0.9-0.1-1.4-0.2c-0.5-0.1-0.9-0.3-1.3-0.5
				c-0.1,0-0.2-0.1-0.3-0.1c-0.1,0-0.2-0.1-0.3-0.1c-0.1,0-0.2-0.1-0.3-0.1c-0.1,0-0.2-0.1-0.2-0.1l0.4-2.1c0,0,0.1,0,0.1,0.1
				c0.1,0,0.1,0.1,0.2,0.1s0.1,0.1,0.2,0.1c0.1,0,0.1,0.1,0.1,0.1c0.2,0.1,0.3,0.2,0.6,0.3c0.2,0.1,0.4,0.2,0.7,0.3
				c0.2,0.1,0.5,0.2,0.7,0.3s0.5,0.1,0.7,0.1c0.2,0,0.4,0,0.6-0.1c0.2-0.1,0.4-0.2,0.5-0.3s0.3-0.3,0.4-0.5c0.1-0.2,0.1-0.5,0.1-0.7
				c0,0,0-0.1,0-0.2c0-0.1,0-0.1,0-0.2c0-0.2-0.1-0.5-0.3-0.7c-0.1-0.2-0.3-0.4-0.5-0.5c-0.2-0.2-0.5-0.3-0.7-0.5
				c-0.3-0.1-0.5-0.3-0.8-0.4c-0.4-0.2-0.8-0.4-1.2-0.6c-0.4-0.2-0.7-0.5-1-0.7s-0.5-0.6-0.6-0.9c-0.1-0.3-0.2-0.6-0.2-1
				c0-0.3,0-0.6,0.1-0.9s0.2-0.5,0.4-0.8c0.2-0.2,0.3-0.5,0.5-0.7c0.2-0.2,0.4-0.4,0.7-0.5c0.5-0.3,1-0.4,1.4-0.4
				c0.3,0,0.6,0.1,0.9,0.2c0.3,0.1,0.6,0.3,0.8,0.5c0.3,0.2,0.5,0.5,0.7,0.8c0.2,0.3,0.4,0.7,0.6,1.1l-1.4,1
				c-0.1-0.2-0.2-0.5-0.4-0.7c-0.1-0.2-0.3-0.5-0.4-0.7c-0.1-0.2-0.3-0.4-0.5-0.5c-0.2-0.1-0.3-0.2-0.5-0.2c-0.2,0-0.4,0.1-0.6,0.3
				c-0.2,0.1-0.3,0.3-0.4,0.6c-0.1,0.3-0.2,0.5-0.2,0.8c0,0.2,0,0.3,0.1,0.4c0,0.1,0.1,0.3,0.2,0.4c0.2,0.2,0.4,0.4,0.7,0.5
				c0.3,0.1,0.5,0.3,0.8,0.4c0.2,0.1,0.4,0.2,0.5,0.2s0.3,0.1,0.4,0.2c0.3,0.1,0.5,0.3,0.8,0.5c0.3,0.2,0.5,0.4,0.7,0.6
				c0.2,0.2,0.4,0.5,0.5,0.8C497.4,36.6,497.5,36.9,497.5,37.3z"/>
		</g>
	</g>
	<g id="XMLID_6_">
		<g>
			<path id="XMLID_252_" class="st0" d="M313.6,41.3c0-0.3,0-0.7,0.1-1.1c0-0.4,0-0.7,0-1.1c0-0.4,0-0.7,0-1c0-0.3,0-0.6,0-0.9
				c0-1,0-1.8-0.1-2.5s-0.1-1.3-0.3-1.7c-0.1-0.5-0.2-0.8-0.4-1c-0.1-0.2-0.3-0.3-0.5-0.3c-0.1,0-0.2,0-0.3,0.1
				c-0.1,0.1-0.3,0.2-0.4,0.5c-0.1,0.2-0.3,0.5-0.4,0.9c-0.2,0.4-0.3,0.9-0.5,1.5l-1.5-0.4c0-0.2,0-0.4,0.1-0.7c0-0.3,0-0.5,0-0.7
				c0-0.2,0-0.4,0-0.6c0-0.2-0.1-0.4-0.1-0.5c-0.1-0.1-0.1-0.3-0.2-0.3s-0.2-0.1-0.4-0.1c-0.3,0-0.5,0.2-0.7,0.6
				c-0.2,0.4-0.3,0.9-0.4,1.4c-0.1,0.6-0.2,1.2-0.2,2c0,0.7,0,1.4,0,2.1c0,0.3,0,0.6,0,1s0,0.6,0,1c0,0.3,0,0.6,0,0.9
				c0,0.3,0,0.5,0,0.7l-1.9,0.3l-0.3-11.6l1.9,0l0,0.9c0.2-0.3,0.5-0.5,0.8-0.7c0.3-0.2,0.6-0.3,1-0.3c0.1,0,0.1,0,0.2,0
				c0.1,0,0.1,0,0.2,0c0.3,0,0.5,0.2,0.8,0.5s0.4,0.6,0.6,1c0.1-0.2,0.3-0.3,0.5-0.5c0.2-0.2,0.3-0.3,0.5-0.4s0.4-0.2,0.6-0.2
				c0.2,0,0.4-0.1,0.6,0c0.4,0.1,0.8,0.3,1.1,0.6c0.3,0.3,0.5,0.7,0.7,1.1c0.2,0.5,0.4,1,0.5,1.6c0.1,0.6,0.2,1.2,0.3,1.8
				s0.1,1.3,0.1,2c0,0.7,0,1.3,0,2c0,0.1,0,0.3,0,0.5s0,0.4,0,0.5s0,0.3,0,0.5c0,0.2,0,0.3,0,0.4L313.6,41.3z"/>
			<path id="XMLID_249_" class="st0" d="M318.9,32c-0.3,0-0.5,0-0.6-0.1s-0.3-0.2-0.4-0.3c-0.1-0.1-0.2-0.3-0.3-0.4
				s-0.1-0.3-0.1-0.5c0-0.2,0-0.4,0.1-0.6s0.2-0.4,0.3-0.5c0.1-0.1,0.3-0.3,0.5-0.3c0.2-0.1,0.4-0.1,0.6-0.1c0.2,0,0.4,0,0.6,0.1
				c0.2,0.1,0.3,0.2,0.4,0.3s0.2,0.3,0.3,0.5s0.1,0.4,0.1,0.5s0,0.3-0.1,0.5c-0.1,0.2-0.1,0.3-0.3,0.5c-0.1,0.1-0.3,0.2-0.4,0.3
				S319.2,32,318.9,32z M317.9,32.3l1.9,0.4l0.2,8.3l-2.1,0V32.3z"/>
			<path id="XMLID_246_" class="st0" d="M327.6,29.2l1.5,0v1.1c0.2-0.2,0.4-0.3,0.6-0.5c0.2-0.2,0.4-0.3,0.7-0.4
				c0.2-0.1,0.5-0.2,0.8-0.3s0.6-0.1,0.9,0c0.4,0,0.7,0.1,1.1,0.3c0.4,0.2,0.7,0.4,1,0.7c0.3,0.3,0.5,0.7,0.7,1.2
				c0.2,0.5,0.3,1.1,0.3,1.7c0,0.1,0,0.2,0,0.3s0,0.2,0,0.3c0,0.6-0.2,1.2-0.4,1.6c-0.2,0.5-0.5,0.8-0.9,1.1
				c-0.4,0.3-0.7,0.5-1.2,0.7s-0.8,0.2-1.3,0.2c-0.4,0-0.7-0.1-1.1-0.3c-0.3-0.2-0.7-0.4-0.9-0.7c0,0.9,0,1.7,0.1,2.6
				c0,0.9,0,1.7,0.1,2.5l-1.8-0.2V29.2z M329.4,33.3c0,0.2,0,0.4,0.1,0.6s0.2,0.5,0.4,0.7c0.2,0.2,0.4,0.4,0.6,0.6
				c0.2,0.2,0.5,0.3,0.8,0.3c0.3,0,0.5-0.1,0.8-0.2s0.5-0.3,0.7-0.5s0.4-0.5,0.5-0.8s0.2-0.6,0.2-0.9c0-0.5-0.1-0.9-0.2-1.2
				c-0.1-0.3-0.3-0.5-0.4-0.7c-0.2-0.2-0.3-0.3-0.5-0.4s-0.3-0.1-0.5-0.1c-0.3,0-0.6,0-0.8,0.2c-0.3,0.1-0.5,0.3-0.8,0.6
				c-0.2,0.2-0.4,0.5-0.6,0.8C329.5,32.6,329.4,33,329.4,33.3z"/>
			<path id="XMLID_243_" class="st0" d="M340,40.8c-0.5,0-0.9-0.1-1.3-0.3c-0.4-0.2-0.7-0.4-1-0.8c-0.3-0.3-0.5-0.7-0.8-1.1
				s-0.4-0.9-0.5-1.3c-0.1-0.5-0.2-1-0.3-1.4s-0.1-1-0.1-1.4c0-0.8,0.2-1.6,0.5-2.2c0.3-0.7,0.7-1.2,1.1-1.7c0.5-0.5,1-0.8,1.5-1.1
				c0.6-0.2,1.1-0.4,1.7-0.4c0.1,0,0.1,0,0.2,0c0.1,0,0.1,0,0.2,0c0.4,0,0.8,0.2,1.2,0.4c0.4,0.2,0.7,0.5,1,0.9
				c0.3,0.4,0.5,0.9,0.7,1.5s0.3,1.3,0.3,2.1l-6.5-0.2c0,0.2,0,0.4,0,0.6c0,0.2,0,0.4,0,0.5c0,0.6,0.1,1.1,0.2,1.6
				c0.1,0.5,0.3,0.9,0.5,1.2c0.2,0.3,0.4,0.6,0.7,0.8c0.3,0.2,0.6,0.3,0.9,0.4c0.2,0,0.4,0,0.6-0.1c0.3-0.1,0.5-0.2,0.7-0.4
				c0.2-0.2,0.5-0.5,0.6-0.9s0.3-0.8,0.4-1.4l2.1,0.3c-0.2,0.8-0.4,1.5-0.7,2.1c-0.3,0.6-0.6,1-1,1.4c-0.4,0.3-0.8,0.6-1.3,0.7
				C341.1,40.7,340.6,40.8,340,40.8z M340.9,30.8c-0.2,0-0.5,0-0.7,0.1c-0.3,0.1-0.5,0.1-0.7,0.2c-0.2,0.1-0.4,0.2-0.6,0.4
				c-0.2,0.2-0.4,0.3-0.5,0.5c0.3,0,0.6,0,0.8,0s0.6,0,0.8,0h0.7c0.2,0,0.3,0,0.5,0c0.1,0,0.3,0,0.4,0c0.1,0,0.3,0,0.4,0
				c0.1,0,0.3,0,0.5,0c-0.1-0.1-0.1-0.3-0.2-0.4c-0.1-0.2-0.2-0.3-0.4-0.4c-0.1-0.1-0.3-0.2-0.5-0.3
				C341.3,30.9,341.1,30.9,340.9,30.8z"/>
			<path id="XMLID_216_" class="st0" d="M346,40.8l0-11.5l2.2-0.2l-0.1,1.2c0.3-0.3,0.6-0.6,0.9-0.8c0.3-0.2,0.8-0.3,1.2-0.4
				c0.1,0,0.3,0,0.5,0c0.2,0,0.4,0.1,0.7,0.2s0.5,0.2,0.8,0.4c0.3,0.2,0.5,0.4,0.7,0.6s0.4,0.5,0.6,0.9c0.2,0.3,0.3,0.8,0.4,1.2
				l-1.6,0.7c-0.1-0.2-0.2-0.5-0.3-0.8s-0.3-0.5-0.4-0.8c-0.2-0.2-0.3-0.4-0.6-0.6c-0.2-0.2-0.4-0.2-0.7-0.2c-0.4,0-0.7,0.2-1,0.4
				c-0.3,0.3-0.5,0.6-0.7,1c-0.2,0.4-0.3,0.9-0.5,1.4c-0.1,0.5-0.2,1.1-0.3,1.6c-0.1,0.6-0.1,1.1-0.1,1.7c0,0.6,0,1.1,0,1.5
				c0,0.2,0,0.4,0,0.6c0,0.2,0,0.4,0,0.6s0,0.4,0,0.5c0,0.2,0,0.3,0,0.4L346,40.8z"/>
			<path id="XMLID_214_" class="st0" d="M360,35.1l-2.6,0.1c0.1,0.9,0.1,1.9,0.2,2.9c0.1,1,0.1,2,0.2,2.9l-1.9,0.4l-0.3-5.8
				c0,0,0-0.1,0-0.1c0,0,0,0,0,0c0,0,0,0,0,0c0,0,0-0.1,0-0.1c-0.3,0-0.6,0-0.9,0c-0.3,0-0.6,0-0.8,0l0.2-1.8l1.5,0
				c0.1-0.6,0.1-1.1,0.3-1.6c0.1-0.5,0.3-0.8,0.5-1.2c0.2-0.3,0.5-0.6,0.8-0.8c0.3-0.2,0.6-0.3,1-0.4c0.3-0.1,0.5-0.1,0.8-0.1
				c0.4,0,0.7,0.1,1.1,0.2c0.3,0.2,0.6,0.4,0.9,0.6c0.3,0.3,0.5,0.6,0.7,1c0.2,0.4,0.4,0.8,0.5,1.3l-2.1,0.3c0-0.2-0.1-0.4-0.2-0.7
				s-0.2-0.4-0.3-0.6c-0.1-0.2-0.2-0.3-0.4-0.4c-0.1-0.1-0.3-0.2-0.4-0.2c-0.1,0-0.2,0-0.3,0.1c-0.2,0.1-0.4,0.2-0.6,0.3
				c-0.2,0.2-0.3,0.4-0.4,0.6c-0.1,0.2-0.2,0.4-0.2,0.7s-0.1,0.5-0.1,0.7c0.4,0,0.9,0,1.4,0s0.9,0,1.3,0L360,35.1z"/>
			<path id="XMLID_211_" class="st0" d="M365.1,32c-0.3,0-0.5,0-0.6-0.1s-0.3-0.2-0.4-0.3c-0.1-0.1-0.2-0.3-0.3-0.4
				s-0.1-0.3-0.1-0.5c0-0.2,0-0.4,0.1-0.6s0.2-0.4,0.3-0.5c0.1-0.1,0.3-0.3,0.5-0.3c0.2-0.1,0.4-0.1,0.6-0.1c0.2,0,0.4,0,0.6,0.1
				c0.2,0.1,0.3,0.2,0.4,0.3s0.2,0.3,0.3,0.5s0.1,0.4,0.1,0.5s0,0.3-0.1,0.5c-0.1,0.2-0.1,0.3-0.3,0.5c-0.1,0.1-0.3,0.2-0.4,0.3
				S365.3,32,365.1,32z M364,32.3l1.9,0.4l0.2,8.3l-2.1,0V32.3z"/>
			<path id="XMLID_209_" class="st0" d="M367.7,29.7l1.7-0.2l0.4,11.6l-2-0.3L367.7,29.7z"/>
		</g>
	</g>
</g>
<g id="vert-line">
	<g id="XMLID_4_">
		<g>
			<path class="st0" d="M390.2,48.1c0.3-8.9,0-17.9-0.1-26.8c0-1.6-2.6-1.6-2.6,0c0,8.9,0.4,17.9,0.1,26.8
				C387.6,49.7,390.1,49.7,390.2,48.1L390.2,48.1z"/>
		</g>
	</g>
</g>
</svg>
