<?xml version="1.0" encoding="utf-8"?>
<!-- Generator: Adobe Illustrator 19.0.0, SVG Export Plug-In . SVG Version: 6.00 Build 0)  -->
<svg version="1.1" id="boton_x5F_buscar_x5F_menú_x5F_02"
	 xmlns="http://www.w3.org/2000/svg" xmlns:xlink="http://www.w3.org/1999/xlink" x="0px" y="0px" viewBox="0 0 87.1 77.8"
	 style="enable-background:new 0 0 87.1 77.8;" xml:space="preserve">
<style type="text/css">
	.st0{fill:#00BCAD;}
	.st1{fill:#FFFFFF;}
</style>
<g id="XMLID_124_">
	<path id="XMLID_2444_" class="st0" d="M75.1,77.8l-63.1,0c-6.6,0-12-5.4-12-12L0,12C0,5.4,5.4,0,12,0l63.1,0c6.6,0,12,5.4,12,12
		l0,53.8C87.1,72.4,81.7,77.8,75.1,77.8z"/>
	<path id="XMLID_286_" class="st1" d="M17.2,56.5l11-11c-2.6-3.8-4-8.1-4-12.8c0-3,0.6-6,1.8-8.7c1.2-2.8,2.8-5.2,4.8-7.2
		c2-2,4.4-3.6,7.2-4.8s5.7-1.8,8.7-1.8c3,0,6,0.6,8.7,1.8s5.2,2.8,7.2,4.8c2,2,3.6,4.4,4.8,7.2c1.2,2.8,1.8,5.7,1.8,8.7
		c0,3-0.6,6-1.8,8.7c-1.2,2.8-2.8,5.2-4.8,7.2c-2,2-4.4,3.6-7.2,4.8c-2.8,1.2-5.7,1.8-8.7,1.8c-4.7,0-8.9-1.3-12.8-4L23,62.2
		c-0.8,0.8-1.7,1.2-2.9,1.2c-1.1,0-2.1-0.4-2.9-1.2c-0.8-0.8-1.2-1.8-1.2-2.9C16,58.2,16.4,57.3,17.2,56.5z M36.6,42.9
		c2.8,2.8,6.2,4.2,10.1,4.2s7.3-1.4,10.1-4.2c2.8-2.8,4.2-6.2,4.2-10.1s-1.4-7.3-4.2-10.1s-6.2-4.2-10.1-4.2
		c-3.9,0-7.3,1.4-10.1,4.2s-4.2,6.2-4.2,10.1S33.8,40.1,36.6,42.9z"/>
</g>
</svg>
