<?xml version="1.0" encoding="utf-8"?>
<!-- Generator: Adobe Illustrator 19.0.0, SVG Export Plug-In . SVG Version: 6.00 Build 0)  -->
<svg version="1.1" id="boton_x5F_nuevo_x5F_menú_x5F_02"
	 xmlns="http://www.w3.org/2000/svg" xmlns:xlink="http://www.w3.org/1999/xlink" x="0px" y="0px" viewBox="0 0 80.4 77.8"
	 style="enable-background:new 0 0 80.4 77.8;" xml:space="preserve">
<style type="text/css">
	.st0{fill:#D4145A;}
	.st1{fill:#FFFFFF;}
</style>
<g id="XMLID_123_">
	<path id="XMLID_2529_" class="st0" d="M68.4,77.8l-56.4,0c-6.6,0-12-5.4-12-12L0,12C0,5.4,5.4,0,12,0l56.4,0c6.6,0,12,5.4,12,12
		l0,53.8C80.4,72.4,75,77.8,68.4,77.8z"/>
	<path id="XMLID_2490_" class="st1" d="M55.6,32.8l-10.5,0l0-10.5c0-1.4-0.5-2.7-1.5-3.7c-1-1-2.3-1.5-3.7-1.5
		c-1.4,0-2.7,0.5-3.7,1.5c-1,1-1.5,2.3-1.5,3.7l0,10.5H24.2c-1.4,0-2.7,0.5-3.7,1.5c-1,1-1.5,2.3-1.5,3.7c0,1.4,0.5,2.7,1.5,3.7
		c1,1,2.3,1.5,3.7,1.5h10.5l0,10.5c0,1.4,0.5,2.7,1.5,3.7c1,1,2.3,1.5,3.7,1.5c1.4,0,2.7-0.5,3.7-1.5c1-1,1.5-2.3,1.5-3.7l0-10.5
		h10.5c1.4,0,2.7-0.5,3.7-1.5c1-1,1.5-2.3,1.5-3.7c0-1.4-0.5-2.7-1.5-3.7C58.3,33.3,57.1,32.8,55.6,32.8z"/>
</g>
</svg>
