<?xml version="1.0" encoding="utf-8"?>
<!-- Generator: Adobe Illustrator 19.0.0, SVG Export Plug-In . SVG Version: 6.00 Build 0)  -->
<svg version="1.1" xmlns="http://www.w3.org/2000/svg" xmlns:xlink="http://www.w3.org/1999/xlink" x="0px" y="0px"
	 viewBox="-288.6 129.8 771.1 78.4" style="enable-background:new -288.6 129.8 771.1 78.4;" xml:space="preserve">
<style type="text/css">
	.st0{fill:#662D91;}
	.st1{fill:none;stroke:#FFFFFF;stroke-width:3;stroke-miterlimit:10;}
	.st2{fill:#FFFFFF;}
</style>
<g id="cont_x5F_proceso">
	<path id="XMLID_756_" class="st0" d="M465.5,204.8c-36.5,7-120.4,1.1-152.6,0.2c-28.1-0.8-465.2-2.1-576.3-2.4
		c-14.1,0-25.4-14-25.1-31l0.2-16.4c0.2-14.2,9.8-25.5,21.4-25.4l735.3,3.1C468.4,132.9,502,197.9,465.5,204.8z"/>
</g>
<g id="lineas">
	<line id="XMLID_3795_" class="st1" x1="-222" y1="161.5" x2="-57" y2="161.5"/>
	<line id="XMLID_3794_" class="st1" x1="-55" y1="161.5" x2="110" y2="161.5"/>
	<line id="XMLID_3793_" class="st1" x1="114" y1="161.5" x2="279" y2="161.5"/>
	<line id="XMLID_3753_" class="st1" x1="281" y1="161.5" x2="446" y2="161.5"/>
</g>
<g id="bolitas">
	<circle id="XMLID_3747_" class="st2" cx="-225.5" cy="159.6" r="8.4"/>
	<circle id="XMLID_3746_" class="st2" cx="-56.5" cy="159.6" r="8.4"/>
	<circle id="XMLID_3745_" class="st2" cx="113.5" cy="159.6" r="8.4"/>
	<circle id="XMLID_3744_" class="st2" cx="279.5" cy="161.6" r="8.4"/>
	<circle id="XMLID_3743_" class="st2" cx="446.5" cy="161.6" r="8.4"/>
</g>
</svg>
