<?xml version="1.0" encoding="utf-8"?>
<!-- Generator: Adobe Illustrator 22.0.0, SVG Export Plug-In . SVG Version: 6.00 Build 0)  -->
<svg version="1.1" xmlns="http://www.w3.org/2000/svg" xmlns:xlink="http://www.w3.org/1999/xlink" x="0px" y="0px"
	 viewBox="0 0 1142.6 594.7" style="enable-background:new 0 0 1142.6 594.7;" xml:space="preserve">
<style type="text/css">
	.st0{fill:#752994;}
	.st1{fill:#FFFFFF;}
	.st2{fill:#F60C5B;}
	.st3{fill:#00BCAD;}
	.st4{fill:#D6E000;}
</style>
<g id="fondo-productos">
	<path id="XMLID_3_" class="st0" d="M20.2,89.6c0,0-47.8-51.6,3.5-64.2s168.3,3.3,213.5,5c45.2,1.7,822-69.1,867.1,0
		c32.7,50.1,32.2,130.4,32.2,130.4L20.2,154.9V89.6z"/>
	<g id="XMLID_3674_">
		<path id="XMLID_3694_" class="st1" d="M788.8,189.8c-0.8,0.1-1.4,0-2.1-0.2c-0.6-0.2-1.2-0.5-1.6-0.9c-0.5-0.4-0.8-0.9-1.1-1.4
			c-0.3-0.5-0.5-1.1-0.6-1.7c-0.1-0.6-0.1-1.2,0-1.7c0.1-0.6,0.3-1.1,0.7-1.6c0.3-0.5,0.8-0.9,1.3-1.3c0.6-0.4,1.2-0.6,2.1-0.8
			c0.5-0.1,0.9-0.1,1.4,0c0.5,0.1,0.9,0.2,1.3,0.4c0.4,0.2,0.7,0.5,1,0.8c0.3,0.3,0.5,0.7,0.6,1l-1.4,0.3c-0.2-0.4-0.4-0.8-0.7-1
			c-0.2-0.2-0.5-0.4-0.7-0.5c-0.2-0.1-0.5-0.1-0.7-0.1c-0.2,0-0.5,0-0.7,0c-0.3,0-0.5,0.1-0.8,0.2c-0.3,0.1-0.5,0.3-0.7,0.5
			c-0.2,0.2-0.4,0.4-0.6,0.6c-0.2,0.2-0.3,0.5-0.5,0.8c-0.2,0.4-0.3,0.8-0.3,1.3c0,0.4,0,0.9,0,1.3c0.1,0.4,0.2,0.9,0.4,1.3
			c0.2,0.4,0.5,0.7,0.8,1s0.7,0.5,1.2,0.7c0.5,0.2,1,0.2,1.7,0.2c0.3,0,0.6-0.1,0.9-0.2c0.3-0.1,0.5-0.3,0.7-0.5s0.4-0.4,0.5-0.7
			c0.1-0.2,0.2-0.5,0.3-0.7l1.4,0.5c-0.1,0.3-0.3,0.6-0.5,0.9c-0.2,0.3-0.5,0.5-0.8,0.8c-0.3,0.2-0.7,0.4-1.1,0.6
			C789.7,189.7,789.3,189.8,788.8,189.8z"/>
		<path id="XMLID_3691_" class="st1" d="M797.8,189.9c-0.5,0-0.9-0.1-1.3-0.2c-0.4-0.2-0.7-0.4-1.1-0.6c-0.3-0.3-0.6-0.6-0.8-0.9
			c-0.2-0.4-0.4-0.7-0.5-1.1c-0.1-0.4-0.2-0.8-0.3-1.2s-0.1-0.8-0.1-1.2c0-0.7,0.2-1.4,0.5-1.9c0.3-0.6,0.8-1,1.3-1.4
			c0.5-0.4,1.1-0.7,1.7-0.8c0.6-0.2,1.2-0.2,1.8-0.2c0.4,0,0.8,0.1,1.2,0.3c0.4,0.2,0.7,0.4,1,0.7c0.3,0.3,0.5,0.7,0.7,1.1
			c0.2,0.4,0.3,1,0.3,1.6l-7.3-0.1c-0.1,0.7-0.1,1.4-0.1,2c0.1,0.6,0.2,1.1,0.5,1.6c0.2,0.4,0.6,0.8,1,1.1c0.4,0.3,0.9,0.4,1.4,0.5
			c0.2,0,0.5,0,0.8-0.1c0.3-0.1,0.6-0.2,0.9-0.4c0.3-0.2,0.6-0.4,0.8-0.8c0.2-0.3,0.4-0.8,0.5-1.3l1.6,0.1c-0.2,0.6-0.4,1.2-0.7,1.6
			c-0.3,0.4-0.6,0.8-1,1c-0.4,0.3-0.9,0.4-1.4,0.6C798.9,189.8,798.3,189.9,797.8,189.9z M795.3,182.8c1,0,2,0,2.9,0
			c0.9,0,1.8,0,2.8,0c0-0.2-0.1-0.4-0.2-0.6s-0.3-0.4-0.5-0.6c-0.2-0.2-0.4-0.3-0.7-0.4s-0.6-0.2-0.9-0.2c-0.4,0-0.7,0-1.1,0.1
			c-0.4,0.1-0.7,0.2-1.1,0.3s-0.6,0.3-0.9,0.5C795.5,182.3,795.4,182.5,795.3,182.8z"/>
		<path id="XMLID_3689_" class="st1" d="M803.6,189.9l0-9.5l1.6-0.1v0l-0.3,2.1c0.1-0.2,0.3-0.5,0.4-0.7s0.4-0.5,0.6-0.6
			c0.2-0.2,0.5-0.4,0.8-0.5c0.3-0.1,0.7-0.2,1.1-0.2c0.1,0,0.3,0,0.5,0c0.2,0,0.4,0.1,0.7,0.1c0.2,0.1,0.5,0.2,0.8,0.3
			c0.3,0.1,0.5,0.3,0.7,0.4s0.4,0.4,0.6,0.7s0.3,0.6,0.4,0.9l-1.1,0.4c-0.1-0.2-0.2-0.4-0.3-0.6c-0.1-0.2-0.3-0.4-0.5-0.6
			c-0.2-0.2-0.4-0.4-0.7-0.5s-0.6-0.2-0.9-0.2c-0.4,0-0.8,0.1-1.2,0.3c-0.3,0.2-0.6,0.5-0.9,0.8s-0.4,0.7-0.6,1.1
			c-0.2,0.4-0.3,0.9-0.4,1.4s-0.2,1-0.2,1.4c0,0.5-0.1,0.9-0.1,1.4c0,0.4,0,0.8,0,1.2s0,0.7,0,0.9L803.6,189.9z"/>
		<path id="XMLID_3685_" class="st1" d="M816.1,189.8c-0.5,0-0.9,0-1.2-0.1c-0.4-0.1-0.7-0.3-0.9-0.5s-0.5-0.5-0.6-0.8
			c-0.2-0.3-0.3-0.6-0.4-1c-0.1-0.4-0.2-0.7-0.2-1.1c0-0.4,0-0.8,0-1.1c0-0.3,0.1-0.7,0.1-1.1c0.1-0.4,0.2-0.8,0.3-1.2
			c0.2-0.4,0.3-0.8,0.6-1.1c0.2-0.4,0.5-0.7,0.8-1c0.3-0.3,0.7-0.5,1.1-0.6c0.4-0.2,0.9-0.2,1.4-0.2c0.6,0,1.1,0.2,1.5,0.5
			c0.5,0.3,0.8,0.6,1.1,1.1l-0.1-1.5l1.4,0.1l-0.2,9.4l-1.1,0l0-3.6c0,0.2-0.1,0.4-0.2,0.7c-0.1,0.3-0.2,0.5-0.4,0.8
			s-0.3,0.5-0.5,0.8c-0.2,0.3-0.4,0.5-0.7,0.7c-0.3,0.2-0.5,0.4-0.8,0.5C816.8,189.7,816.5,189.8,816.1,189.8z M816,188.9
			c0.2,0,0.5-0.1,0.7-0.2c0.2-0.1,0.4-0.3,0.7-0.5c0.2-0.2,0.4-0.4,0.6-0.7s0.3-0.5,0.5-0.8c0.1-0.3,0.3-0.6,0.3-0.9
			c0.1-0.3,0.2-0.6,0.2-0.9c0.1-0.7,0.1-1.3,0-1.8s-0.2-0.9-0.3-1.2s-0.4-0.6-0.7-0.7s-0.6-0.2-0.9-0.3c-0.5,0-0.9,0.1-1.3,0.3
			c-0.4,0.2-0.7,0.5-1,0.9s-0.5,0.8-0.7,1.4c-0.2,0.5-0.3,1.1-0.3,1.7c0,0.7,0,1.2,0.1,1.7s0.3,0.9,0.5,1.1c0.2,0.3,0.4,0.5,0.7,0.6
			S815.7,188.9,816,188.9z M815.8,179.3l1.7-1.5l0.7,0.6l-1.5,1.5L815.8,179.3z"/>
		<path id="XMLID_3683_" class="st1" d="M831.4,190.3c0.1-1.5,0.2-2.7,0.2-3.8c0-1.1-0.1-1.9-0.3-2.6s-0.3-1.2-0.6-1.5
			c-0.2-0.3-0.5-0.5-0.8-0.5c-0.1,0-0.2,0-0.4,0.1c-0.2,0.1-0.4,0.2-0.6,0.4s-0.4,0.5-0.6,0.8c-0.2,0.3-0.4,0.8-0.5,1.3l-0.9-0.2
			c0-0.1,0-0.3,0.1-0.4c0-0.2,0-0.4,0-0.6c0-0.2,0-0.4,0-0.6c0-0.2-0.1-0.4-0.2-0.5c-0.1-0.2-0.2-0.3-0.4-0.4
			c-0.2-0.1-0.4-0.1-0.7-0.1c-0.4,0-0.7,0.2-0.9,0.5c-0.2,0.3-0.4,0.7-0.6,1.2c-0.1,0.5-0.2,1.1-0.3,1.7c-0.1,0.6-0.1,1.2-0.1,1.9
			c0,0.6,0,1.2,0,1.8c0,0.6,0,1.1,0.1,1.5l-1.4,0.2l-0.3-9.6l1.4,0l-0.1,1.9c0.1-0.3,0.3-0.5,0.4-0.8c0.2-0.3,0.4-0.5,0.6-0.7
			c0.2-0.2,0.5-0.3,0.8-0.4c0.3-0.1,0.6-0.1,1,0c0.2,0,0.3,0.1,0.5,0.2c0.2,0.1,0.3,0.2,0.4,0.4c0.1,0.2,0.2,0.4,0.3,0.6
			s0.1,0.4,0.2,0.7c0.1-0.1,0.2-0.3,0.4-0.5c0.2-0.2,0.4-0.4,0.6-0.5c0.2-0.2,0.5-0.3,0.7-0.4s0.5-0.1,0.8-0.1
			c0.5,0.1,0.9,0.3,1.2,0.6s0.6,0.7,0.8,1.2s0.4,1.1,0.5,1.7c0.1,0.6,0.2,1.3,0.2,1.9s0.1,1.3,0.1,2s0,1.2,0,1.8L831.4,190.3z"/>
		<path id="XMLID_3680_" class="st1" d="M835.6,182.1c-0.3,0-0.5,0-0.7-0.1c-0.2-0.1-0.3-0.2-0.4-0.4c-0.1-0.1-0.1-0.3-0.1-0.5
			c0-0.2,0.1-0.3,0.2-0.5c0.1-0.1,0.2-0.3,0.4-0.4c0.2-0.1,0.4-0.1,0.7-0.1c0.3,0,0.5,0.1,0.6,0.1c0.2,0.1,0.3,0.2,0.4,0.4
			c0.1,0.1,0.1,0.3,0.2,0.5c0,0.2,0,0.3-0.1,0.5c-0.1,0.1-0.2,0.3-0.4,0.4C836.1,182.1,835.9,182.1,835.6,182.1z M834.8,183l1.3,0.2
			l0.2,6.8l-1.6,0V183z"/>
		<path id="XMLID_3678_" class="st1" d="M842.7,189.8c-0.7,0-1.4-0.1-1.9-0.4c-0.5-0.3-1-0.6-1.4-1c-0.4-0.4-0.6-0.9-0.8-1.5
			c-0.2-0.6-0.3-1.1-0.2-1.7s0.1-1.2,0.4-1.7c0.2-0.6,0.5-1.1,0.9-1.6s0.9-0.9,1.5-1.2s1.3-0.5,2.2-0.6c0.3,0,0.7,0,1.1,0.1
			c0.4,0.1,0.8,0.3,1.1,0.5c0.3,0.2,0.6,0.5,0.8,0.8c0.2,0.3,0.3,0.7,0.2,1.2l-1.1-0.1c0-0.3-0.1-0.5-0.2-0.7
			c-0.1-0.2-0.2-0.3-0.4-0.4s-0.3-0.2-0.5-0.3c-0.2-0.1-0.3-0.1-0.5-0.1c-0.2,0-0.3,0-0.4-0.1s-0.2,0-0.3,0c-0.3,0-0.5,0.1-0.8,0.2
			c-0.3,0.1-0.5,0.2-0.8,0.4c-0.3,0.2-0.5,0.3-0.7,0.6c-0.2,0.2-0.4,0.4-0.6,0.7c-0.2,0.4-0.4,0.7-0.6,1.2c-0.2,0.4-0.2,0.9-0.3,1.3
			c0,0.4,0,0.9,0.1,1.3c0.1,0.4,0.3,0.8,0.5,1.1c0.3,0.3,0.6,0.6,1,0.8c0.4,0.2,0.9,0.3,1.6,0.3c0.5,0,1-0.1,1.3-0.2
			s0.7-0.3,0.9-0.5c0.2-0.2,0.4-0.5,0.6-0.8s0.3-0.6,0.3-0.9l1.2,0.4c-0.1,0.4-0.2,0.8-0.5,1.1c-0.2,0.4-0.5,0.7-0.9,0.9
			c-0.4,0.3-0.8,0.5-1.3,0.7C843.9,189.7,843.3,189.8,842.7,189.8z"/>
		<path id="XMLID_3675_" class="st1" d="M851.9,189.8c-0.5,0-0.9,0-1.2-0.1s-0.7-0.3-0.9-0.5s-0.5-0.5-0.6-0.8
			c-0.2-0.3-0.3-0.6-0.4-1s-0.2-0.7-0.2-1.1c0-0.4,0-0.8,0-1.1c0-0.3,0.1-0.7,0.1-1.1c0.1-0.4,0.2-0.8,0.3-1.2
			c0.2-0.4,0.3-0.8,0.6-1.1c0.2-0.4,0.5-0.7,0.8-1c0.3-0.3,0.7-0.5,1.1-0.6s0.9-0.2,1.4-0.2c0.6,0,1.1,0.2,1.5,0.5
			c0.5,0.3,0.8,0.6,1.1,1.1l-0.1-1.5l1.4,0.1l-0.2,9.4l-1.1,0l0-3.6c0,0.2-0.1,0.4-0.2,0.7s-0.2,0.5-0.4,0.8
			c-0.1,0.3-0.3,0.5-0.5,0.8c-0.2,0.3-0.4,0.5-0.7,0.7c-0.3,0.2-0.5,0.4-0.8,0.5C852.6,189.7,852.3,189.8,851.9,189.8z M851.8,188.9
			c0.2,0,0.5-0.1,0.7-0.2c0.2-0.1,0.4-0.3,0.7-0.5c0.2-0.2,0.4-0.4,0.6-0.7s0.3-0.5,0.5-0.8c0.1-0.3,0.3-0.6,0.3-0.9
			c0.1-0.3,0.2-0.6,0.2-0.9c0.1-0.7,0.1-1.3,0-1.8c-0.1-0.5-0.2-0.9-0.3-1.2c-0.2-0.3-0.4-0.6-0.7-0.7c-0.3-0.2-0.6-0.2-0.9-0.3
			c-0.5,0-0.9,0.1-1.3,0.3c-0.4,0.2-0.7,0.5-1,0.9s-0.5,0.8-0.7,1.4c-0.2,0.5-0.3,1.1-0.3,1.7c0,0.7,0,1.2,0.1,1.7s0.3,0.9,0.5,1.1
			c0.2,0.3,0.4,0.5,0.7,0.6S851.5,188.9,851.8,188.9z"/>
	</g>
	<g id="fondo">
		<g id="XMLID_6_">
			<path class="st2" d="M20.2,89.9C3.8,115.8,13.8,567,24,576.3c11.6,10.4,18.9,11.3,36.4,11.4c344.1,2.3,666.8,4.7,1010.9,7
				c17.5,0.1,36.3-0.1,50.4-8.3c18.1-10.6,31.6-452.3,9.5-483.9c-4.4-6.3-15.4-14.7-23.4-18.3c-8.3-3.8-18.4-3.9-28-3.8
				c-261.5,0.4-523,0.7-784.4,1.1C295.3,81.3,28.8,76.1,20.2,89.9z"/>
		</g>
	</g>
</g>
<g id="fondo-subcategory">
	<g id="XMLID_8_">
		<path class="st3" d="M208.4,126.4c132.5,0,143.1,0,228.5,0c135.4,0,113.1-0.1,248.7,0c66.9,0.1,133.8-0.1,200.7,0
			c35.9,0,74.5,0.1,110.4,0c26.4-0.1,100.6,1.3,122.8,16.9c20.9,14.6,9.3,150.8,10.3,182.4c1.2,39.4-3.3,84.5-8.3,123.8
			c-4,32-2,120-15.2,121.5c-23.6,2.7-69.6,5.3-94.2,5.7c-308.5,4.7-629.2-9.4-937.8-9.4c-13.7,0.2-29.8-0.4-37.3-9
			c-4.2-4.8-4.5-10.9-4.7-16.6c-1.6-80.1,5.8-160,1.4-240.1c-4.9-89.2,3.7-161.7,8.5-175.1H208.4z"/>
	</g>
</g>
<g id="board">
	<path id="XMLID_3931_" class="st4" d="M658.1,571l-507.4-60c-19.1-1.9-38.6,0.6-55.1,7.4c-26,10.6-45.6,35.8-45.6,25.8V169.6
		c0-14.8,17.6-26.9,39.4-26.9h568.8c21.7,0,39.4,12,39.4,26.9v374.5C697.5,558.9,679.9,571,658.1,571z"/>
</g>
</svg>
