<?xml version="1.0" encoding="utf-8"?>
<!-- Generator: Adobe Illustrator 22.0.0, SVG Export Plug-In . SVG Version: 6.00 Build 0)  -->
<svg version="1.1" xmlns="http://www.w3.org/2000/svg" xmlns:xlink="http://www.w3.org/1999/xlink" x="0px" y="0px"
	 viewBox="0 0 1366.4 768.4" style="enable-background:new 0 0 1366.4 768.4;" xml:space="preserve">
<style type="text/css">
	.st0{fill:#752994;}
	.st1{fill:#FFFFFF;}
	.st2{display:none;}
	.st3{display:inline;}
	.st4{fill:#F60C5B;}
	.st5{fill:#00BCAD;}
	.st6{fill:#D6E000;}
</style>
<g id="fondo-morado">
	<path id="XMLID_3_" class="st0" d="M131.1,204.8c0,0-49.8-53.7,3.6-66.8s175.8-2.2,222.9-0.4s855.5-96.7,901.7-11.9
		c29.8,54.7,34.2,153.2,34.2,153.2l-1162.5-6V204.8z"/>
	<g id="XMLID_3674_">
		<path id="XMLID_3694_" class="st1" d="M931.5,310.1c-0.8,0.1-1.5,0-2.1-0.2s-1.2-0.5-1.7-0.9c-0.5-0.4-0.9-0.9-1.2-1.4
			c-0.3-0.6-0.5-1.1-0.6-1.7s-0.1-1.2,0-1.8c0.1-0.6,0.3-1.2,0.7-1.7c0.3-0.5,0.8-1,1.4-1.4c0.6-0.4,1.3-0.7,2.1-0.8
			c0.5-0.1,1-0.1,1.5,0c0.5,0.1,0.9,0.2,1.3,0.5c0.4,0.2,0.8,0.5,1.1,0.8c0.3,0.3,0.5,0.7,0.6,1.1l-1.4,0.3c-0.2-0.4-0.5-0.8-0.7-1
			c-0.3-0.2-0.5-0.4-0.8-0.5c-0.3-0.1-0.5-0.1-0.8-0.1c-0.3,0-0.5,0-0.7,0c-0.3,0-0.6,0.1-0.8,0.2c-0.3,0.1-0.5,0.3-0.8,0.5
			c-0.2,0.2-0.5,0.4-0.7,0.7s-0.4,0.5-0.5,0.8c-0.2,0.4-0.3,0.8-0.3,1.3c0,0.5,0,0.9,0,1.4c0.1,0.5,0.2,0.9,0.4,1.3s0.5,0.8,0.9,1.1
			c0.4,0.3,0.8,0.5,1.3,0.7c0.5,0.2,1.1,0.2,1.7,0.2c0.3,0,0.6-0.1,0.9-0.2c0.3-0.1,0.5-0.3,0.7-0.5c0.2-0.2,0.4-0.4,0.5-0.7
			c0.1-0.3,0.2-0.5,0.3-0.8l1.4,0.5c-0.1,0.3-0.3,0.6-0.5,0.9s-0.5,0.6-0.9,0.8c-0.3,0.2-0.7,0.4-1.2,0.6
			C932.4,309.9,931.9,310,931.5,310.1z"/>
		<path id="XMLID_3691_" class="st1" d="M940.8,310.1c-0.5,0-1-0.1-1.4-0.2s-0.8-0.4-1.1-0.7s-0.6-0.6-0.8-1
			c-0.2-0.4-0.4-0.8-0.5-1.2c-0.1-0.4-0.2-0.8-0.3-1.3c-0.1-0.4-0.1-0.8-0.1-1.2c0-0.8,0.2-1.4,0.5-2s0.8-1.1,1.3-1.5
			c0.5-0.4,1.1-0.7,1.8-0.9c0.6-0.2,1.3-0.2,1.9-0.2c0.5,0,0.9,0.1,1.3,0.3s0.8,0.4,1.1,0.7c0.3,0.3,0.6,0.7,0.8,1.2
			c0.2,0.5,0.3,1,0.3,1.6l-7.6-0.1c-0.1,0.8-0.1,1.5-0.1,2.1c0.1,0.6,0.2,1.2,0.5,1.7c0.3,0.5,0.6,0.8,1,1.1
			c0.4,0.3,0.9,0.4,1.5,0.5c0.2,0,0.5,0,0.8-0.1c0.3-0.1,0.7-0.2,1-0.4c0.3-0.2,0.6-0.5,0.9-0.8c0.3-0.3,0.4-0.8,0.5-1.3l1.6,0.2
			c-0.2,0.7-0.4,1.2-0.7,1.6s-0.7,0.8-1.1,1.1c-0.4,0.3-0.9,0.5-1.4,0.6C941.9,310.1,941.4,310.1,940.8,310.1z M938.2,302.7
			c1,0,2,0,3,0s1.9,0,2.9,0.1c0-0.2-0.1-0.4-0.2-0.6s-0.3-0.4-0.5-0.6c-0.2-0.2-0.4-0.3-0.7-0.5s-0.6-0.2-0.9-0.2
			c-0.4,0-0.7,0-1.1,0.1c-0.4,0.1-0.8,0.2-1.1,0.4c-0.3,0.2-0.6,0.3-0.9,0.6C938.5,302.2,938.3,302.5,938.2,302.7z"/>
		<path id="XMLID_3689_" class="st1" d="M946.9,310.1l0-9.9l1.7-0.2v0l-0.3,2.2c0.1-0.3,0.3-0.5,0.5-0.8c0.2-0.2,0.4-0.5,0.7-0.7
			c0.3-0.2,0.5-0.4,0.9-0.5c0.3-0.1,0.7-0.2,1.1-0.2c0.1,0,0.3,0,0.6,0c0.2,0,0.5,0.1,0.7,0.1c0.3,0.1,0.5,0.2,0.8,0.3
			s0.5,0.3,0.8,0.5s0.4,0.4,0.6,0.7c0.2,0.3,0.3,0.6,0.4,1l-1.1,0.4c-0.1-0.2-0.2-0.4-0.3-0.6c-0.1-0.2-0.3-0.5-0.5-0.7
			c-0.2-0.2-0.5-0.4-0.7-0.5s-0.6-0.2-0.9-0.2c-0.5,0-0.9,0.1-1.2,0.3s-0.6,0.5-0.9,0.8c-0.2,0.3-0.5,0.7-0.6,1.2
			c-0.2,0.5-0.3,0.9-0.4,1.4c-0.1,0.5-0.2,1-0.2,1.5c0,0.5-0.1,1-0.1,1.4c0,0.5,0,0.9,0,1.3c0,0.4,0,0.7,0,0.9L946.9,310.1z"/>
		<path id="XMLID_3685_" class="st1" d="M959.9,310c-0.5,0-0.9,0-1.3-0.1c-0.4-0.1-0.7-0.3-0.9-0.5s-0.5-0.5-0.7-0.8s-0.3-0.7-0.4-1
			c-0.1-0.4-0.2-0.7-0.2-1.1c0-0.4,0-0.8,0-1.2c0-0.3,0.1-0.7,0.1-1.1c0.1-0.4,0.2-0.8,0.4-1.2c0.2-0.4,0.4-0.8,0.6-1.2
			s0.5-0.7,0.9-1c0.3-0.3,0.7-0.5,1.1-0.7c0.4-0.2,0.9-0.2,1.5-0.2c0.6,0,1.1,0.2,1.6,0.5c0.5,0.3,0.9,0.7,1.2,1.1l-0.1-1.6l1.4,0.1
			l-0.2,9.7l-1.2,0l0-3.8c0,0.2-0.1,0.4-0.2,0.7c-0.1,0.3-0.2,0.6-0.4,0.8c-0.1,0.3-0.3,0.6-0.5,0.9s-0.4,0.5-0.7,0.8
			c-0.3,0.2-0.6,0.4-0.9,0.6C960.6,309.9,960.3,310,959.9,310z M959.8,309.1c0.2,0,0.5-0.1,0.7-0.2s0.5-0.3,0.7-0.5
			c0.2-0.2,0.4-0.5,0.6-0.7c0.2-0.3,0.4-0.6,0.5-0.9c0.1-0.3,0.3-0.6,0.4-0.9c0.1-0.3,0.2-0.6,0.2-0.9c0.1-0.7,0.1-1.4,0-1.9
			c-0.1-0.5-0.2-0.9-0.4-1.3c-0.2-0.3-0.4-0.6-0.7-0.7c-0.3-0.2-0.6-0.2-1-0.3c-0.5,0-1,0.1-1.4,0.3s-0.8,0.5-1,0.9
			c-0.3,0.4-0.5,0.9-0.7,1.4c-0.2,0.6-0.3,1.2-0.3,1.8c0,0.7,0,1.3,0.1,1.8c0.1,0.5,0.3,0.9,0.5,1.2s0.5,0.5,0.8,0.7
			C959.2,309.1,959.5,309.1,959.8,309.1z M959.6,299.1l1.7-1.5l0.7,0.6l-1.5,1.6L959.6,299.1z"/>
		<path id="XMLID_3683_" class="st1" d="M975.9,310.5c0.1-1.5,0.2-2.8,0.2-3.9c0-1.1-0.1-2-0.3-2.7c-0.2-0.7-0.4-1.2-0.6-1.6
			c-0.3-0.3-0.5-0.5-0.8-0.5c-0.1,0-0.2,0-0.4,0.1c-0.2,0.1-0.4,0.2-0.6,0.4s-0.4,0.5-0.6,0.8c-0.2,0.3-0.4,0.8-0.6,1.3l-1-0.2
			c0-0.1,0-0.3,0.1-0.5c0-0.2,0-0.4,0-0.6c0-0.2,0-0.4-0.1-0.6c0-0.2-0.1-0.4-0.2-0.6s-0.2-0.3-0.4-0.4c-0.2-0.1-0.4-0.1-0.7-0.1
			c-0.4,0-0.7,0.2-0.9,0.6c-0.2,0.3-0.4,0.8-0.6,1.3c-0.1,0.5-0.2,1.1-0.3,1.7c-0.1,0.6-0.1,1.3-0.1,1.9c0,0.7,0,1.3,0,1.9
			c0,0.6,0,1.1,0.1,1.6l-1.4,0.2l-0.3-10l1.4,0l-0.1,2c0.1-0.3,0.3-0.6,0.4-0.8c0.2-0.3,0.4-0.5,0.6-0.7c0.2-0.2,0.5-0.3,0.8-0.4
			c0.3-0.1,0.7-0.1,1,0c0.2,0,0.3,0.1,0.5,0.2c0.2,0.1,0.3,0.2,0.4,0.4c0.1,0.2,0.2,0.4,0.3,0.6c0.1,0.2,0.1,0.5,0.2,0.7
			c0.1-0.2,0.2-0.3,0.4-0.5c0.2-0.2,0.4-0.4,0.6-0.5s0.5-0.3,0.8-0.4s0.5-0.1,0.8-0.1c0.5,0.1,0.9,0.3,1.2,0.6
			c0.3,0.3,0.6,0.8,0.8,1.3c0.2,0.5,0.4,1.1,0.5,1.7c0.1,0.6,0.2,1.3,0.2,2c0,0.7,0.1,1.4,0.1,2s0,1.3,0,1.9L975.9,310.5z"/>
		<path id="XMLID_3680_" class="st1" d="M980.2,302c-0.3,0-0.6,0-0.7-0.1s-0.3-0.2-0.4-0.4c-0.1-0.2-0.1-0.3-0.1-0.5
			c0-0.2,0.1-0.4,0.2-0.5c0.1-0.2,0.3-0.3,0.4-0.4c0.2-0.1,0.4-0.2,0.7-0.1c0.3,0,0.5,0.1,0.7,0.2s0.3,0.2,0.4,0.4
			c0.1,0.1,0.1,0.3,0.2,0.5c0,0.2,0,0.3-0.1,0.5c-0.1,0.2-0.2,0.3-0.4,0.4C980.7,302,980.5,302,980.2,302z M979.4,303l1.4,0.2
			l0.2,7.1l-1.6,0V303z"/>
		<path id="XMLID_3678_" class="st1" d="M987.6,310.1c-0.8,0-1.4-0.1-2-0.4c-0.6-0.3-1-0.6-1.4-1.1s-0.7-1-0.8-1.5
			c-0.2-0.6-0.3-1.2-0.2-1.8c0-0.6,0.1-1.2,0.4-1.8c0.2-0.6,0.6-1.1,1-1.6c0.4-0.5,1-0.9,1.6-1.2s1.4-0.5,2.2-0.6
			c0.3,0,0.7,0,1.1,0.1s0.8,0.3,1.2,0.5c0.4,0.2,0.6,0.5,0.9,0.9c0.2,0.3,0.3,0.8,0.2,1.2l-1.1-0.1c0-0.3-0.1-0.5-0.2-0.7
			c-0.1-0.2-0.2-0.3-0.4-0.5s-0.3-0.2-0.5-0.3c-0.2-0.1-0.4-0.1-0.5-0.1c-0.2,0-0.3,0-0.5-0.1s-0.2,0-0.3,0c-0.3,0-0.6,0.1-0.8,0.2
			s-0.6,0.2-0.8,0.4s-0.5,0.4-0.7,0.6c-0.2,0.2-0.4,0.5-0.6,0.7c-0.3,0.4-0.5,0.8-0.6,1.2c-0.2,0.4-0.2,0.9-0.3,1.3
			c0,0.5,0,0.9,0.1,1.3c0.1,0.4,0.3,0.8,0.6,1.1s0.6,0.6,1.1,0.8s1,0.3,1.6,0.3c0.5,0,1-0.1,1.4-0.2c0.4-0.1,0.7-0.3,0.9-0.6
			c0.2-0.2,0.4-0.5,0.6-0.8c0.1-0.3,0.3-0.6,0.4-0.9l1.3,0.5c-0.1,0.4-0.2,0.8-0.5,1.2c-0.3,0.4-0.6,0.7-1,1
			c-0.4,0.3-0.8,0.5-1.4,0.7C988.8,310,988.2,310,987.6,310.1z"/>
		<path id="XMLID_3675_" class="st1" d="M997.2,310c-0.5,0-0.9,0-1.3-0.1c-0.4-0.1-0.7-0.3-0.9-0.5s-0.5-0.5-0.7-0.8
			c-0.2-0.3-0.3-0.7-0.4-1c-0.1-0.4-0.2-0.7-0.2-1.1c0-0.4,0-0.8,0-1.2c0-0.3,0.1-0.7,0.1-1.1s0.2-0.8,0.4-1.2
			c0.2-0.4,0.4-0.8,0.6-1.2c0.2-0.4,0.5-0.7,0.9-1s0.7-0.5,1.1-0.7c0.4-0.2,0.9-0.2,1.5-0.2c0.6,0,1.1,0.2,1.6,0.5
			c0.5,0.3,0.9,0.7,1.2,1.1l-0.1-1.6l1.4,0.1l-0.2,9.7l-1.2,0l0-3.8c0,0.2-0.1,0.4-0.2,0.7c-0.1,0.3-0.2,0.6-0.4,0.8
			c-0.1,0.3-0.3,0.6-0.5,0.9s-0.4,0.5-0.7,0.8c-0.3,0.2-0.6,0.4-0.9,0.6C997.9,309.9,997.6,310,997.2,310z M997.1,309.1
			c0.2,0,0.5-0.1,0.7-0.2s0.5-0.3,0.7-0.5s0.4-0.5,0.6-0.7c0.2-0.3,0.4-0.6,0.5-0.9s0.3-0.6,0.4-0.9c0.1-0.3,0.2-0.6,0.2-0.9
			c0.1-0.7,0.1-1.4,0-1.9c-0.1-0.5-0.2-0.9-0.4-1.3c-0.2-0.3-0.4-0.6-0.7-0.7c-0.3-0.2-0.6-0.2-1-0.3c-0.5,0-1,0.1-1.4,0.3
			s-0.8,0.5-1,0.9c-0.3,0.4-0.5,0.9-0.7,1.4c-0.2,0.6-0.3,1.2-0.3,1.8c0,0.7,0,1.3,0.1,1.8c0.1,0.5,0.3,0.9,0.5,1.2
			c0.2,0.3,0.5,0.5,0.8,0.7C996.5,309.1,996.8,309.1,997.1,309.1z"/>
	</g>
</g>
<g id="imanes" class="st2">
	<g id="XMLID_1_" class="st3">
		<path class="st4" d="M423.5,220.7c272.3-0.3,544.6-0.7,816.9-1c10,0,20.5,0.1,29.2,3.8c8.3,3.6,13.7,10,18.1,16.4
			c22.9,33.2,15.2,472.7-3.7,483.2c-14.7,8.2-34.3,8.4-52.5,8.3c-358.3-2.3-694.4-4.6-1052.8-7c-18.2-0.1-25.8-1-37.9-11.3
			c-10.7-9.2-14.8-359.9-9.3-520.3c0.3-7.7,18.9-28.7,26-31c53.7-17.1,228.7-10.8,232.5,11.6C396.9,213.1,394.1,220.7,423.5,220.7z"
			/>
	</g>
</g>
<g id="ceramica">
	<g id="XMLID_11_">
		<path class="st4" d="M690,213c272.3-0.3,279.2,5.9,551.5,5.6c10,0,20.5,0.1,29.2,3.8c8.3,3.6,13.7,10,18.1,16.4
			c22.9,33.2,15.2,472.7-3.7,483.2c-14.7,8.2-34.3,8.4-52.5,8.3c-358.3-2.3-694.4-4.6-1052.8-7c-18.2-0.1-25.8-1-37.9-11.3
			c-10.7-9.2-17.6-320.5-12.1-481c0.2-5.8,133.6,4.9,210-3c25.7-2.7,41.6-50.5,56-59c51.9-30.4,220.9-6,225.2,16.3
			C629,225.5,660.6,213,690,213z"/>
	</g>
</g>
<g id="bisuteria">
	<g id="XMLID_27_">
		<path class="st4" d="M902.7,224.4c272.3-0.3,65.4-4.4,337.7-4.8c10,0,20.5,0.1,29.2,3.8c8.3,3.6,13.7,10,18.1,16.4
			c22.9,33.2,15.2,472.7-3.7,483.2c-14.7,8.2-34.3,8.4-52.5,8.3c-358.3-2.3-694.4-4.6-1052.8-7c-18.2-0.1-25.8-1-37.9-11.3
			c-10.7-9.2-16.5-321.7-11-482.1c0.2-5.8,390.6,1.4,467-6.5c25.7-2.7,8.5-41.2,33.1-51c54.1-21.7,204.2-29.3,225.2,14.1
			C873.1,224.4,873.4,224.5,902.7,224.4z"/>
	</g>
</g>
<g id="hogar" class="st2">
	<g id="XMLID_2_" class="st3">
		<path class="st4" d="M1164.4,221.2c4.4,0,59.6-4.3,77.2-4.8c10-0.2,20.5,0.1,29.2,3.8c8.3,3.6,13.7,10,18.1,16.4
			c22.9,33.2,15.2,472.7-3.7,483.2c-14.7,8.2-34.3,8.4-52.5,8.3c-358.3-2.3-694.4-4.6-1052.8-7c-18.2-0.1-25.8-1-37.9-11.3
			c-10.7-9.2-16.5-321.7-11-482.1c0.2-5.8,661.3,1.1,688.9-5.4c38.7-9.1,23.7-19.5,36.4-38c25.4-36.9,226.2-25.5,250.6,3.3
			C1118,200.5,1135,221.2,1164.4,221.2z"/>
	</g>
</g>
<g id="category1">
	<g id="XMLID_2382_">
		<path class="st5" d="M330.9,246.7c9,7.7,217.1,9,232.8,9c141.2,0.1,117.2,0.3,258.4,0.4c69.7,0.1,139.3,0.1,209,0.2
			c37.4,0,74.8,1.5,112.3,1.4c27.5-0.1,108.3-5.2,131.4,11c21.8,15.2,9.7,157,10.7,190c1.2,41-3.5,88-8.6,128.9
			c-4.2,33.3-2.1,125-15.8,126.6c-24.6,2.8-72.5,5.5-98.1,5.9c-321.3,4.9-655.3-9.8-976.7-9.8c-14.2,0.3-31-0.4-38.9-9.4
			c-4.4-5-4.7-11.3-4.8-17.3c-1.7-83.4,6.1-166.6,1.5-250.1c-5.1-92.9,0-147.8,3.8-161.6c9-32.3,23.4-61.9,42.1-65.9
			c45.1-9.6,131.4-11.9,133.7,12.2C324.3,223.6,327.4,243.6,330.9,246.7z"/>
	</g>
</g>
<g id="category2" class="st2">
	<g id="XMLID_37_" class="st3">
		<path class="st5" d="M493,250.7c49.9,0,53.6,0.8,69.2,0.8c140.7,0.1,116.8,0.3,257.5,0.4c69.4,0.1,138.8,0.1,208.2,0.2
			c37.3,0,74.5,1.5,111.8,1.4c27.4-0.1,107.9-5.3,130.9,11.1c21.7,15.4,9.7,158.5,10.7,191.8c1.2,41.4-3.4,88.8-8.6,130.1
			c-4.2,33.7-2.1,126.2-15.7,127.7c-24.5,2.8-72.2,5.6-97.7,6c-320.1,4.9-652.8-9.9-973-9.9c-14.2,0.3-30.9-0.4-38.7-9.4
			c-4.4-5-4.7-11.4-4.8-17.5c-1.7-84.2,6.1-168.1,1.5-252.4c-5.1-93.7-0.1-148.6,3.7-162.6c7-25.5,83.2-22.2,147.6-22.2
			c17.6,0,11.1-36.3,34.4-41.2c45.5-9.5,120.3-6.5,136.5,8.2C474.1,220.1,474.4,250.7,493,250.7z"/>
	</g>
</g>
<g id="category3" class="st2">
	<g id="XMLID_4_" class="st3">
		<path class="st5" d="M626.4,253.7c7.6,1.5,47.4,0,65.1,0c60.7,0,112.5-1.2,130.7-0.5c69,2.6,138,0.1,207,0.2
			c37.1,0,74.1,1.5,111.2,1.4c27.3-0.1,107.3-5.3,130.2,11c21.6,15.4,9.6,158.3,10.6,191.6c1.2,41.4-3.4,88.8-8.5,130
			c-4.2,33.6-2.1,126.1-15.7,127.7c-24.4,2.8-71.8,5.6-97.2,6c-318.3,4.9-649.2-9.9-967.6-9.9c-14.1,0.3-30.7-0.4-38.5-9.4
			c-4.4-5-4.7-11.4-4.8-17.5c-1.7-84.1,6-168,1.5-252.2c-5.1-93.7-0.1-148.5,3.7-162.5c7-25.5,230.3-7.9,293.5-15.8
			c17.4-2.2,11-43.7,34.2-48.5c45.3-9.5,122.4-12.2,124.7,12.1C607.1,222.8,614.3,251.3,626.4,253.7z"/>
	</g>
</g>
<g id="category4" class="st2">
	<g id="XMLID_42_" class="st3">
		<path class="st5" d="M762,253c7.6,1.5,6.2,0,24,0c61,0,23.8-0.8,42-0.1c69.4,2.6,130.4,0.1,199.8,0.2c37.3,0,74.5,1.5,111.8,1.4
			c27.4-0.1,107.9-5.3,130.9,11c21.7,15.3,9.7,158.1,10.7,191.4c1.2,41.3-3.4,88.6-8.6,129.8c-4.2,33.6-2.1,125.9-15.7,127.5
			c-24.5,2.8-72.2,5.6-97.7,5.9c-320.1,4.9-652.8-9.9-973-9.9c-14.2,0.3-30.9-0.4-38.7-9.4c-4.4-5-4.7-11.4-4.8-17.5
			c-1.7-84,6.1-167.8,1.5-251.9c-5.1-93.5-0.1-148.3,3.7-162.3c7-25.5,375.8-13,439.4-20.9c17.5-2.2,5.5-38,27.7-43.4
			c28.8-7,123.7-9.1,126,15.2C741.5,225.5,749.8,250.6,762,253z"/>
	</g>
</g>
<g id="category5" class="st2">
	<g id="XMLID_43_" class="st3">
		<path class="st5" d="M877,248c7.7,0.9,12.2,1,30,1c61,0,22.8-0.7,41,0c69.4,2.7,10.4,0.4,79.8,0.5c37.3,0,74.5,1.5,111.8,1.4
			c27.4-0.1,107.9-5.3,130.9,11.1c21.7,15.5,9.7,159.3,10.7,192.8c1.2,41.7-3.4,89.3-8.6,130.8c-4.2,33.8-2.1,126.9-15.7,128.4
			c-24.5,2.8-72.2,5.6-97.7,6c-320.1,4.9-652.8-10-973-10c-14.2,0.3-30.9-0.4-38.7-9.5c-4.4-5.1-4.7-11.5-4.8-17.6
			c-1.7-84.6,6.1-169,1.5-253.8c-5.1-94.3-0.1-149.4,3.7-163.5c7-25.7,472-20.3,540.3-19.9C732,246,715,214.4,733,208
			c17-6,107.2-1.3,122,16C862.6,232.9,867,246.8,877,248z"/>
	</g>
</g>
<g id="category5_1_" class="st2">
	<g id="XMLID_48_" class="st3">
		<path class="st5" d="M1006,246c12,0,4.2,0,22,0c61,0,15.7,0.2,34,0c51.9-0.4,38.7,0,82,0c30,0,20.7,0.1,58,0
			c27.4-0.1,51-0.5,74,16c21.7,15.5,8,160.4,9,194c1.2,41.8-2.9,89.4-8,131c-4.2,33.9-4.3,125.4-18,127c-24.5,2.8-74.3,6.6-99.8,7
			c-320.1,4.9-652.8-10-973-10c-14.2,0.3-30.9-0.4-38.7-9.5c-4.4-5.1-4.7-11.5-4.8-17.6c-1.7-84.9,6.1-169.5,1.5-254.5
			c-5.1-94.5-0.1-149.9,3.7-163.9C154.9,239.7,762,252,819,246c13.1-1.4,23.2-25.6,35-31c22-10,121-1,129,5
			C991.7,226.5,993.6,246,1006,246z"/>
	</g>
</g>
<g id="category6" class="st2">
	<g id="XMLID_14_" class="st3">
		<path class="st5" d="M1006,246c12,0,4.2,0,22,0c61,0,15.7,0.2,34,0c51.9-0.4,38.7,0,82,0c30,0,20.7,0.1,58,0
			c27.4-0.1,51-0.5,74,16c21.7,15.5,8,160.4,9,194c1.2,41.8-2.9,89.4-8,131c-4.2,33.9-4.3,125.4-18,127c-24.5,2.8-74.3,6.6-99.8,7
			c-320.1,4.9-652.8-10-973-10c-14.2,0.3-30.9-0.4-38.7-9.5c-4.4-5.1-4.7-11.5-4.8-17.6c-1.7-84.9,6.1-169.5,1.5-254.5
			c-5.1-94.5-0.1-149.9,3.7-163.9C154.9,239.7,762,252,819,246c13.1-1.4,23.2-25.6,35-31c22-10,121-1,129,5
			C991.7,226.5,993.6,246,1006,246z"/>
	</g>
</g>
<g id="category7" class="st2">
	<g id="XMLID_50_" class="st3">
		<path class="st5" d="M1132,253c20.1,0,0.2,0,18,0c61.3,0,0.7,0.2,19,0c52.1-0.4-20.5,0,23,0c30.1,0,2.5,0,40,0
			c10,0,20.4-3.6,43.5,12.6c21.8,15.3,9.7,157.4,10.7,190.4c1.2,41.1-3.5,88.2-8.6,129.2c-4.2,33.4-2.1,125.3-15.8,126.9
			c-24.6,2.8-72.5,5.5-98.1,5.9c-321.5,4.9-655.6-9.8-977.2-9.8c-14.3,0.3-31-0.4-38.9-9.4c-4.4-5-4.7-11.4-4.8-17.4
			c-1.7-83.6,6.1-167,1.5-250.7c-5.1-93.1-0.1-147.6,3.7-161.5c7-25.4,723.3-16.4,787.1-24.3c17.6-2.2,13.4-16.5,32-21
			c33-8,115.1-11.7,145,4C1127.6,236.2,1119.5,253,1132,253z"/>
	</g>
</g>
<g id="board">
	<path id="XMLID_3931_" class="st6" d="M795,713l-528.5-62.5c-19.9-2-40.2,0.7-57.4,7.7c-27.1,11.1-47.5,37.3-47.5,26.8V295
		c0-15.5,18.4-28,41-28H795c22.6,0,41,12.5,41,28v390C836,700.5,817.6,713,795,713z"/>
</g>
</svg>
