<?xml version="1.0" encoding="utf-8"?>
<!-- Generator: Adobe Illustrator 19.0.0, SVG Export Plug-In . SVG Version: 6.00 Build 0)  -->
<svg version="1.1" xmlns="http://www.w3.org/2000/svg" xmlns:xlink="http://www.w3.org/1999/xlink" x="0px" y="0px"
	 viewBox="0 0 1280 800" style="enable-background:new 0 0 1280 800;" xml:space="preserve">
<style type="text/css">
	.st0{opacity:0.6;fill:#FFFFFF;}
	.st1{opacity:0.59;fill:#1A1A1A;}
	.st2{fill:#D4145A;}
	.st3{fill:#FFFFFF;}
</style>
<g id="fondotransparente">
	<path id="XMLID_96_" class="st0" d="M1146,100.4c0,0-460.7,25.5-773.3-51.4S197.5,183.7,155.2,334.9S37.3,623.9,37.3,623.9
		s1225,185.7,1198.9,46.9C1210,532,1094.6,189.5,1146,100.4z"/>
</g>
<g id="mapa">
	<g id="XMLID_77_">
		<defs>
			<path id="XMLID_78_" d="M1131.7,125.2c0,0-424.5-4.4-574.3-23.7c-94.8-12.2-81.7,428.9-81.7,428.9s703.1,18.4,696.2-17.1
				C1135.2,323.5,1074.7,223.9,1131.7,125.2z"/>
		</defs>
		<clipPath id="XMLID_3_">
			<use xlink:href="#XMLID_78_"  style="overflow:visible;"/>
		</clipPath>
		<g style="clip-path:url(#XMLID_3_);">
			
				<image style="overflow:visible;" width="2560" height="1600" id="XMLID_79_" xlink:href="../../paisaje/front-endlio/front-end.jpg"  transform="matrix(0.4748 0 0 0.4748 -50.3541 93.5881)">
			</image>
		</g>
	</g>
</g>
<g id="cuadrito">
	<path id="XMLID_99_" class="st1" d="M733.2,540.4l-231.1-2.1c-6.6-0.1-12-5.5-11.9-12.1l0.5-55.9c0.1-6.6,5.5-12,12.1-11.9
		l231.1,2.1c6.6,0.1,12,5.5,11.9,12.1l-0.5,55.9C745.3,535.1,739.8,540.5,733.2,540.4z"/>
</g>
<g id="puntoubicacion">
	<g id="XMLID_100_">
		<path id="XMLID_102_" class="st2" d="M483.9,531.4l-13.6-23.7c0,0-21.6-8.4-25.7-20.1c-5.1-14.6-2.4-35,21.1-40.8
			c14.8-3.7,27.5-4.2,36.6,11.9c6.9,12.1,9.5,32.2-11.2,43.9L483.9,531.4z"/>
		
			<ellipse id="XMLID_101_" transform="matrix(0.9703 -0.2418 0.2418 0.9703 -100.9862 129.2027)" class="st3" cx="475.9" cy="476" rx="13.1" ry="12.4"/>
	</g>
</g>
</svg>
