<?xml version="1.0" encoding="utf-8"?>
<!-- Generator: Adobe Illustrator 19.0.0, SVG Export Plug-In . SVG Version: 6.00 Build 0)  -->
<svg version="1.1" xmlns="http://www.w3.org/2000/svg" xmlns:xlink="http://www.w3.org/1999/xlink" x="0px" y="0px"
	 viewBox="0 0 716.6 328.2" style="enable-background:new 0 0 716.6 328.2;" xml:space="preserve">
<style type="text/css">
	.st0{fill:#F90F28;}
	.st1{fill:#FFFFFF;}
</style>
<g id="caja">
	<rect id="XMLID_270_" x="0" y="0.5" class="st0" width="716.6" height="327.6"/>
</g>
<g id="texto">
	<g id="XMLID_40_">
		<path id="XMLID_45_" class="st1" d="M194.8,69.3c-2.9,7.2-4.4,13.9-4.4,20.1c0,6.2,1.3,10.8,3.8,13.7c2.5,2.9,6.6,4.4,12.3,4.4
			c3.4,0,6.4-1.2,8.9-3.6c0.8-6,1.5-10,2-12c1.2-4.8,3.2-7.3,5.7-7.3c2.1,0,4,1.4,5.8,4.2c1.8,2.8,2.7,5.2,2.6,7.2
			c0,3.3-1.3,9.4-4,18.4c5.1-3.9,11.1-9.7,17.7-17.3c1-1.1,1.8-1.7,2.4-1.7c1,0,1.5,1.2,1.5,3.6c0,4.7-2.4,9.7-7,15
			c-4.7,5.3-10.9,9.6-18.7,12.7c-0.6,1.4-1.1,2.7-1.4,4c-0.4,1.2-0.8,2.8-1.4,4.5c-0.6,1.8-1.6,3.7-3.1,5.8
			c-1.5,2.1-3.3,3.9-5.5,5.3c-4.7,3.2-10.1,4.8-16.1,4.8c-6.1,0-11.1-1.3-15.2-4c-4.1-2.7-6.1-6.4-6.1-11.1c0-2.3,1.1-4.1,3.3-5.6
			c2.2-1.5,5.1-2.7,8.6-3.8c3.5-1.1,7.5-2,11.9-2.8c4.4-0.8,8.8-1.7,13.2-2.8c0.6-1.7,1-3.3,1.3-4.7c-2.9,2.2-6.4,3.3-10.6,3.3
			c-8.7,0-15.6-1.8-20.6-5.4c-5.8-4.2-8.7-10.7-8.7-19.6c0-11.6,2.9-22.6,8.8-33c-1.8-2.1-3.2-4.2-4.3-6.4c-1.1-2.2-1.7-3.9-1.7-5.1
			c0-2.1,0.7-3,2.2-3c1,0,2.1,0.6,3.3,1.8c1.2,1.2,2.3,2.2,3,3c0.8,0.8,1.6,1.5,2.5,2.2c3.8-4.8,8.3-8.8,13.4-11.8
			c5.1-3,10.8-4.5,17-4.5c6.2,0,11,1.1,14.4,3.4c3.5,2.3,5.2,6.2,5.2,11.9c0,5.7-2.2,10.4-6.6,14.1c-4.4,3.7-10.4,5.6-18.2,5.6
			C206.9,72.9,201.1,71.7,194.8,69.3z M194.7,142.9c5,0,9.4-3.7,13.1-11.2c-4,1-7.5,1.8-10.2,2.4c-2.8,0.6-5,1.1-6.8,1.5
			c-1.7,0.4-3,0.9-3.7,1.3s-1.2,1.1-1.2,1.9c0,1.4,0.9,2.4,2.8,3C190.6,142.4,192.6,142.8,194.7,142.9z M198.5,61.8
			c4,1.8,8.9,2.6,14.7,2.6c3.5,0,6.4-1,8.5-2.9c2.1-1.9,3.2-4,3.2-6.2c0-2.2-0.7-3.9-2.1-5c-1.4-1.1-3.3-1.6-5.7-1.6
			C209.9,48.8,203.8,53.1,198.5,61.8z"/>
		<path id="XMLID_68_" class="st1" d="M259.9,102.6l0.7,13.4c0,1.8-0.9,3.3-2.8,4.7c-1.8,1.4-4.3,2.1-7.5,2.1c-1.8,0-3.1-1-3.8-2.9
			c-0.7-1.9-1-4.7-1-8.4c0-7.7,0.4-13.8,1.2-18.1c0.8-4.4,2.3-8.8,4.6-13.3c-3.4-3.2-5.1-6-5.1-8.4c0-4.9,2.6-7.4,7.9-7.4
			c2.7,0,5.1,1.4,7.2,4.3c1.5,2,2.5,4.3,3.2,6.9c1,0.4,2.3,0.6,3.9,0.6c2.1,0,4.6-0.7,7.4-2.1l2.9-1.4c0.9-0.4,1.7-0.7,2.3-0.7
			c2.1,0,4.3,3.1,6.4,9.4c-0.7,2.9-1.4,5.6-2.1,8.3s-1.7,5.8-2.7,9.6c-1,3.7-1.6,6.3-1.6,7.5c0,1.3,0.3,1.9,1.2,1.9
			c1.1,0,2.5-0.7,4.1-2.1c1.6-1.4,3.2-2.9,4.8-4.6c1.6-1.7,3.1-3.2,4.5-4.6c1.4-1.4,2.3-2.1,2.8-2.1c1,0,1.5,1.2,1.5,3.7
			c0,5.1-2.2,10.1-6.7,15c-4.4,4.9-9.5,7.3-15.3,7.3c-3.4,0-5.9-1.4-7.6-4.1c-1.7-2.7-2.6-6-2.6-9.9c0-7.7,1.7-15,5.2-21.9
			c-1.6,0.7-3.4,1-5.5,1c-2,0-3.5-0.1-4.4-0.2c-0.7,2.8-1.3,5.6-2,8.4C260.3,97.6,259.9,100.2,259.9,102.6z"/>
		<path id="XMLID_78_" class="st1" d="M361.8,95.2c1.3,0,2,1.7,2,5.1c0,1.8-0.8,4.1-2.3,6.7c-1.5,2.6-3.5,5-6,7.2
			c-2.5,2.2-5.2,3.9-8.2,5.3c-3,1.4-5.9,2.1-8.8,2.1c-3.9,0-6.5-3.4-7.8-10.2c-1.9,3.2-4.4,5.7-7.5,7.8c-3.1,2-7.2,3-12.4,3
			c-5.2,0-9.3-1.6-12.5-4.8c-3.2-3.2-4.7-7.2-4.6-11.8c0-12.5,4.1-22.3,12.4-29.5c3.5-3,6.8-5,9.9-5.9c3-1,6.3-1.4,9.6-1.4
			c3.4,0,6.1,0.6,8.3,1.8c1-2.1,2.2-3.2,3.5-3.2c2.6,0,5,1.1,7.3,3.4c2.3,2.2,3.5,4.4,3.5,6.3c-1,2.4-2.5,5.3-4.5,8.7
			c-0.6,3.4-0.9,8.1-0.9,14.2c0,6.1,0.8,9.1,2.3,9.1c1.9,0,6.5-3.8,13.9-11.5C360.3,95.9,361.2,95.2,361.8,95.2z M309.8,101.8
			c0,5.7,2.1,8.5,6.3,8.5c4.5-0.1,8.2-2.5,11.1-7.2c1-1.6,1.9-3.6,2.5-5.9c0-8.2,0.7-15.3,2.2-21.1c-5.9,1.2-11.1,4-15.5,8.6
			C312,89.1,309.8,94.9,309.8,101.8z"/>
		<path id="XMLID_81_" class="st1" d="M402,95.2c1.3,0,2,1.1,2,3.4c0,2.2-0.6,4.6-1.7,7.2c-1.1,2.6-2.9,5-5.2,7.4
			c-2.3,2.4-5.3,4.4-8.9,6.1c-3.6,1.7-7.8,2.5-12.7,2.5c-4.9,0-9.2-1.4-12.8-4.4c-3.7-2.9-5.5-7.1-5.5-12.6c0-5.5,0.9-10.4,2.6-14.9
			c1.7-4.4,4-8.3,6.8-11.5c2.8-3.2,6-5.7,9.6-7.5c3.6-1.8,7-2.7,10.2-2.7c5.7,0,8.5,2.2,8.5,6.7c0,2.6-0.5,4.6-1.6,6.2
			c-1.1,1.5-2.1,2.3-3.2,2.3c-1.5,0-2.8-0.5-3.9-1.5c-1.1-1-2.3-1.6-3.6-1.6c-1.3,0-2.6,0.6-3.8,1.9c-1.2,1.3-2.2,3-3,5.1
			c-1.6,4.1-2.4,8.9-2.4,14.4c0.1,2.6,1.3,4.6,3.6,5.9c1.6,0.9,3.5,1.3,5.7,1.4c2.2,0,4.3-0.7,6.3-2.1c2-1.5,3.9-3.1,5.6-4.8
			c1.7-1.7,3.2-3.3,4.5-4.8C400.4,95.9,401.4,95.2,402,95.2z"/>
		<path id="XMLID_83_" class="st1" d="M411.7,121.5c-7.3,0-11-6.9-11-20.6c0-7.5,0.9-14.3,2.8-20.4c2.9-9.4,6.1-14.1,9.7-14.1
			c2.1,0,3.8,1.4,5.1,4.3c1,2.2,1.5,4.4,1.4,6.5c0,2.9-0.9,8.1-2.6,15.5c-1.7,6.5-2.5,10.5-2.5,12c0,1.5,0.4,2.6,1.2,3.2
			c0.8,0.6,1.7,0.9,2.8,0.9c1.1,0,2.4-0.7,4-2.1c1.6-1.4,3.2-2.9,4.8-4.6c1.6-1.7,3.1-3.2,4.5-4.6c1.4-1.4,2.3-2.1,2.8-2.1
			c1,0,1.5,1.2,1.5,3.7c0,5.1-2.6,10.2-7.8,15C423.1,119.2,417.6,121.6,411.7,121.5z M416.2,57.5c-2-2.9-3-6.1-3-9.5
			c0-3.4,0.5-6.2,1.6-8.4c1.1-2.2,2.1-3.9,3-5c1-1.1,2.1-1.6,3.3-1.6c2.1,0,3.9,1.5,5.6,4.6c1.7,3,2.5,5.6,2.5,7.7
			c0,3.8-1.3,6.8-4,9C422.6,56.4,419.6,57.5,416.2,57.5z"/>
		<path id="XMLID_86_" class="st1" d="M498.2,95.2c1.3,0,2,1.7,2,5.1c0,1.8-0.8,4.1-2.3,6.7c-1.5,2.6-3.5,5-6,7.2
			c-2.5,2.2-5.2,3.9-8.2,5.3c-3,1.4-5.9,2.1-8.8,2.1c-3.9,0-6.5-3.4-7.8-10.2c-1.9,3.2-4.4,5.7-7.5,7.8c-3.1,2-7.2,3-12.4,3
			c-5.2,0-9.3-1.6-12.5-4.8c-3.2-3.2-4.7-7.2-4.6-11.8c0-12.5,4.1-22.3,12.4-29.5c3.5-3,6.8-5,9.9-5.9c3-1,6.3-1.4,9.6-1.4
			c3.4,0,6.1,0.6,8.3,1.8c1-2.1,2.2-3.2,3.5-3.2c2.6,0,5,1.1,7.3,3.4c2.3,2.2,3.5,4.4,3.5,6.3c-1,2.4-2.5,5.3-4.5,8.7
			c-0.6,3.4-0.9,8.1-0.9,14.2c0,6.1,0.8,9.1,2.3,9.1c1.9,0,6.5-3.8,13.9-11.5C496.7,95.9,497.6,95.2,498.2,95.2z M446.2,101.8
			c0,5.7,2.1,8.5,6.3,8.5c4.5-0.1,8.2-2.5,11.1-7.2c1-1.6,1.9-3.6,2.5-5.9c0-8.2,0.7-15.3,2.2-21.1c-5.9,1.2-11.1,4-15.5,8.6
			C448.4,89.1,446.2,94.9,446.2,101.8z"/>
		<path id="XMLID_89_" class="st1" d="M519.8,67.8c4.9,0,8.6,0.9,11,2.8c2.4,1.9,3.6,4.6,3.6,8c0,3.5-1,6.5-3.1,8.9
			c-2.1,2.5-4.6,4.2-7.7,5.2c2.1,2.2,4.1,4.4,5.8,6.7c1.7,2.3,2.6,4.7,2.6,7.2c0,4.9-1.9,8.7-5.8,11.4c-3.9,2.7-9.3,4-16.2,4
			s-12.1-1.4-15.6-4.1c-3.5-2.8-5.2-5.9-5.2-9.4c0-3.5,0.9-6.7,2.6-9.5c1.7-2.9,3.6-4.3,5.6-4.3c1.2,0,2,0.4,2.5,1.3
			c0.5,0.8,1.5,3.3,2.9,7.3c0.5,1.5,1.4,2.9,2.5,4.2c2.7,3,7,4.5,12.9,4.5c-0.9-2.8-2.3-5.2-4.2-7.2c-1.9-2-3.9-4-5.8-5.9
			c-1.9-1.9-3.6-3.9-5.1-6.1c-1.5-2.2-2.2-4.7-2.2-7.7c0-5.3,2-9.6,5.9-12.9C510.5,69.3,514.9,67.8,519.8,67.8z M519.3,88.2
			c2.9-3.2,4.4-5.7,4.4-7.6c0-0.9-0.3-1.7-0.9-2.4c-0.6-0.7-1.5-1-2.7-1c-1.2,0-2.3,0.1-3.4,0.4c-1.1,0.3-1.9,0.5-2.6,0.7
			C514.2,81.1,515.9,84.4,519.3,88.2z"/>
		<path id="XMLID_92_" class="st1" d="M181.8,182l0.1,0.3c0,0.7-0.2,1-0.5,1l-11.3-0.1l2.1,15.7c0,0.7-0.2,1-0.5,1l-8.9-0.2
			l0.2-11.5c0-1.7,0-3.4,0-5.1h-1.1l0.2-11.5c0-1.3,0-2.7,0-4c0-7.4-0.3-14.7-0.8-21.7l0.8-0.1l-0.1-0.3c0-0.7,0.2-1,0.5-1l19.6,0.2
			l-0.2,11.5c0,1.6,0,3.1,0,4.7c0,7.2,0.2,14.2,0.7,21L181.8,182z M176.7,176.7l-2.6-25.9l-7.2,0.2l2.7,25.9L176.7,176.7z"/>
		<path id="XMLID_95_" class="st1" d="M189.8,145.7l-0.1-0.3c0-0.7,0.2-1,0.5-1l19.6,0.2l-0.2,11.5c0,2,0,3.9,0,5.7
			c0,8.7,0.2,16.4,0.7,23.2l-0.7,0.1l0.1,0.3c0,0.7-0.2,1-0.5,1l-19.6-0.2l0.2-11.5c0-1.7,0-3.3,0-4.9c0-9-0.3-17-0.8-24
			L189.8,145.7z M204.6,179.9l-2.6-29.1l-7.2,0.2l2.7,29.1L204.6,179.9z"/>
		<path id="XMLID_98_" class="st1" d="M224.8,183.2l-1.8,0l2.1,15.7c0,0.7-0.2,1-0.5,1l-8.9-0.2l0.2-11.5c0-1.7,0-3.4,0-5.1h-1.1
			l0.2-11.5c0-1.4,0-2.9,0-4.4c0-7.5-0.2-15.1-0.7-22.9l20.8,0.2l-0.2,11.5c0,1.6,0,3.1,0,4.7c0,7.2,0.2,14.2,0.7,21l-0.7,0.1
			l0.1,0.3c0,0.7-0.2,1-0.5,1l-3.1,0l7.9,14.9l-6.9,2.6l-1.8-5.3L224.8,183.2z M229.7,176.7l-2.6-25.9l-7.2,0.2l2.7,25.9
			L229.7,176.7z"/>
		<path id="XMLID_101_" class="st1" d="M261.6,181.7l12.7-0.2h0.1c0.4,0,0.6,0.2,0.8,0.7l1.2,6.1c0,0.6-0.2,0.9-0.4,0.9l-20.9-0.2
			l0.2-10.6l-0.9-31.8l17.3-1.4c0.2,0,0.4,0.3,0.4,0.9l-0.6,5.9c-0.1,0.5-0.3,0.8-0.6,0.8h0l-11,0.4L261.6,181.7z"/>
		<path id="XMLID_103_" class="st1" d="M279.7,145.7l-0.1-0.3c0-0.7,0.2-1,0.5-1l19.6,0.2l-0.2,11.5c0,2,0,3.9,0,5.7
			c0,8.7,0.2,16.4,0.7,23.2l-0.7,0.1l0.1,0.3c0,0.7-0.2,1-0.5,1l-19.6-0.2l0.2-11.5c0-1.7,0-3.3,0-4.9c0-9-0.3-17-0.8-24
			L279.7,145.7z M294.4,179.9l-2.6-29.1l-7.2,0.2l2.7,29.1L294.4,179.9z"/>
		<path id="XMLID_106_" class="st1" d="M328.8,161.6l-0.7-3.5l-3.6,17.8l-6.7,0.3l-5.5-17.3l-0.9,2l0.6,24.9l-8,0l4.2-39.5l6.5-2.4
			l6.2,23.2l4.3-22l6.3-1.3l4.2,42.3l-7,0.3L328.8,161.6z"/>
		<path id="XMLID_108_" class="st1" d="M354.9,182.2l0.3-35.6l7.8-0.3L362,189l-10.6-0.6l-12.1-0.6l-0.6-39.3l7.6,1.2l-0.1,32.9
			L354.9,182.2z"/>
		<path id="XMLID_110_" class="st1" d="M374.3,160.1l2.4,26.7l-8.9-0.2l0.2-10.8l-0.1-32.3l5.4-1.4l11.2,25l-0.6-24.1l5.4-1.4
			l2.7,44.6l-5.2-0.2l-5.4-10.4L374.3,160.1z"/>
		<path id="XMLID_112_" class="st1" d="M397.7,183.9l0.5-6.5l3.4-0.3l-0.3-25l-3.9-0.1l-0.3-5.8l14.8-0.6l-0.1,5.9l-4,0.4l0.3,25.1
			l5.1-0.1l0.2,7L397.7,183.9z"/>
		<path id="XMLID_114_" class="st1" d="M424,181.7l12.7-0.2h0.1c0.4,0,0.6,0.2,0.8,0.7l1.2,6.1c0,0.6-0.2,0.9-0.4,0.9l-20.9-0.2
			l0.2-10.6l-0.9-31.8l17.3-1.4c0.2,0,0.4,0.3,0.4,0.9l-0.6,5.9c-0.1,0.5-0.3,0.8-0.6,0.8h0l-11,0.4L424,181.7z"/>
		<path id="XMLID_116_" class="st1" d="M456.9,178.7l-7.4,0l2.1,15.7c0,0.7-0.2,1-0.5,1l-8.2-0.2l0.2-11.5v-0.1
			c0-1.9-0.3-7.4-0.9-16.5c0-1,0-2,0-3c0-5.4-0.2-12-0.7-19.7l21.5,0.2l-0.2,11.5c0,0.7,0,1.5,0,2.2c0,8.8,0.7,21.6,2.1,38.2
			l-7.4-0.1l0.2-5.5L456.9,178.7z M457.6,172.2l-2.6-21.4l-7.9,0.2l2,21.4L457.6,172.2z"/>
		<path id="XMLID_119_" class="st1" d="M479.6,183.2l-1.8,0l2.1,15.7c0,0.7-0.2,1-0.5,1l-8.9-0.2l0.2-11.5c0-1.7,0-3.4,0-5.1h-1.1
			l0.2-11.5c0-1.4,0-2.9,0-4.4c0-7.5-0.2-15.1-0.7-22.9l20.8,0.2l-0.2,11.5c0,1.6,0,3.1,0,4.7c0,7.2,0.2,14.2,0.7,21l-0.7,0.1
			l0.1,0.3c0,0.7-0.2,1-0.5,1l-3.1,0l7.9,14.9l-6.9,2.6l-1.8-5.3L479.6,183.2z M484.5,176.7l-2.6-25.9l-7.2,0.2l2.7,25.9
			L484.5,176.7z"/>
		<path id="XMLID_122_" class="st1" d="M505,182.5l-1.3-30.4h-5l-0.8-6.7l18.9,0.4l-0.6,6l-4.5,0.1l-0.4,31.9L505,182.5z"/>
		<path id="XMLID_124_" class="st1" d="M520.7,189l0.2-11.5l-0.9-34.7l16.3-1.5c0.2,0,0.4,0.3,0.4,1l-0.6,5
			c-0.1,0.6-0.3,0.8-0.6,0.8h0l-10,0.4l0.5,6.2l9.6-0.2c0.1,0,0.2,0.3,0.2,0.8l-0.4,6.8c0,0.5-0.1,0.7-0.3,0.7h0l-1.8,0.1l-5.4,0.2
			h-1.5l1.4,19.1l11.2-0.3c0.2,0,0.4,0.3,0.4,1l-0.6,5c-0.1,0.6-0.3,0.8-0.6,0.8h0L520.7,189z"/>
		<path id="XMLID_126_" class="st1" d="M195.4,232.2c0.8,0,1.2,0.7,1.2,2c0,1.3-0.3,2.8-1,4.3c-0.7,1.5-1.7,3-3.1,4.4
			c-1.4,1.4-3.1,2.6-5.3,3.6c-2.1,1-4.7,1.5-7.6,1.5c-2.9,0-5.5-0.9-7.7-2.6c-2.2-1.7-3.3-4.2-3.3-7.5c0-3.3,0.5-6.2,1.5-8.9
			c1-2.7,2.4-4.9,4.1-6.9c1.7-1.9,3.6-3.4,5.8-4.5c2.1-1.1,4.2-1.6,6.1-1.6c3.4,0,5.1,1.3,5.1,4c0,1.5-0.3,2.8-1,3.7
			c-0.6,0.9-1.3,1.4-1.9,1.4c-0.9,0-1.6-0.3-2.3-0.9c-0.7-0.6-1.4-0.9-2.2-1c-0.8,0-1.5,0.4-2.3,1.2c-0.7,0.8-1.3,1.8-1.8,3
			c-1,2.5-1.4,5.3-1.4,8.6c0,1.6,0.8,2.8,2.2,3.6c1,0.5,2.1,0.8,3.4,0.8c1.3,0,2.6-0.4,3.8-1.3c1.2-0.9,2.3-1.8,3.3-2.9
			c1-1,1.9-2,2.7-2.9C194.4,232.7,195,232.2,195.4,232.2z"/>
		<path id="XMLID_129_" class="st1" d="M219.9,242.2c-3.5,4.1-7.6,6.1-12.5,6.1c-4.8,0-8.5-1.2-10.9-3.7c-2.4-2.5-3.6-5.6-3.6-9.2
			c0-5.2,1.6-9.7,4.9-13.5c3.3-3.8,7.7-5.7,13.1-5.7c2.5,0,4.4,0.3,5.9,0.9c2.6,1.1,3.9,2,3.9,3c0,0.7-1.8,1.1-5.4,1.1
			c-3.6,0-6.6,1.3-9.1,3.7c-2.4,2.5-3.6,5.6-3.6,9.4c0,2,0.6,3.6,1.7,5c1.2,1.3,2.8,2,4.9,2c2.1,0,3.9-0.4,5.3-1.3
			c-3.1-2.1-4.7-5.2-4.7-9.1c0-2.1,0.7-4,2.3-5.8c1.6-1.7,3.6-2.6,6-2.6c2.4,0,4.2,0.6,5.2,2c1.1,1.4,1.6,3.1,1.6,5.2
			c0,2.1-0.5,4.4-1.5,6.7h0.4c1.9,0,3.6-0.7,5-2c0.5-0.5,1-1,1.3-1.4c0.4-0.4,0.8-0.6,1.2-0.6c0.6,0,0.9,0.7,0.9,2.2
			c0,2.7-0.8,4.7-2.4,6c-1.6,1.3-3.3,2-5.2,2C222.8,242.6,221.2,242.4,219.9,242.2z M219.3,234.5c0.7-1.6,1.1-3.1,1.1-4.6
			c0-1.5-0.5-2.2-1.4-2.2c-0.4,0-0.7,0.3-1,0.9c-0.3,0.6-0.4,1.1-0.4,1.6C217.6,231.9,218.1,233.4,219.3,234.5z"/>
		<path id="XMLID_133_" class="st1" d="M237.8,214.9c1.6,0,3.1,1.5,4.5,4.5c2.1-2.1,4.6-3.2,7.7-3.2c3,0,5.3,0.7,6.9,2
			c1.5,1.3,2.3,3.2,2.3,5.7c0,2.4-0.3,4.9-1,7.4c-0.6,2.5-1.1,4.3-1.4,5.4c-0.3,1.1-0.4,2-0.4,2.7c0,0.7,0.2,1.1,0.7,1.1
			c0.7,0,1.5-0.4,2.4-1.2c1-0.8,1.9-1.7,2.9-2.7c1-1,1.9-1.9,2.7-2.7c0.8-0.8,1.4-1.2,1.7-1.2c0.6,0,0.9,0.7,0.9,2.2
			c0,3.1-1.5,6-4.5,8.9c-5.1,3-8.3,4.5-9.7,4.5c-0.1,0-0.2,0-0.3-0.1c-3.5,0-5.3-2.8-5.3-8.4c0-2.4,0.2-4.6,0.7-6.6s0.8-3.5,1-4.4
			c0.2-0.9,0.3-1.9,0.3-2.8c0-1.6-0.9-2.4-2.7-2.4c-1.8,0-3.6,1.3-5.2,4s-2.8,5.5-3.3,8.4v0.5c0,1.5,0.2,3,0.7,4.6
			c0.5,1.6,0.7,2.7,0.7,3.3c0,1.5-1.9,3-5.6,4.4c-0.6,0.2-1.1,0.3-1.5,0.3c-1.1,0-1.9-0.6-2.3-1.7c-0.4-1.1-0.6-2.9-0.6-5.3
			c0-6.2,0.2-10.7,0.7-13.5c0.7-4.1,2.1-8,4.5-11.5C236,215.5,236.8,214.9,237.8,214.9z"/>
		<path id="XMLID_139_" class="st1" d="M299.4,214.9c1.6,0,3.1,1.5,4.5,4.5c2.1-2.1,4.6-3.2,7.7-3.2c3,0,5.3,0.7,6.9,2
			c1.5,1.3,2.3,3.2,2.3,5.7c0,2.4-0.3,4.9-1,7.4c-0.6,2.5-1.1,4.3-1.4,5.4c-0.3,1.1-0.4,2-0.4,2.7c0,0.7,0.2,1.1,0.7,1.1
			c0.7,0,1.5-0.4,2.4-1.2c1-0.8,1.9-1.7,2.9-2.7c1-1,1.9-1.9,2.7-2.7c0.8-0.8,1.4-1.2,1.7-1.2c0.6,0,0.9,0.7,0.9,2.2
			c0,3.1-1.5,6-4.5,8.9c-5.1,3-8.3,4.5-9.7,4.5c-0.1,0-0.2,0-0.3-0.1c-3.5,0-5.3-2.8-5.3-8.4c0-2.4,0.2-4.6,0.7-6.6s0.8-3.5,1-4.4
			c0.2-0.9,0.3-1.9,0.3-2.8c0-1.6-0.9-2.4-2.7-2.4c-1.8,0-3.6,1.3-5.2,4s-2.8,5.5-3.3,8.4v0.5c0,1.5,0.2,3,0.7,4.6
			c0.5,1.6,0.7,2.7,0.7,3.3c0,1.5-1.9,3-5.6,4.4c-0.6,0.2-1.1,0.3-1.5,0.3c-1.1,0-1.9-0.6-2.3-1.7c-0.4-1.1-0.6-2.9-0.6-5.3
			c0-6.2,0.2-10.7,0.7-13.5c0.7-4.1,2.1-8,4.5-11.5C297.6,215.5,298.5,214.9,299.4,214.9z"/>
		<path id="XMLID_145_" class="st1" d="M352.5,242.2c-3.5,4.1-7.6,6.1-12.5,6.1c-4.8,0-8.5-1.2-10.9-3.7c-2.4-2.5-3.6-5.6-3.6-9.2
			c0-5.2,1.6-9.7,4.9-13.5c3.3-3.8,7.7-5.7,13.1-5.7c2.5,0,4.4,0.3,5.9,0.9c2.6,1.1,3.9,2,3.9,3c0,0.7-1.8,1.1-5.4,1.1
			c-3.6,0-6.6,1.3-9.1,3.7c-2.4,2.5-3.6,5.6-3.6,9.4c0,2,0.6,3.6,1.7,5c1.2,1.3,2.8,2,4.9,2c2.1,0,3.9-0.4,5.3-1.3
			c-3.1-2.1-4.7-5.2-4.7-9.1c0-2.1,0.7-4,2.3-5.8c1.6-1.7,3.6-2.6,6-2.6c2.4,0,4.2,0.6,5.2,2c1.1,1.4,1.6,3.1,1.6,5.2
			c0,2.1-0.5,4.4-1.5,6.7h0.4c1.9,0,3.6-0.7,5-2c0.5-0.5,1-1,1.3-1.4c0.4-0.4,0.8-0.6,1.2-0.6c0.6,0,0.9,0.7,0.9,2.2
			c0,2.7-0.8,4.7-2.4,6c-1.6,1.3-3.3,2-5.2,2C355.4,242.6,353.8,242.4,352.5,242.2z M351.9,234.5c0.7-1.6,1.1-3.1,1.1-4.6
			c0-1.5-0.5-2.2-1.4-2.2c-0.4,0-0.7,0.3-1,0.9c-0.3,0.6-0.4,1.1-0.4,1.6C350.2,231.9,350.8,233.4,351.9,234.5z"/>
		<path id="XMLID_148_" class="st1" d="M376.6,215.9c2.9,0,5.1,0.5,6.6,1.6s2.2,2.7,2.2,4.8c0,2.1-0.6,3.9-1.9,5.3
			c-1.2,1.5-2.8,2.5-4.6,3.1c1.3,1.3,2.4,2.7,3.5,4c1,1.4,1.5,2.8,1.5,4.3c0,2.9-1.2,5.2-3.5,6.8c-2.3,1.6-5.6,2.4-9.7,2.4
			s-7.2-0.8-9.3-2.5c-2.1-1.6-3.1-3.5-3.1-5.6c0-2.1,0.5-4,1.5-5.7c1-1.7,2.1-2.6,3.3-2.6c0.7,0,1.2,0.3,1.5,0.8
			c0.3,0.5,0.9,2,1.7,4.4c0.3,0.9,0.8,1.7,1.5,2.5c1.6,1.8,4.2,2.7,7.7,2.7c-0.5-1.7-1.4-3.1-2.5-4.3c-1.2-1.2-2.3-2.4-3.5-3.5
			c-1.1-1.1-2.1-2.4-3-3.7c-0.9-1.3-1.3-2.8-1.3-4.6c0-3.2,1.2-5.7,3.6-7.7C371.1,216.8,373.7,215.9,376.6,215.9z M376.4,228.1
			c1.8-1.9,2.6-3.4,2.6-4.5c0-0.5-0.2-1-0.6-1.4c-0.4-0.4-0.9-0.6-1.6-0.6c-0.7,0-1.4,0.1-2,0.3c-0.6,0.2-1.2,0.3-1.5,0.4
			C373.3,223.8,374.3,225.8,376.4,228.1z"/>
		<path id="XMLID_151_" class="st1" d="M414.6,242.2c-3.5,4.1-7.6,6.1-12.5,6.1c-4.8,0-8.5-1.2-10.9-3.7c-2.4-2.5-3.6-5.6-3.6-9.2
			c0-5.2,1.6-9.7,4.9-13.5c3.3-3.8,7.7-5.7,13.1-5.7c2.5,0,4.4,0.3,5.9,0.9c2.6,1.1,3.9,2,3.9,3c0,0.7-1.8,1.1-5.4,1.1
			c-3.6,0-6.6,1.3-9.1,3.7c-2.4,2.5-3.6,5.6-3.6,9.4c0,2,0.6,3.6,1.7,5c1.2,1.3,2.8,2,4.9,2c2.1,0,3.9-0.4,5.3-1.3
			c-3.1-2.1-4.7-5.2-4.7-9.1c0-2.1,0.7-4,2.3-5.8c1.6-1.7,3.6-2.6,6-2.6c2.4,0,4.2,0.6,5.2,2c1.1,1.4,1.6,3.1,1.6,5.2
			c0,2.1-0.5,4.4-1.5,6.7h0.4c1.9,0,3.6-0.7,5-2c0.5-0.5,1-1,1.3-1.4s0.8-0.6,1.2-0.6c0.6,0,0.9,0.7,0.9,2.2c0,2.7-0.8,4.7-2.4,6
			c-1.6,1.3-3.3,2-5.2,2S415.9,242.4,414.6,242.2z M414,234.5c0.7-1.6,1.1-3.1,1.1-4.6c0-1.5-0.5-2.2-1.4-2.2c-0.4,0-0.7,0.3-1,0.9
			c-0.3,0.6-0.4,1.1-0.4,1.6C412.3,231.9,412.9,233.4,414,234.5z"/>
		<path id="XMLID_154_" class="st1" d="M426.7,244.2c-0.5-1.2-0.9-2.5-1.1-4.1c-0.2-1.6-0.3-3.7-0.3-6.5c0-2.8,0.5-6.6,1.6-11.4h-3
			c-0.5,0-0.8-0.2-0.8-0.7c0-1.1,0.1-1.9,0.3-2.6c0.2-0.7,0.7-1.5,1.4-2.3h1.6c0.6,0,1.3,0,2-0.1c2.1-6.8,4.3-10.1,6.4-10.1
			c1.8,0,3,1.2,3.7,3.4c0.2,0.6,0.4,1.3,0.6,2l-2.7,4.7c3.1,0.1,5,0.1,5.8,0.1c0.8,0,1.2,0.1,1.3,0.2c0.1,0.2,0.1,0.4,0.1,0.7
			c0,0.8-0.2,1.8-0.6,3c-0.4,1.2-0.8,1.8-1.3,1.7l-6.6-0.3c-0.9,5.3-1.4,9.8-1.4,13.3c0,3.5,0.5,5.3,1.5,5.3c0.8,0,2.3-0.7,4.5-2.1
			c2.2-1.4,3.8-2.7,4.7-4c1-1.3,1.8-1.9,2.4-1.9c0.6,0,0.9,0.7,0.9,2.2c0,1.5-0.5,3-1.6,4.6c-1.1,1.6-2.4,3-4,4.3
			c-1.6,1.3-3.4,2.4-5.3,3.2c-2,0.8-3.6,1.2-5.1,1.2c-1.4,0-2.6-0.3-3.3-1C427.8,246.2,427.2,245.3,426.7,244.2z"/>
		<path id="XMLID_156_" class="st1" d="M454.2,236.7l0.4,8c0,1.1-0.5,2-1.6,2.8c-1.1,0.8-2.6,1.2-4.5,1.2c-1.1,0-1.9-0.6-2.3-1.7
			c-0.4-1.1-0.6-2.8-0.6-5c0-4.6,0.2-8.2,0.7-10.8c0.5-2.6,1.4-5.2,2.7-7.9c-2-1.9-3-3.6-3-5c0-2.9,1.6-4.4,4.7-4.4
			c1.6,0,3,0.9,4.3,2.6c0.9,1.2,1.5,2.6,1.9,4.1c0.6,0.2,1.4,0.3,2.3,0.3c1.3,0,2.7-0.4,4.4-1.2l1.7-0.9c0.5-0.3,1-0.4,1.4-0.4
			c1.3,0,2.5,1.9,3.8,5.6c-0.4,1.7-0.8,3.4-1.3,4.9c-0.5,1.6-1,3.5-1.6,5.7c-0.6,2.2-0.9,3.7-1,4.5c0,0.8,0.2,1.2,0.7,1.2
			c0.7,0,1.5-0.4,2.4-1.2c1-0.8,1.9-1.7,2.9-2.7c1-1,1.9-1.9,2.7-2.7s1.4-1.2,1.7-1.2c0.6,0,0.9,0.7,0.9,2.2c0,3-1.3,6-4,8.9
			c-2.7,2.9-5.7,4.4-9.1,4.3c-2,0-3.5-0.8-4.5-2.4c-1-1.6-1.5-3.6-1.6-5.9c0-4.6,1-9,3.1-13.1c-1,0.4-2,0.6-3.3,0.6s-2.1,0-2.6-0.1
			c-0.4,1.7-0.8,3.3-1.2,5S454.2,235.3,454.2,236.7z"/>
		<path id="XMLID_159_" class="st1" d="M501.2,242.2c-3.5,4.1-7.6,6.1-12.5,6.1c-4.8,0-8.5-1.2-10.9-3.7c-2.4-2.5-3.6-5.6-3.6-9.2
			c0-5.2,1.6-9.7,4.9-13.5c3.3-3.8,7.7-5.7,13.1-5.7c2.5,0,4.4,0.3,5.9,0.9c2.6,1.1,3.9,2,3.9,3c0,0.7-1.8,1.1-5.4,1.1
			c-3.6,0-6.6,1.3-9.1,3.7c-2.4,2.5-3.6,5.6-3.6,9.4c0,2,0.6,3.6,1.7,5c1.2,1.3,2.8,2,4.9,2c2.1,0,3.9-0.4,5.3-1.3
			c-3.1-2.1-4.7-5.2-4.7-9.1c0-2.1,0.7-4,2.3-5.8c1.6-1.7,3.6-2.6,6-2.6c2.4,0,4.2,0.6,5.2,2c1.1,1.4,1.6,3.1,1.6,5.2
			c0,2.1-0.5,4.4-1.5,6.7h0.4c1.9,0,3.6-0.7,5-2c0.5-0.5,1-1,1.3-1.4s0.8-0.6,1.2-0.6c0.6,0,0.9,0.7,0.9,2.2c0,2.7-0.8,4.7-2.4,6
			c-1.6,1.3-3.3,2-5.2,2S502.5,242.4,501.2,242.2z M500.6,234.5c0.7-1.6,1.1-3.1,1.1-4.6c0-1.5-0.5-2.2-1.4-2.2
			c-0.4,0-0.7,0.3-1,0.9c-0.3,0.6-0.4,1.1-0.4,1.6C498.9,231.9,499.5,233.4,500.6,234.5z"/>
		<path id="XMLID_163_" class="st1" d="M525.3,215.9c2.9,0,5.1,0.5,6.6,1.6c1.4,1.1,2.2,2.7,2.2,4.8c0,2.1-0.6,3.9-1.9,5.3
			c-1.2,1.5-2.8,2.5-4.6,3.1c1.3,1.3,2.4,2.7,3.5,4c1,1.4,1.5,2.8,1.5,4.3c0,2.9-1.2,5.2-3.5,6.8c-2.3,1.6-5.6,2.4-9.7,2.4
			c-4.1,0-7.2-0.8-9.3-2.5c-2.1-1.6-3.1-3.5-3.1-5.6c0-2.1,0.5-4,1.5-5.7c1-1.7,2.1-2.6,3.3-2.6c0.7,0,1.2,0.3,1.5,0.8
			c0.3,0.5,0.9,2,1.7,4.4c0.3,0.9,0.8,1.7,1.5,2.5c1.6,1.8,4.2,2.7,7.7,2.7c-0.5-1.7-1.4-3.1-2.5-4.3c-1.2-1.2-2.3-2.4-3.5-3.5
			c-1.1-1.1-2.1-2.4-3-3.7c-0.9-1.3-1.3-2.8-1.3-4.6c0-3.2,1.2-5.7,3.6-7.7C519.8,216.8,522.4,215.9,525.3,215.9z M525.1,228.1
			c1.8-1.9,2.6-3.4,2.6-4.5c0-0.5-0.2-1-0.6-1.4c-0.4-0.4-0.9-0.6-1.6-0.6c-0.7,0-1.4,0.1-2,0.3c-0.6,0.2-1.2,0.3-1.5,0.4
			C522,223.8,523,225.8,525.1,228.1z"/>
	</g>
	<g id="XMLID_41_">
		<path id="XMLID_166_" class="st1" d="M132.5,277.2l0.4,15.2l-1.8,0.2v-15.5l-4.2,0l0-1.2l10.3-0.2l0.2,1.5L132.5,277.2z"/>
		<path id="XMLID_168_" class="st1" d="M142.7,292.3c-0.7,0-1.3-0.1-1.8-0.4c-0.5-0.3-1-0.6-1.4-1.1c-0.4-0.4-0.8-1-1-1.6
			c-0.3-0.6-0.5-1.2-0.7-1.9c-0.2-0.7-0.3-1.3-0.4-2c-0.1-0.7-0.1-1.4-0.1-2c0-1.2,0.3-2.3,0.7-3.2c0.4-0.9,1-1.7,1.7-2.4
			c0.7-0.6,1.4-1.1,2.2-1.4c0.8-0.3,1.6-0.4,2.4-0.3c0.6,0.1,1.1,0.2,1.7,0.5c0.5,0.3,1,0.7,1.4,1.2s0.7,1.1,1,1.9
			c0.2,0.7,0.4,1.6,0.4,2.6l-9.6-0.2c-0.2,1.2-0.2,2.4-0.1,3.4s0.3,1.9,0.6,2.7c0.3,0.7,0.7,1.3,1.3,1.8c0.5,0.4,1.2,0.7,1.9,0.8
			c0.3,0,0.7,0,1.1-0.1c0.4-0.1,0.8-0.3,1.2-0.6c0.4-0.3,0.8-0.7,1.1-1.3c0.3-0.5,0.5-1.3,0.6-2.1l2.1,0.2c-0.2,1.1-0.5,1.9-0.9,2.6
			s-0.8,1.3-1.4,1.7s-1.1,0.7-1.8,0.9S143.4,292.3,142.7,292.3z M139.4,280.4c1.3,0,2.6,0.1,3.8,0s2.4,0,3.7,0.1
			c0-0.3-0.1-0.6-0.2-0.9c-0.1-0.3-0.3-0.6-0.6-0.9c-0.3-0.3-0.6-0.5-0.9-0.7c-0.4-0.2-0.7-0.3-1.1-0.3c-0.5,0-0.9,0-1.4,0.1
			c-0.5,0.1-1,0.3-1.4,0.6c-0.4,0.3-0.8,0.6-1.1,0.9C139.7,279.6,139.5,280,139.4,280.4z"/>
		<path id="XMLID_171_" class="st1" d="M159.1,292.5c0.1-1.1,0.1-2.2,0.1-3.1c0-1,0-1.9,0-2.7c0-0.9,0-1.7-0.1-2.5
			c0-0.8-0.1-1.7-0.2-2.5c-0.1-0.5-0.2-1-0.3-1.5c-0.1-0.4-0.3-0.8-0.5-1.1s-0.5-0.6-0.7-0.8c-0.3-0.2-0.6-0.3-0.9-0.4
			c-0.3,0-0.5,0-0.8,0.1c-0.3,0.1-0.6,0.3-0.8,0.5c-0.3,0.2-0.5,0.5-0.8,0.9s-0.5,0.8-0.7,1.3c-0.2,0.5-0.4,1-0.5,1.4
			c-0.1,0.4-0.2,0.9-0.3,1.3c-0.1,0.4-0.1,0.9-0.1,1.4s0,1.1,0.1,1.9c0,0.7,0.1,1.6,0.2,2.5c0.1,1,0.2,2.1,0.3,3.4l-1.8-0.1l-0.7-16
			l1.9-0.2l-0.1,3.4c0.2-0.4,0.5-0.8,0.8-1.3c0.3-0.4,0.7-0.8,1.1-1.1c0.4-0.3,0.9-0.5,1.4-0.7c0.5-0.1,1.1-0.2,1.6,0
			c0.5,0.1,0.9,0.3,1.2,0.6c0.4,0.3,0.7,0.7,1,1.1c0.3,0.4,0.5,0.9,0.7,1.4c0.2,0.5,0.3,1,0.3,1.5c0,0.5,0.1,1.1,0.1,1.8
			c0,0.7,0.1,1.4,0.1,2.1c0,0.7,0.1,1.5,0.1,2.2c0,0.7,0,1.4,0.1,2.1c0,0.6,0,1.2,0,1.7c0,0.5,0,0.9,0,1.1L159.1,292.5z"/>
		<path id="XMLID_177_" class="st1" d="M172.8,292.4l-1.5,0.3l0-2.5c-0.2,0.2-0.4,0.4-0.8,0.7c-0.3,0.3-0.7,0.5-1.1,0.7
			s-0.9,0.4-1.4,0.5c-0.5,0.1-1,0.1-1.6,0.1c-0.5-0.1-1.1-0.2-1.6-0.4c-0.5-0.2-1-0.6-1.4-1c-0.4-0.4-0.7-1-0.9-1.7
			c-0.2-0.7-0.3-1.6-0.2-2.6c0.1-0.8,0.3-1.5,0.6-2.1s0.7-1.1,1.2-1.4s1-0.6,1.6-0.8c0.6-0.2,1.1-0.2,1.7-0.2c0.4,0,0.8,0.1,1.1,0.3
			c0.4,0.2,0.7,0.3,1,0.6c0.3,0.2,0.6,0.5,0.9,0.8c0.3,0.3,0.5,0.6,0.6,0.9v-8.6l1.5-0.1L172.8,292.4z M170.9,287.1
			c0-0.3-0.1-0.7-0.2-1.1s-0.4-0.8-0.6-1.2c-0.3-0.4-0.6-0.7-1-1c-0.4-0.3-0.9-0.5-1.4-0.5c-0.5-0.1-0.9,0-1.4,0.2
			c-0.5,0.2-0.9,0.4-1.3,0.8c-0.4,0.3-0.7,0.8-0.9,1.3s-0.3,1.1-0.3,1.7c0,0.6,0.1,1,0.2,1.4c0.1,0.4,0.3,0.7,0.5,1
			c0.2,0.3,0.4,0.5,0.6,0.6c0.2,0.2,0.5,0.3,0.7,0.4c0.2,0.1,0.4,0.1,0.6,0.2c0.2,0,0.3,0.1,0.4,0.1c0.5,0,0.9,0,1.4-0.2
			s0.9-0.4,1.3-0.8c0.4-0.3,0.7-0.7,1-1.2S170.9,287.7,170.9,287.1z"/>
		<path id="XMLID_180_" class="st1" d="M174.4,292.3l0-16l2.1-0.2v0l-0.3,3.6c0.2-0.4,0.4-0.8,0.6-1.2c0.2-0.4,0.5-0.8,0.8-1.1
			c0.3-0.3,0.7-0.6,1.1-0.8c0.4-0.2,0.9-0.3,1.4-0.4c0.2,0,0.4,0,0.7,0c0.3,0,0.6,0.1,0.9,0.2c0.3,0.1,0.7,0.3,1,0.4
			c0.3,0.2,0.7,0.4,1,0.7c0.3,0.3,0.6,0.7,0.8,1.1c0.2,0.4,0.4,0.9,0.5,1.5l-1.4,0.6c-0.1-0.3-0.2-0.7-0.4-1s-0.4-0.7-0.7-1.1
			c-0.3-0.3-0.6-0.6-0.9-0.8s-0.7-0.3-1.2-0.3c-0.6,0-1.1,0.2-1.5,0.6c-0.4,0.3-0.8,0.8-1.1,1.3c-0.3,0.6-0.6,1.2-0.8,1.9
			c-0.2,0.7-0.4,1.5-0.5,2.3c-0.1,0.8-0.2,1.6-0.3,2.4c-0.1,0.8-0.1,1.6-0.1,2.3c0,0.7,0,1.4,0,2s0,1.1,0,1.5L174.4,292.3z"/>
		<path id="XMLID_185_" class="st1" d="M191,292.2c-0.6,0-1.1,0-1.6-0.2s-0.9-0.5-1.2-0.8c-0.3-0.4-0.6-0.8-0.8-1.3
			c-0.2-0.5-0.4-1-0.5-1.6c-0.1-0.6-0.2-1.2-0.3-1.8c0-0.6-0.1-1.3,0-1.9c0-0.5,0.1-1.1,0.2-1.8s0.2-1.3,0.4-1.9
			c0.2-0.6,0.4-1.3,0.7-1.9s0.7-1.1,1.1-1.6c0.4-0.5,0.9-0.8,1.5-1.1s1.2-0.4,1.9-0.3c0.7,0.1,1.4,0.3,2,0.8
			c0.6,0.5,1.1,1.1,1.5,1.8l-0.1-2.6l1.8,0.2l-0.2,15.7l-1.5,0.1l0-6.1c-0.1,0.3-0.1,0.7-0.3,1.2c-0.1,0.4-0.3,0.9-0.5,1.4
			c-0.2,0.5-0.4,0.9-0.7,1.4c-0.3,0.4-0.6,0.9-0.9,1.2c-0.3,0.4-0.7,0.7-1.1,0.9C191.9,292,191.5,292.2,191,292.2z M190.9,290.8
			c0.3,0,0.6-0.1,0.9-0.3c0.3-0.2,0.6-0.5,0.9-0.8c0.3-0.3,0.5-0.7,0.8-1.2c0.2-0.4,0.4-0.9,0.6-1.4c0.2-0.5,0.3-1,0.5-1.5
			c0.1-0.5,0.2-1,0.2-1.5c0.1-1.2,0.1-2.2,0.1-3.1c-0.1-0.8-0.2-1.5-0.5-2.1s-0.5-0.9-0.9-1.2c-0.4-0.3-0.8-0.4-1.2-0.4
			c-0.6,0-1.2,0.1-1.7,0.5s-1,0.9-1.3,1.5c-0.4,0.6-0.7,1.4-0.9,2.3c-0.2,0.9-0.3,1.9-0.4,2.9c0,1.1,0,2.1,0.2,2.8
			c0.1,0.8,0.4,1.4,0.6,1.9c0.3,0.5,0.6,0.9,1,1.1C190.1,290.6,190.4,290.8,190.9,290.8z M190.6,274.6l2.2-2.4l0.9,1l-2,2.5
			L190.6,274.6z"/>
		<path id="XMLID_189_" class="st1" d="M208.6,287.8c0.1,0.9,0.1,1.8-0.1,2.4c-0.2,0.7-0.5,1.3-0.9,1.7c-0.4,0.4-0.9,0.8-1.5,1
			c-0.6,0.2-1.2,0.3-1.9,0.3c-0.4,0-0.9-0.1-1.3-0.2c-0.5-0.1-0.9-0.2-1.3-0.4c-0.4-0.2-0.8-0.3-1.2-0.5c-0.4-0.2-0.7-0.3-1-0.4
			l0.4-2.1c0.2,0.1,0.4,0.3,0.8,0.5c0.3,0.2,0.7,0.4,1.1,0.6c0.4,0.2,0.9,0.4,1.3,0.6c0.5,0.2,0.9,0.3,1.4,0.3
			c0.4,0,0.8-0.1,1.2-0.2c0.4-0.1,0.7-0.4,1-0.7c0.3-0.3,0.5-0.7,0.6-1.1c0.1-0.4,0.2-1,0.1-1.6c-0.1-0.5-0.2-0.9-0.5-1.2
			c-0.3-0.3-0.6-0.7-1-0.9c-0.4-0.3-0.9-0.5-1.3-0.8c-0.5-0.2-1-0.5-1.5-0.7c-0.5-0.2-1-0.5-1.4-0.7c-0.4-0.3-0.8-0.6-1.1-0.9
			c-0.5-0.5-0.8-1.1-0.9-1.7s-0.1-1.2,0.1-1.8c0.2-0.6,0.4-1.1,0.8-1.6c0.4-0.5,0.8-0.9,1.3-1.2c0.6-0.3,1.2-0.5,1.8-0.5
			c0.6,0,1.1,0.1,1.6,0.4c0.5,0.3,1,0.6,1.4,1.1c0.4,0.5,0.8,1,1.1,1.7l-1.3,0.9c-0.2-0.4-0.4-0.8-0.7-1.2c-0.3-0.4-0.6-0.8-0.9-1.1
			c-0.3-0.3-0.7-0.5-1.1-0.5s-0.8,0.1-1.3,0.5c-0.3,0.2-0.5,0.5-0.7,0.8c-0.2,0.3-0.3,0.7-0.4,1s-0.1,0.7,0,1.1
			c0.1,0.4,0.2,0.7,0.5,1c0.2,0.3,0.5,0.5,0.8,0.7c0.3,0.2,0.6,0.4,1,0.5c0.3,0.2,0.7,0.3,1,0.4s0.6,0.3,0.9,0.5
			c0.4,0.2,0.7,0.4,1.1,0.6c0.3,0.2,0.7,0.5,1,0.8c0.3,0.3,0.5,0.7,0.8,1.1C208.3,286.8,208.5,287.3,208.6,287.8z"/>
		<path id="XMLID_191_" class="st1" d="M223.6,284.5l0.3,8.1l-1.8,0.3l0-8.4l-4,0l-0.2-1.4l4.2-0.1l0-6.3l1.3-0.1l0.2,6.4l4.7-0.1
			l0.4,1.7L223.6,284.5z"/>
		<path id="XMLID_193_" class="st1" d="M233.9,292.3c-0.6,0-1.2-0.2-1.6-0.6c-0.4-0.4-0.8-0.9-1.1-1.6c-0.3-0.7-0.5-1.4-0.7-2.3
			c-0.2-0.8-0.3-1.7-0.3-2.6c-0.1-0.9-0.1-1.8-0.1-2.7c0-0.9,0-1.8,0.1-2.6c0-0.8,0.1-1.5,0.2-2.1c0.1-0.6,0.1-1.1,0.1-1.4l1.6,0.4
			c-0.1,0.2-0.1,0.5-0.2,1c-0.1,0.5-0.1,1.1-0.1,1.7c0,0.7-0.1,1.4-0.1,2.2c0,0.8,0,1.6,0,2.4c0,0.8,0.1,1.6,0.2,2.4
			c0.1,0.8,0.2,1.5,0.4,2.1c0.2,0.6,0.4,1.1,0.7,1.5c0.3,0.4,0.6,0.6,1,0.7c0.5,0.1,0.9,0,1.3-0.3c0.4-0.3,0.7-0.7,1.1-1.2
			s0.6-1.2,0.8-1.9c0.2-0.7,0.5-1.5,0.6-2.4s0.3-1.7,0.5-2.5c0.1-0.9,0.2-1.7,0.3-2.5c0.1-0.8,0.1-1.5,0.2-2.2
			c0-0.7,0.1-1.2,0.1-1.6l2.1,0.2l0.8,15.7c0,0-0.1,0-0.3,0c-0.1,0-0.3,0-0.6,0.1s-0.7,0.1-1.2,0.1l0.2-11c-0.1,0.8-0.2,1.6-0.3,2.5
			c-0.1,0.9-0.3,1.7-0.5,2.5c-0.2,0.8-0.4,1.6-0.7,2.3c-0.3,0.7-0.6,1.4-1,1.9c-0.4,0.5-0.9,0.9-1.5,1.2S234.7,292.3,233.9,292.3z"
			/>
		<path id="XMLID_195_" class="st1" d="M251.5,292.3l0-16l2.1-0.2v0l-0.3,3.6c0.2-0.4,0.4-0.8,0.6-1.2c0.2-0.4,0.5-0.8,0.8-1.1
			c0.3-0.3,0.7-0.6,1.1-0.8c0.4-0.2,0.9-0.3,1.4-0.4c0.2,0,0.4,0,0.7,0c0.3,0,0.6,0.1,0.9,0.2c0.3,0.1,0.7,0.3,1,0.4
			c0.3,0.2,0.7,0.4,1,0.7c0.3,0.3,0.6,0.7,0.8,1.1c0.2,0.4,0.4,0.9,0.5,1.5l-1.4,0.6c-0.1-0.3-0.2-0.7-0.4-1s-0.4-0.7-0.7-1.1
			c-0.3-0.3-0.6-0.6-0.9-0.8s-0.7-0.3-1.2-0.3c-0.6,0-1.1,0.2-1.5,0.6c-0.4,0.3-0.8,0.8-1.1,1.3c-0.3,0.6-0.6,1.2-0.8,1.9
			c-0.2,0.7-0.4,1.5-0.5,2.3c-0.1,0.8-0.2,1.6-0.3,2.4c-0.1,0.8-0.1,1.6-0.1,2.3c0,0.7,0,1.4,0,2s0,1.1,0,1.5L251.5,292.3z"/>
		<path id="XMLID_197_" class="st1" d="M268.9,292.3c-0.7,0-1.3-0.1-1.8-0.4c-0.5-0.3-1-0.6-1.4-1.1c-0.4-0.4-0.8-1-1-1.6
			c-0.3-0.6-0.5-1.2-0.7-1.9c-0.2-0.7-0.3-1.3-0.4-2c-0.1-0.7-0.1-1.4-0.1-2c0-1.2,0.3-2.3,0.7-3.2c0.4-0.9,1-1.7,1.7-2.4
			c0.7-0.6,1.4-1.1,2.2-1.4c0.8-0.3,1.6-0.4,2.4-0.3c0.6,0.1,1.1,0.2,1.7,0.5c0.5,0.3,1,0.7,1.4,1.2s0.7,1.1,1,1.9
			c0.2,0.7,0.4,1.6,0.4,2.6l-9.6-0.2c-0.2,1.2-0.2,2.4-0.1,3.4s0.3,1.9,0.6,2.7c0.3,0.7,0.7,1.3,1.3,1.8c0.5,0.4,1.2,0.7,1.9,0.8
			c0.3,0,0.7,0,1.1-0.1c0.4-0.1,0.8-0.3,1.2-0.6c0.4-0.3,0.8-0.7,1.1-1.3c0.3-0.5,0.5-1.3,0.6-2.1l2.1,0.2c-0.2,1.1-0.5,1.9-0.9,2.6
			s-0.8,1.3-1.4,1.7s-1.1,0.7-1.8,0.9S269.6,292.3,268.9,292.3z M265.6,280.4c1.3,0,2.6,0.1,3.8,0c1.2,0,2.4,0,3.7,0.1
			c0-0.3-0.1-0.6-0.2-0.9c-0.1-0.3-0.3-0.6-0.6-0.9c-0.3-0.3-0.6-0.5-0.9-0.7c-0.4-0.2-0.7-0.3-1.1-0.3c-0.5,0-0.9,0-1.4,0.1
			c-0.5,0.1-1,0.3-1.4,0.6c-0.4,0.3-0.8,0.6-1.1,0.9C265.9,279.6,265.7,280,265.6,280.4z"/>
		<path id="XMLID_200_" class="st1" d="M285.7,287.8c0.1,0.9,0.1,1.8-0.1,2.4c-0.2,0.7-0.5,1.3-0.9,1.7c-0.4,0.4-0.9,0.8-1.5,1
			c-0.6,0.2-1.2,0.3-1.9,0.3c-0.4,0-0.9-0.1-1.3-0.2c-0.5-0.1-0.9-0.2-1.3-0.4c-0.4-0.2-0.8-0.3-1.2-0.5c-0.4-0.2-0.7-0.3-1-0.4
			l0.4-2.1c0.2,0.1,0.4,0.3,0.8,0.5c0.3,0.2,0.7,0.4,1.1,0.6c0.4,0.2,0.9,0.4,1.3,0.6c0.5,0.2,0.9,0.3,1.4,0.3
			c0.4,0,0.8-0.1,1.2-0.2c0.4-0.1,0.7-0.4,1-0.7c0.3-0.3,0.5-0.7,0.6-1.1c0.1-0.4,0.2-1,0.1-1.6c-0.1-0.5-0.2-0.9-0.5-1.2
			c-0.3-0.3-0.6-0.7-1-0.9c-0.4-0.3-0.9-0.5-1.3-0.8c-0.5-0.2-1-0.5-1.5-0.7c-0.5-0.2-1-0.5-1.4-0.7c-0.4-0.3-0.8-0.6-1.1-0.9
			c-0.5-0.5-0.8-1.1-0.9-1.7s-0.1-1.2,0.1-1.8c0.2-0.6,0.4-1.1,0.8-1.6c0.4-0.5,0.8-0.9,1.3-1.2c0.6-0.3,1.2-0.5,1.8-0.5
			c0.6,0,1.1,0.1,1.6,0.4c0.5,0.3,1,0.6,1.4,1.1c0.4,0.5,0.8,1,1.1,1.7l-1.3,0.9c-0.2-0.4-0.4-0.8-0.7-1.2c-0.3-0.4-0.6-0.8-0.9-1.1
			c-0.3-0.3-0.7-0.5-1.1-0.5s-0.8,0.1-1.3,0.5c-0.3,0.2-0.5,0.5-0.7,0.8c-0.2,0.3-0.3,0.7-0.4,1s-0.1,0.7,0,1.1
			c0.1,0.4,0.2,0.7,0.5,1c0.2,0.3,0.5,0.5,0.8,0.7c0.3,0.2,0.6,0.4,1,0.5c0.3,0.2,0.7,0.3,1,0.4s0.6,0.3,0.9,0.5
			c0.4,0.2,0.7,0.4,1.1,0.6c0.3,0.2,0.7,0.5,1,0.8c0.3,0.3,0.5,0.7,0.8,1.1C285.5,286.8,285.6,287.3,285.7,287.8z"/>
		<path id="XMLID_203_" class="st1" d="M287.4,276.2l1.2,0v2.5c0.2-0.3,0.5-0.6,0.8-1c0.3-0.3,0.7-0.6,1.1-0.9
			c0.4-0.3,0.8-0.5,1.3-0.6c0.5-0.1,1-0.2,1.6-0.2c0.5,0,1.1,0.2,1.6,0.4c0.5,0.2,1,0.6,1.4,1.1c0.4,0.5,0.7,1.1,0.9,1.8
			c0.2,0.7,0.3,1.6,0.2,2.7c-0.1,0.8-0.2,1.6-0.6,2.2c-0.3,0.6-0.7,1.1-1.2,1.5c-0.5,0.4-1,0.7-1.6,0.9c-0.6,0.2-1.1,0.3-1.7,0.3
			c-0.4,0-0.8-0.1-1.1-0.2c-0.4-0.1-0.7-0.3-1-0.6c-0.3-0.2-0.6-0.5-0.8-0.8c-0.2-0.3-0.4-0.6-0.6-0.9l0.2,8.6l-1.6-0.2V276.2z
			 M289,281.7c0,0.3,0.1,0.7,0.2,1.1c0.2,0.4,0.4,0.8,0.7,1.2c0.3,0.4,0.6,0.7,1,1c0.4,0.3,0.9,0.5,1.4,0.5c0.5,0,0.9,0,1.4-0.2
			s0.8-0.5,1.2-0.8c0.3-0.4,0.6-0.8,0.8-1.3c0.2-0.5,0.3-1.1,0.3-1.7c0-0.8-0.2-1.5-0.4-2c-0.2-0.5-0.5-0.9-0.8-1.2
			s-0.6-0.5-0.9-0.6c-0.3-0.1-0.6-0.2-0.9-0.2c-0.5,0-0.9,0.1-1.4,0.3c-0.5,0.2-0.9,0.6-1.3,1s-0.7,0.9-0.9,1.4
			C289.2,280.6,289,281.2,289,281.7z"/>
		<path id="XMLID_206_" class="st1" d="M302.5,292.3c-0.6,0-1.2-0.2-1.6-0.6c-0.4-0.4-0.8-0.9-1.1-1.6c-0.3-0.7-0.5-1.4-0.7-2.3
			c-0.2-0.8-0.3-1.7-0.3-2.6c-0.1-0.9-0.1-1.8-0.1-2.7c0-0.9,0-1.8,0.1-2.6c0-0.8,0.1-1.5,0.2-2.1c0.1-0.6,0.1-1.1,0.1-1.4l1.6,0.4
			c-0.1,0.2-0.1,0.5-0.2,1c-0.1,0.5-0.1,1.1-0.1,1.7c0,0.7-0.1,1.4-0.1,2.2c0,0.8,0,1.6,0,2.4c0,0.8,0.1,1.6,0.2,2.4
			c0.1,0.8,0.2,1.5,0.4,2.1c0.2,0.6,0.4,1.1,0.7,1.5c0.3,0.4,0.6,0.6,1,0.7c0.5,0.1,0.9,0,1.3-0.3c0.4-0.3,0.7-0.7,1.1-1.2
			s0.6-1.2,0.8-1.9c0.2-0.7,0.5-1.5,0.6-2.4s0.3-1.7,0.5-2.5c0.1-0.9,0.2-1.7,0.3-2.5c0.1-0.8,0.1-1.5,0.2-2.2
			c0-0.7,0.1-1.2,0.1-1.6l2.1,0.2l0.8,15.7c0,0-0.1,0-0.3,0c-0.1,0-0.3,0-0.6,0.1s-0.7,0.1-1.2,0.1l0.2-11c-0.1,0.8-0.2,1.6-0.3,2.5
			c-0.1,0.9-0.3,1.7-0.5,2.5c-0.2,0.8-0.4,1.6-0.7,2.3c-0.3,0.7-0.6,1.4-1,1.9c-0.4,0.5-0.9,0.9-1.5,1.2S303.2,292.3,302.5,292.3z"
			/>
		<path id="XMLID_208_" class="st1" d="M317,292.3c-0.7,0-1.3-0.1-1.8-0.4c-0.5-0.3-1-0.6-1.4-1.1c-0.4-0.4-0.8-1-1-1.6
			c-0.3-0.6-0.5-1.2-0.7-1.9c-0.2-0.7-0.3-1.3-0.4-2c-0.1-0.7-0.1-1.4-0.1-2c0-1.2,0.3-2.3,0.7-3.2c0.4-0.9,1-1.7,1.7-2.4
			c0.7-0.6,1.4-1.1,2.2-1.4c0.8-0.3,1.6-0.4,2.4-0.3c0.6,0.1,1.1,0.2,1.7,0.5c0.5,0.3,1,0.7,1.4,1.2s0.7,1.1,1,1.9
			c0.2,0.7,0.4,1.6,0.4,2.6l-9.6-0.2c-0.2,1.2-0.2,2.4-0.1,3.4s0.3,1.9,0.6,2.7c0.3,0.7,0.7,1.3,1.3,1.8c0.5,0.4,1.2,0.7,1.9,0.8
			c0.3,0,0.7,0,1.1-0.1s0.8-0.3,1.2-0.6c0.4-0.3,0.8-0.7,1.1-1.3c0.3-0.5,0.5-1.3,0.6-2.1l2.1,0.2c-0.2,1.1-0.5,1.9-0.9,2.6
			s-0.8,1.3-1.4,1.7s-1.1,0.7-1.8,0.9S317.8,292.3,317,292.3z M313.8,280.4c1.3,0,2.6,0.1,3.8,0c1.2,0,2.4,0,3.7,0.1
			c0-0.3-0.1-0.6-0.2-0.9c-0.1-0.3-0.3-0.6-0.6-0.9c-0.3-0.3-0.6-0.5-0.9-0.7c-0.4-0.2-0.7-0.3-1.1-0.3c-0.5,0-0.9,0-1.4,0.1
			c-0.5,0.1-1,0.3-1.4,0.6c-0.4,0.3-0.8,0.6-1.1,0.9C314.1,279.6,313.9,280,313.8,280.4z"/>
		<path id="XMLID_211_" class="st1" d="M333.9,287.8c0.1,0.9,0.1,1.8-0.1,2.4c-0.2,0.7-0.5,1.3-0.9,1.7c-0.4,0.4-0.9,0.8-1.5,1
			c-0.6,0.2-1.2,0.3-1.9,0.3c-0.4,0-0.9-0.1-1.3-0.2c-0.5-0.1-0.9-0.2-1.3-0.4c-0.4-0.2-0.8-0.3-1.2-0.5c-0.4-0.2-0.7-0.3-1-0.4
			l0.4-2.1c0.2,0.1,0.4,0.3,0.8,0.5c0.3,0.2,0.7,0.4,1.1,0.6c0.4,0.2,0.9,0.4,1.3,0.6c0.5,0.2,0.9,0.3,1.4,0.3
			c0.4,0,0.8-0.1,1.2-0.2c0.4-0.1,0.7-0.4,1-0.7c0.3-0.3,0.5-0.7,0.6-1.1c0.1-0.4,0.2-1,0.1-1.6c-0.1-0.5-0.2-0.9-0.5-1.2
			c-0.3-0.3-0.6-0.7-1-0.9c-0.4-0.3-0.9-0.5-1.3-0.8c-0.5-0.2-1-0.5-1.5-0.7c-0.5-0.2-1-0.5-1.4-0.7c-0.4-0.3-0.8-0.6-1.1-0.9
			c-0.5-0.5-0.8-1.1-0.9-1.7s-0.1-1.2,0.1-1.8c0.2-0.6,0.4-1.1,0.8-1.6c0.4-0.5,0.8-0.9,1.3-1.2c0.6-0.3,1.2-0.5,1.8-0.5
			c0.6,0,1.1,0.1,1.6,0.4c0.5,0.3,1,0.6,1.4,1.1c0.4,0.5,0.8,1,1.1,1.7l-1.3,0.9c-0.2-0.4-0.4-0.8-0.7-1.2c-0.3-0.4-0.6-0.8-0.9-1.1
			c-0.3-0.3-0.7-0.5-1.1-0.5s-0.8,0.1-1.3,0.5c-0.3,0.2-0.5,0.5-0.7,0.8c-0.2,0.3-0.3,0.7-0.4,1s-0.1,0.7,0,1.1
			c0.1,0.4,0.2,0.7,0.5,1c0.2,0.3,0.5,0.5,0.8,0.7c0.3,0.2,0.6,0.4,1,0.5c0.3,0.2,0.7,0.3,1,0.4s0.6,0.3,0.9,0.5
			c0.4,0.2,0.7,0.4,1.1,0.6c0.3,0.2,0.7,0.5,1,0.8c0.3,0.3,0.5,0.7,0.8,1.1C333.6,286.8,333.8,287.3,333.9,287.8z"/>
		<path id="XMLID_213_" class="st1" d="M340.8,284.5l0.3,8.1l-1.8,0.3l0-8.4l-4,0l-0.2-1.4l4.2-0.1l0-6.3l1.3-0.1l0.2,6.4l4.7-0.1
			l0.4,1.7L340.8,284.5z"/>
		<path id="XMLID_215_" class="st1" d="M351.8,292.2c-0.6,0-1.1,0-1.6-0.2s-0.9-0.5-1.2-0.8c-0.3-0.4-0.6-0.8-0.8-1.3
			c-0.2-0.5-0.4-1-0.5-1.6c-0.1-0.6-0.2-1.2-0.3-1.8c0-0.6-0.1-1.3,0-1.9c0-0.5,0.1-1.1,0.2-1.8s0.2-1.3,0.4-1.9
			c0.2-0.6,0.4-1.3,0.7-1.9s0.7-1.1,1.1-1.6c0.4-0.5,0.9-0.8,1.5-1.1s1.2-0.4,1.9-0.3c0.7,0.1,1.4,0.3,2,0.8
			c0.6,0.5,1.1,1.1,1.5,1.8l-0.1-2.6l1.8,0.2l-0.2,15.7l-1.5,0.1l0-6.1c-0.1,0.3-0.1,0.7-0.3,1.2c-0.1,0.4-0.3,0.9-0.5,1.4
			c-0.2,0.5-0.4,0.9-0.7,1.4c-0.3,0.4-0.6,0.9-0.9,1.2c-0.3,0.4-0.7,0.7-1.1,0.9C352.7,292,352.2,292.2,351.8,292.2z M351.6,290.8
			c0.3,0,0.6-0.1,0.9-0.3c0.3-0.2,0.6-0.5,0.9-0.8c0.3-0.3,0.5-0.7,0.8-1.2c0.2-0.4,0.4-0.9,0.6-1.4c0.2-0.5,0.3-1,0.5-1.5
			c0.1-0.5,0.2-1,0.2-1.5c0.1-1.2,0.1-2.2,0.1-3.1c-0.1-0.8-0.2-1.5-0.5-2.1s-0.5-0.9-0.9-1.2c-0.4-0.3-0.8-0.4-1.2-0.4
			c-0.6,0-1.2,0.1-1.7,0.5s-1,0.9-1.3,1.5c-0.4,0.6-0.7,1.4-0.9,2.3c-0.2,0.9-0.3,1.9-0.4,2.9c0,1.1,0,2.1,0.2,2.8
			c0.1,0.8,0.4,1.4,0.6,1.9c0.3,0.5,0.6,0.9,1,1.1C350.8,290.6,351.2,290.8,351.6,290.8z"/>
		<path id="XMLID_218_" class="st1" d="M368.5,291.5c0-0.5,0-1.2,0-2.1c0-0.8,0-1.8,0-2.8c0-1,0-2.1,0-3.3c0-1.1,0-2.2-0.1-3.4
			c0-1.1-0.1-2.2-0.2-3.1l1.5-0.2l0.6,16.1l-2-0.2C368.5,292.4,368.5,292,368.5,291.5z"/>
		<path id="XMLID_220_" class="st1" d="M378.4,292.2c-0.8,0.2-1.6,0.2-2.4-0.1c-0.7-0.3-1.4-0.8-2-1.5c-0.6-0.7-1-1.5-1.4-2.4
			c-0.4-0.9-0.6-1.9-0.7-2.9c-0.1-0.9-0.1-1.8,0-2.7c0.1-0.9,0.3-1.7,0.7-2.4c0.3-0.7,0.8-1.4,1.4-1.9c0.6-0.5,1.4-0.8,2.3-1
			c1-0.2,1.9-0.1,2.7,0.2c0.8,0.3,1.5,0.7,2,1.3c0.5,0.6,1,1.3,1.3,2.2c0.3,0.8,0.5,1.7,0.6,2.6c0.1,0.9,0,1.9-0.1,2.8
			s-0.4,1.8-0.8,2.6c-0.4,0.8-0.9,1.5-1.5,2.1C380,291.6,379.3,292,378.4,292.2z M377.9,290.7c0.7-0.1,1.2-0.4,1.7-0.8
			c0.5-0.4,0.8-0.9,1.1-1.5c0.3-0.6,0.5-1.3,0.6-2c0.1-0.7,0.1-1.5,0.1-2.2c0-0.7-0.2-1.4-0.4-2.1c-0.2-0.7-0.5-1.3-0.9-1.8
			s-0.8-0.9-1.3-1.2c-0.5-0.3-1.1-0.4-1.7-0.4c-0.6,0-1.1,0.2-1.6,0.6c-0.5,0.4-0.8,0.8-1.1,1.4c-0.3,0.6-0.5,1.2-0.7,1.9
			c-0.1,0.7-0.2,1.4-0.1,2.2c0,0.8,0.2,1.5,0.4,2.3c0.2,0.8,0.5,1.4,0.9,2c0.4,0.6,0.8,1,1.3,1.4S377.2,290.8,377.9,290.7z"/>
		<path id="XMLID_223_" class="st1" d="M404.4,293c0.2-2.5,0.2-4.6,0.2-6.3c0-1.8-0.2-3.2-0.4-4.4c-0.2-1.1-0.5-2-0.8-2.5
			c-0.3-0.5-0.7-0.8-1.1-0.9c-0.1,0-0.3,0-0.5,0.2c-0.2,0.1-0.5,0.3-0.7,0.7c-0.3,0.3-0.5,0.8-0.8,1.3c-0.3,0.6-0.5,1.3-0.7,2.1
			l-1.2-0.3c0-0.2,0-0.4,0.1-0.7c0-0.3,0-0.6,0-1s0-0.7-0.1-1c0-0.3-0.1-0.6-0.2-0.9c-0.1-0.3-0.3-0.5-0.5-0.6
			c-0.2-0.1-0.5-0.2-0.9-0.2c-0.5,0.1-0.9,0.4-1.2,0.9c-0.3,0.5-0.6,1.2-0.7,2.1s-0.3,1.8-0.4,2.8c-0.1,1-0.1,2.1-0.1,3.1
			c0,1.1,0,2.1,0,3c0,1,0.1,1.8,0.1,2.5l-1.8,0.3l-0.4-16.1l1.8,0l-0.2,3.2c0.1-0.5,0.3-0.9,0.6-1.3c0.2-0.4,0.5-0.8,0.8-1.1
			s0.7-0.5,1.1-0.7c0.4-0.1,0.8-0.2,1.3-0.1c0.2,0,0.4,0.2,0.6,0.3c0.2,0.2,0.4,0.4,0.6,0.7c0.2,0.3,0.3,0.6,0.4,0.9
			c0.1,0.4,0.2,0.7,0.2,1.2c0.1-0.2,0.3-0.5,0.5-0.8c0.2-0.3,0.5-0.6,0.8-0.9c0.3-0.3,0.6-0.5,1-0.6c0.3-0.2,0.7-0.2,1-0.2
			c0.6,0.1,1.1,0.4,1.6,1c0.4,0.5,0.8,1.2,1,2.1s0.5,1.8,0.6,2.8c0.1,1,0.2,2.1,0.3,3.2c0.1,1.1,0.1,2.2,0.1,3.3s0,2.1,0,3
			L404.4,293z"/>
		<path id="XMLID_225_" class="st1" d="M412.5,292.2c-0.6,0-1.1,0-1.6-0.2s-0.9-0.5-1.2-0.8c-0.3-0.4-0.6-0.8-0.8-1.3
			c-0.2-0.5-0.4-1-0.5-1.6c-0.1-0.6-0.2-1.2-0.3-1.8c0-0.6-0.1-1.3,0-1.9c0-0.5,0.1-1.1,0.2-1.8s0.2-1.3,0.4-1.9
			c0.2-0.6,0.4-1.3,0.7-1.9s0.7-1.1,1.1-1.6c0.4-0.5,0.9-0.8,1.5-1.1s1.2-0.4,1.9-0.3c0.7,0.1,1.4,0.3,2,0.8
			c0.6,0.5,1.1,1.1,1.5,1.8l-0.1-2.6l1.8,0.2l-0.2,15.7l-1.5,0.1l0-6.1c-0.1,0.3-0.1,0.7-0.3,1.2c-0.1,0.4-0.3,0.9-0.5,1.4
			c-0.2,0.5-0.4,0.9-0.7,1.4c-0.3,0.4-0.6,0.9-0.9,1.2c-0.3,0.4-0.7,0.7-1.1,0.9C413.4,292,413,292.2,412.5,292.2z M412.4,290.8
			c0.3,0,0.6-0.1,0.9-0.3c0.3-0.2,0.6-0.5,0.9-0.8c0.3-0.3,0.5-0.7,0.8-1.2c0.2-0.4,0.4-0.9,0.6-1.4c0.2-0.5,0.3-1,0.5-1.5
			c0.1-0.5,0.2-1,0.2-1.5c0.1-1.2,0.1-2.2,0.1-3.1c-0.1-0.8-0.2-1.5-0.5-2.1s-0.5-0.9-0.9-1.2c-0.4-0.3-0.8-0.4-1.2-0.4
			c-0.6,0-1.2,0.1-1.7,0.5s-1,0.9-1.3,1.5c-0.4,0.6-0.7,1.4-0.9,2.3c-0.2,0.9-0.3,1.9-0.4,2.9c0,1.1,0,2.1,0.2,2.8
			c0.1,0.8,0.4,1.4,0.6,1.9c0.3,0.5,0.6,0.9,1,1.1C411.6,290.6,412,290.8,412.4,290.8z M412.1,274.6l2.2-2.4l0.9,1l-2,2.5
			L412.1,274.6z"/>
		<path id="XMLID_229_" class="st1" d="M430.1,287.8c0.1,0.9,0.1,1.8-0.1,2.4c-0.2,0.7-0.5,1.3-0.9,1.7c-0.4,0.4-0.9,0.8-1.5,1
			c-0.6,0.2-1.2,0.3-1.9,0.3c-0.4,0-0.9-0.1-1.3-0.2c-0.5-0.1-0.9-0.2-1.3-0.4c-0.4-0.2-0.8-0.3-1.2-0.5c-0.4-0.2-0.7-0.3-1-0.4
			l0.4-2.1c0.2,0.1,0.4,0.3,0.8,0.5c0.3,0.2,0.7,0.4,1.1,0.6c0.4,0.2,0.9,0.4,1.3,0.6c0.5,0.2,0.9,0.3,1.4,0.3
			c0.4,0,0.8-0.1,1.2-0.2c0.4-0.1,0.7-0.4,1-0.7c0.3-0.3,0.5-0.7,0.6-1.1c0.1-0.4,0.2-1,0.1-1.6c-0.1-0.5-0.2-0.9-0.5-1.2
			c-0.3-0.3-0.6-0.7-1-0.9c-0.4-0.3-0.9-0.5-1.3-0.8c-0.5-0.2-1-0.5-1.5-0.7c-0.5-0.2-1-0.5-1.4-0.7c-0.4-0.3-0.8-0.6-1.1-0.9
			c-0.5-0.5-0.8-1.1-0.9-1.7s-0.1-1.2,0.1-1.8c0.2-0.6,0.4-1.1,0.8-1.6c0.4-0.5,0.8-0.9,1.3-1.2c0.6-0.3,1.2-0.5,1.8-0.5
			c0.6,0,1.1,0.1,1.6,0.4c0.5,0.3,1,0.6,1.4,1.1c0.4,0.5,0.8,1,1.1,1.7l-1.3,0.9c-0.2-0.4-0.4-0.8-0.7-1.2c-0.3-0.4-0.6-0.8-0.9-1.1
			c-0.3-0.3-0.7-0.5-1.1-0.5s-0.8,0.1-1.3,0.5c-0.3,0.2-0.5,0.5-0.7,0.8c-0.2,0.3-0.3,0.7-0.4,1s-0.1,0.7,0,1.1
			c0.1,0.4,0.2,0.7,0.5,1c0.2,0.3,0.5,0.5,0.8,0.7c0.3,0.2,0.6,0.4,1,0.5c0.3,0.2,0.7,0.3,1,0.4s0.6,0.3,0.9,0.5
			c0.4,0.2,0.7,0.4,1.1,0.6c0.3,0.2,0.7,0.5,1,0.8c0.3,0.3,0.5,0.7,0.8,1.1C429.9,286.8,430,287.3,430.1,287.8z"/>
		<path id="XMLID_232_" class="st1" d="M439.8,276.2l1.2,0v2.5c0.2-0.3,0.5-0.6,0.8-1c0.3-0.3,0.7-0.6,1.1-0.9
			c0.4-0.3,0.8-0.5,1.3-0.6c0.5-0.1,1-0.2,1.6-0.2c0.5,0,1.1,0.2,1.6,0.4c0.5,0.2,1,0.6,1.4,1.1c0.4,0.5,0.7,1.1,0.9,1.8
			c0.2,0.7,0.3,1.6,0.2,2.7c-0.1,0.8-0.2,1.6-0.6,2.2c-0.3,0.6-0.7,1.1-1.2,1.5c-0.5,0.4-1,0.7-1.6,0.9c-0.6,0.2-1.1,0.3-1.7,0.3
			c-0.4,0-0.8-0.1-1.1-0.2s-0.7-0.3-1-0.6c-0.3-0.2-0.6-0.5-0.8-0.8c-0.2-0.3-0.4-0.6-0.6-0.9l0.2,8.6l-1.6-0.2V276.2z M441.5,281.7
			c0,0.3,0.1,0.7,0.2,1.1c0.2,0.4,0.4,0.8,0.7,1.2s0.6,0.7,1,1s0.9,0.5,1.4,0.5c0.5,0,0.9,0,1.4-0.2s0.8-0.5,1.2-0.8
			c0.3-0.4,0.6-0.8,0.8-1.3c0.2-0.5,0.3-1.1,0.3-1.7c0-0.8-0.2-1.5-0.4-2c-0.2-0.5-0.5-0.9-0.8-1.2s-0.6-0.5-0.9-0.6
			c-0.3-0.1-0.6-0.2-0.9-0.2c-0.5,0-0.9,0.1-1.4,0.3c-0.5,0.2-0.9,0.6-1.3,1s-0.7,0.9-0.9,1.4S441.5,281.2,441.5,281.7z"/>
		<path id="XMLID_236_" class="st1" d="M451.3,292.3l0-16l2.1-0.2v0l-0.3,3.6c0.2-0.4,0.4-0.8,0.6-1.2c0.2-0.4,0.5-0.8,0.8-1.1
			c0.3-0.3,0.7-0.6,1.1-0.8c0.4-0.2,0.9-0.3,1.4-0.4c0.2,0,0.4,0,0.7,0c0.3,0,0.6,0.1,0.9,0.2c0.3,0.1,0.7,0.3,1,0.4
			c0.3,0.2,0.7,0.4,1,0.7c0.3,0.3,0.6,0.7,0.8,1.1c0.2,0.4,0.4,0.9,0.5,1.5l-1.4,0.6c-0.1-0.3-0.2-0.7-0.4-1s-0.4-0.7-0.7-1.1
			c-0.3-0.3-0.6-0.6-0.9-0.8s-0.7-0.3-1.2-0.3c-0.6,0-1.1,0.2-1.5,0.6c-0.4,0.3-0.8,0.8-1.1,1.3c-0.3,0.6-0.6,1.2-0.8,1.9
			c-0.2,0.7-0.4,1.5-0.5,2.3s-0.2,1.6-0.3,2.4s-0.1,1.6-0.1,2.3c0,0.7,0,1.4,0,2s0,1.1,0,1.5L451.3,292.3z"/>
		<path id="XMLID_239_" class="st1" d="M469.9,292.2c-0.8,0.2-1.6,0.2-2.4-0.1c-0.7-0.3-1.4-0.8-2-1.5c-0.6-0.7-1-1.5-1.4-2.4
			s-0.6-1.9-0.7-2.9c-0.1-0.9-0.1-1.8,0-2.7c0.1-0.9,0.3-1.7,0.7-2.4c0.3-0.7,0.8-1.4,1.4-1.9s1.4-0.8,2.3-1c1-0.2,1.9-0.1,2.7,0.2
			c0.8,0.3,1.5,0.7,2,1.3c0.5,0.6,1,1.3,1.3,2.2c0.3,0.8,0.5,1.7,0.6,2.6c0.1,0.9,0,1.9-0.1,2.8s-0.4,1.8-0.8,2.6
			c-0.4,0.8-0.9,1.5-1.5,2.1C471.5,291.6,470.7,292,469.9,292.2z M469.3,290.7c0.7-0.1,1.2-0.4,1.7-0.8c0.5-0.4,0.8-0.9,1.1-1.5
			c0.3-0.6,0.5-1.3,0.6-2c0.1-0.7,0.1-1.5,0.1-2.2c0-0.7-0.2-1.4-0.4-2.1c-0.2-0.7-0.5-1.3-0.9-1.8s-0.8-0.9-1.3-1.2
			s-1.1-0.4-1.7-0.4c-0.6,0-1.1,0.2-1.6,0.6c-0.5,0.4-0.8,0.8-1.1,1.4c-0.3,0.6-0.5,1.2-0.7,1.9c-0.1,0.7-0.2,1.4-0.1,2.2
			c0,0.8,0.2,1.5,0.4,2.3c0.2,0.8,0.5,1.4,0.9,2c0.4,0.6,0.8,1,1.3,1.4S468.7,290.8,469.3,290.7z"/>
		<path id="XMLID_242_" class="st1" d="M484.6,292.5c0.1-1.1,0.1-2.2,0.1-3.1c0-1,0-1.9,0-2.7c0-0.9,0-1.7-0.1-2.5
			c0-0.8-0.1-1.7-0.2-2.5c-0.1-0.5-0.2-1-0.3-1.5c-0.1-0.4-0.3-0.8-0.5-1.1s-0.5-0.6-0.7-0.8c-0.3-0.2-0.6-0.3-0.9-0.4
			c-0.3,0-0.5,0-0.8,0.1c-0.3,0.1-0.6,0.3-0.8,0.5c-0.3,0.2-0.5,0.5-0.8,0.9s-0.5,0.8-0.7,1.3c-0.2,0.5-0.4,1-0.5,1.4
			c-0.1,0.4-0.2,0.9-0.3,1.3s-0.1,0.9-0.1,1.4s0,1.1,0.1,1.9s0.1,1.6,0.2,2.5c0.1,1,0.2,2.1,0.3,3.4l-1.8-0.1l-0.7-16l1.9-0.2
			l-0.1,3.4c0.2-0.4,0.5-0.8,0.8-1.3c0.3-0.4,0.7-0.8,1.1-1.1c0.4-0.3,0.9-0.5,1.4-0.7c0.5-0.1,1.1-0.2,1.6,0
			c0.5,0.1,0.9,0.3,1.2,0.6c0.4,0.3,0.7,0.7,1,1.1c0.3,0.4,0.5,0.9,0.7,1.4c0.2,0.5,0.3,1,0.3,1.5c0,0.5,0.1,1.1,0.1,1.8
			c0,0.7,0.1,1.4,0.1,2.1c0,0.7,0.1,1.5,0.1,2.2c0,0.7,0,1.4,0.1,2.1c0,0.6,0,1.2,0,1.7c0,0.5,0,0.9,0,1.1L484.6,292.5z"/>
		<path id="XMLID_245_" class="st1" d="M493.3,284.5l0.3,8.1l-1.8,0.3l0-8.4l-4,0l-0.2-1.4l4.2-0.1l0-6.3l1.3-0.1l0.2,6.4l4.7-0.1
			l0.4,1.7L493.3,284.5z"/>
		<path id="XMLID_247_" class="st1" d="M506.3,292.2c-0.8,0.2-1.6,0.2-2.4-0.1c-0.7-0.3-1.4-0.8-2-1.5c-0.6-0.7-1-1.5-1.4-2.4
			s-0.6-1.9-0.7-2.9c-0.1-0.9-0.1-1.8,0-2.7c0.1-0.9,0.3-1.7,0.7-2.4c0.3-0.7,0.8-1.4,1.4-1.9s1.4-0.8,2.3-1c1-0.2,1.9-0.1,2.7,0.2
			c0.8,0.3,1.5,0.7,2,1.3c0.5,0.6,1,1.3,1.3,2.2c0.3,0.8,0.5,1.7,0.6,2.6c0.1,0.9,0,1.9-0.1,2.8s-0.4,1.8-0.8,2.6
			c-0.4,0.8-0.9,1.5-1.5,2.1C507.8,291.6,507.1,292,506.3,292.2z M505.7,290.7c0.7-0.1,1.2-0.4,1.7-0.8c0.5-0.4,0.8-0.9,1.1-1.5
			c0.3-0.6,0.5-1.3,0.6-2c0.1-0.7,0.1-1.5,0.1-2.2c0-0.7-0.2-1.4-0.4-2.1c-0.2-0.7-0.5-1.3-0.9-1.8s-0.8-0.9-1.3-1.2
			s-1.1-0.4-1.7-0.4c-0.6,0-1.1,0.2-1.6,0.6c-0.5,0.4-0.8,0.8-1.1,1.4c-0.3,0.6-0.5,1.2-0.7,1.9c-0.1,0.7-0.2,1.4-0.1,2.2
			c0,0.8,0.2,1.5,0.4,2.3c0.2,0.8,0.5,1.4,0.9,2c0.4,0.6,0.8,1,1.3,1.4S505.1,290.8,505.7,290.7z"/>
		<path id="XMLID_251_" class="st1" d="M520.4,276.2l1.2,0v2.5c0.2-0.3,0.5-0.6,0.8-1c0.3-0.3,0.7-0.6,1.1-0.9
			c0.4-0.3,0.8-0.5,1.3-0.6c0.5-0.1,1-0.2,1.6-0.2c0.5,0,1.1,0.2,1.6,0.4c0.5,0.2,1,0.6,1.4,1.1c0.4,0.5,0.7,1.1,0.9,1.8
			c0.2,0.7,0.3,1.6,0.2,2.7c-0.1,0.8-0.2,1.6-0.6,2.2c-0.3,0.6-0.7,1.1-1.2,1.5c-0.5,0.4-1,0.7-1.6,0.9c-0.6,0.2-1.1,0.3-1.7,0.3
			c-0.4,0-0.8-0.1-1.1-0.2s-0.7-0.3-1-0.6c-0.3-0.2-0.6-0.5-0.8-0.8c-0.2-0.3-0.4-0.6-0.6-0.9l0.2,8.6l-1.6-0.2V276.2z M522,281.7
			c0,0.3,0.1,0.7,0.2,1.1c0.2,0.4,0.4,0.8,0.7,1.2s0.6,0.7,1,1s0.9,0.5,1.4,0.5c0.5,0,0.9,0,1.4-0.2s0.8-0.5,1.2-0.8
			c0.3-0.4,0.6-0.8,0.8-1.3c0.2-0.5,0.3-1.1,0.3-1.7c0-0.8-0.2-1.5-0.4-2c-0.2-0.5-0.5-0.9-0.8-1.2s-0.6-0.5-0.9-0.6
			c-0.3-0.1-0.6-0.2-0.9-0.2c-0.5,0-0.9,0.1-1.4,0.3c-0.5,0.2-0.9,0.6-1.3,1s-0.7,0.9-0.9,1.4S522,281.2,522,281.7z"/>
		<path id="XMLID_254_" class="st1" d="M538.2,292.2c-0.8,0.2-1.6,0.2-2.4-0.1c-0.7-0.3-1.4-0.8-2-1.5c-0.6-0.7-1-1.5-1.4-2.4
			s-0.6-1.9-0.7-2.9c-0.1-0.9-0.1-1.8,0-2.7c0.1-0.9,0.3-1.7,0.7-2.4c0.3-0.7,0.8-1.4,1.4-1.9s1.4-0.8,2.3-1c1-0.2,1.9-0.1,2.7,0.2
			c0.8,0.3,1.5,0.7,2,1.3c0.5,0.6,1,1.3,1.3,2.2c0.3,0.8,0.5,1.7,0.6,2.6c0.1,0.9,0,1.9-0.1,2.8s-0.4,1.8-0.8,2.6
			c-0.4,0.8-0.9,1.5-1.5,2.1C539.7,291.6,539,292,538.2,292.2z M537.6,290.7c0.7-0.1,1.2-0.4,1.7-0.8c0.5-0.4,0.8-0.9,1.1-1.5
			c0.3-0.6,0.5-1.3,0.6-2c0.1-0.7,0.1-1.5,0.1-2.2c0-0.7-0.2-1.4-0.4-2.1c-0.2-0.7-0.5-1.3-0.9-1.8s-0.8-0.9-1.3-1.2
			s-1.1-0.4-1.7-0.4c-0.6,0-1.1,0.2-1.6,0.6c-0.5,0.4-0.8,0.8-1.1,1.4c-0.3,0.6-0.5,1.2-0.7,1.9c-0.1,0.7-0.2,1.4-0.1,2.2
			c0,0.8,0.2,1.5,0.4,2.3c0.2,0.8,0.5,1.4,0.9,2c0.4,0.6,0.8,1,1.3,1.4S537,290.8,537.6,290.7z"/>
		<path id="XMLID_257_" class="st1" d="M553.3,287.8c0.1,0.9,0.1,1.8-0.1,2.4c-0.2,0.7-0.5,1.3-0.9,1.7c-0.4,0.4-0.9,0.8-1.5,1
			c-0.6,0.2-1.2,0.3-1.9,0.3c-0.4,0-0.9-0.1-1.3-0.2s-0.9-0.2-1.3-0.4s-0.8-0.3-1.2-0.5s-0.7-0.3-1-0.4l0.4-2.1
			c0.2,0.1,0.4,0.3,0.8,0.5c0.3,0.2,0.7,0.4,1.1,0.6c0.4,0.2,0.9,0.4,1.3,0.6c0.5,0.2,0.9,0.3,1.4,0.3c0.4,0,0.8-0.1,1.2-0.2
			c0.4-0.1,0.7-0.4,1-0.7c0.3-0.3,0.5-0.7,0.6-1.1c0.1-0.4,0.2-1,0.1-1.6c-0.1-0.5-0.2-0.9-0.5-1.2c-0.3-0.3-0.6-0.7-1-0.9
			c-0.4-0.3-0.9-0.5-1.3-0.8c-0.5-0.2-1-0.5-1.5-0.7c-0.5-0.2-1-0.5-1.4-0.7c-0.4-0.3-0.8-0.6-1.1-0.9c-0.5-0.5-0.8-1.1-0.9-1.7
			s-0.1-1.2,0.1-1.8c0.2-0.6,0.4-1.1,0.8-1.6s0.8-0.9,1.3-1.2c0.6-0.3,1.2-0.5,1.8-0.5c0.6,0,1.1,0.1,1.6,0.4c0.5,0.3,1,0.6,1.4,1.1
			c0.4,0.5,0.8,1,1.1,1.7l-1.3,0.9c-0.2-0.4-0.4-0.8-0.7-1.2c-0.3-0.4-0.6-0.8-0.9-1.1c-0.3-0.3-0.7-0.5-1.1-0.5s-0.8,0.1-1.3,0.5
			c-0.3,0.2-0.5,0.5-0.7,0.8s-0.3,0.7-0.4,1s-0.1,0.7,0,1.1c0.1,0.4,0.2,0.7,0.5,1c0.2,0.3,0.5,0.5,0.8,0.7c0.3,0.2,0.6,0.4,1,0.5
			c0.3,0.2,0.7,0.3,1,0.4s0.6,0.3,0.9,0.5c0.4,0.2,0.7,0.4,1.1,0.6c0.3,0.2,0.7,0.5,1,0.8c0.3,0.3,0.5,0.7,0.8,1.1
			C553,286.8,553.2,287.3,553.3,287.8z"/>
		<path id="XMLID_260_" class="st1" d="M556.7,279.3c-0.4,0-0.7,0-1-0.2c-0.2-0.2-0.4-0.4-0.5-0.6s-0.2-0.5-0.1-0.8
			c0-0.3,0.1-0.6,0.2-0.8c0.1-0.2,0.3-0.5,0.6-0.6s0.6-0.2,0.9-0.2c0.3,0,0.6,0.1,0.8,0.2c0.2,0.2,0.4,0.4,0.5,0.6
			c0.1,0.2,0.2,0.5,0.2,0.8s0,0.5-0.2,0.8s-0.3,0.4-0.5,0.6S557.1,279.3,556.7,279.3z M555.7,280.8l1.8,0.3l0.3,11.4l-2.1,0V280.8z"
			/>
		<path id="XMLID_263_" class="st1" d="M560.8,276.4l1.5-0.1l-0.2,8.2c0.2-0.3,0.4-0.6,0.6-0.8c0.3-0.3,0.6-0.5,0.9-0.7
			s0.7-0.4,1.1-0.5c0.4-0.1,0.8-0.2,1.1-0.1c0.6,0,1,0.2,1.5,0.5c0.4,0.3,0.8,0.7,1.1,1.1c0.3,0.4,0.6,0.9,0.7,1.4
			c0.2,0.5,0.3,1,0.3,1.5c0,0.8-0.1,1.5-0.3,2.1c-0.2,0.6-0.6,1.2-1,1.7c-0.4,0.5-0.9,0.8-1.4,1.1c-0.5,0.3-1,0.4-1.6,0.4
			c-0.6,0-1,0-1.4-0.2c-0.4-0.1-0.7-0.3-0.9-0.5c-0.3-0.2-0.5-0.4-0.6-0.6c-0.2-0.2-0.4-0.5-0.5-0.7l0,2.3l-1.6-0.2L560.8,276.4z
			 M562.3,287.2c0,0.5,0.1,1,0.2,1.5s0.4,0.8,0.6,1.1c0.3,0.3,0.6,0.6,0.9,0.7s0.6,0.3,0.9,0.3c0.3,0,0.6-0.1,0.9-0.2
			c0.3-0.1,0.7-0.4,1-0.7s0.6-0.7,0.8-1.1s0.3-0.9,0.4-1.5c0-0.4,0-0.8-0.1-1.2c-0.1-0.4-0.3-0.8-0.5-1.2s-0.5-0.7-0.9-0.9
			s-0.8-0.4-1.2-0.4c-0.4,0-0.8,0.1-1.1,0.4c-0.4,0.2-0.7,0.6-0.9,0.9c-0.3,0.4-0.5,0.7-0.6,1.1S562.3,286.9,562.3,287.2z"/>
		<path id="XMLID_267_" class="st1" d="M571.1,291.5c0-0.5,0-1.2,0-2.1c0-0.8,0-1.8,0-2.8c0-1,0-2.1,0-3.3c0-1.1,0-2.2-0.1-3.4
			c0-1.1-0.1-2.2-0.2-3.1l1.5-0.2l0.6,16.1l-2-0.2C571.1,292.4,571.1,292,571.1,291.5z"/>
		<path id="XMLID_269_" class="st1" d="M579.9,292.3c-0.7,0-1.3-0.1-1.8-0.4c-0.5-0.3-1-0.6-1.4-1.1c-0.4-0.4-0.7-1-1-1.6
			s-0.5-1.2-0.7-1.9c-0.2-0.7-0.3-1.3-0.4-2s-0.1-1.4-0.1-2c0-1.2,0.3-2.3,0.7-3.2c0.4-0.9,1-1.7,1.7-2.4c0.7-0.6,1.4-1.1,2.2-1.4
			c0.8-0.3,1.6-0.4,2.4-0.3c0.6,0.1,1.1,0.2,1.7,0.5c0.5,0.3,1,0.7,1.4,1.2s0.7,1.1,1,1.9c0.2,0.7,0.4,1.6,0.4,2.6l-9.6-0.2
			c-0.2,1.2-0.2,2.4-0.1,3.4s0.3,1.9,0.6,2.7c0.3,0.7,0.7,1.3,1.3,1.8c0.5,0.4,1.2,0.7,1.9,0.8c0.3,0,0.7,0,1.1-0.1s0.8-0.3,1.2-0.6
			c0.4-0.3,0.8-0.7,1.1-1.3c0.3-0.5,0.5-1.3,0.6-2.1l2.1,0.2c-0.2,1.1-0.5,1.9-0.9,2.6s-0.8,1.3-1.4,1.7s-1.1,0.7-1.8,0.9
			S580.6,292.3,579.9,292.3z M576.6,280.4c1.3,0,2.6,0.1,3.8,0s2.4,0,3.7,0.1c0-0.3-0.1-0.6-0.2-0.9c-0.1-0.3-0.3-0.6-0.6-0.9
			c-0.3-0.3-0.6-0.5-0.9-0.7c-0.4-0.2-0.7-0.3-1.1-0.3c-0.5,0-0.9,0-1.4,0.1c-0.5,0.1-1,0.3-1.4,0.6c-0.4,0.3-0.8,0.6-1.1,0.9
			S576.7,280,576.6,280.4z"/>
	</g>
</g>
<g id="lineas">
	<g id="XMLID_259_">
		<path id="XMLID_63_" class="st1" d="M139.1,77.1c0,0-1.4-0.3-4-0.9c-1.3-0.3-2.8-0.7-4.5-1.1c-1.7-0.4-3.7-0.9-5.9-1.5
			c-2.1-0.6-4.5-1.2-6.9-1.9c-2.5-0.7-5-1.5-7.7-2.3c-2.6-0.8-5.4-1.7-8.2-2.6c-2.8-0.9-5.6-1.9-8.4-2.9c-2.8-1-5.6-1.9-8.4-2.9
			c-2.8-0.9-5.5-1.9-8-3c-2.5-1.1-4.9-2.3-7.2-3.6c-2.2-1.2-4.3-2.5-6.2-3.7c-1.9-1.2-3.6-2.4-5-3.5c-1.5-1.1-2.7-2.1-3.7-2.9
			c-1-0.9-1.8-1.6-2.3-2c-0.5-0.5-0.8-0.8-0.8-0.8l0.4-0.8c0,0,0.4,0.1,1.1,0.2c0.7,0.1,1.7,0.3,3,0.7c1.3,0.3,2.8,0.7,4.6,1.2
			c1.7,0.5,3.7,1.1,5.8,1.8c2.1,0.7,4.4,1.5,6.7,2.4c2.4,0.9,4.8,1.9,7.3,3c2.5,1.1,5,2.5,7.6,3.8c2.5,1.4,5.2,2.7,7.8,3.9
			c5.3,2.5,10.7,4.9,15.7,7.1c5,2.2,9.7,4.3,13.8,6c4.1,1.7,7.5,3.1,9.8,4.1c2.4,1,3.8,1.6,3.8,1.6L139.1,77.1z"/>
	</g>
	<g id="XMLID_250_">
		<path id="XMLID_61_" class="st1" d="M128.5,162.4c0,0-4.5,0-11.3-0.2c-3.4-0.1-7.4-0.2-11.6-0.4c-4.2-0.1-8.8-0.4-13.3-0.6
			c-2.3-0.1-4.5-0.2-6.8-0.2c-2.2,0-4.4-0.1-6.5-0.3c-2.1-0.2-4.1-0.6-6-1c-1.9-0.4-3.7-0.9-5.4-1.3c-1.7-0.5-3.2-1-4.5-1.4
			c-1.3-0.5-2.5-1-3.4-1.4c-0.9-0.4-1.7-0.8-2.2-1c-0.5-0.3-0.8-0.4-0.8-0.4l0.1-0.8c0,0,0.3-0.1,0.8-0.2c0.5-0.1,1.4-0.3,2.4-0.5
			c1-0.2,2.2-0.4,3.6-0.6c1.4-0.2,3-0.3,4.7-0.4c1.7-0.1,3.6-0.1,5.5-0.1c2,0,4,0.1,6.1,0.4c2.1,0.3,4.3,0.7,6.4,1.2
			c2.2,0.5,4.4,0.9,6.6,1.3c4.5,0.8,8.9,1.6,13.1,2.4c4.2,0.8,8.1,1.6,11.4,2.3c6.7,1.4,11.1,2.4,11.1,2.4L128.5,162.4z"/>
	</g>
	<g id="XMLID_235_">
		<path id="XMLID_59_" class="st1" d="M136.5,231.1c0,0-3.6,3.2-9.1,8.1c-2.7,2.4-5.9,5.3-9.2,8.3c-3.3,3.1-6.9,6.3-10.5,9.7
			c-1.8,1.7-3.5,3.4-5.1,5.1c-1.7,1.7-3.3,3.4-5,4.9c-1.7,1.5-3.4,2.9-5.1,4.1c-1.7,1.3-3.3,2.4-4.8,3.4c-1.5,1-3,1.9-4.3,2.7
			c-1.3,0.8-2.5,1.4-3.4,1.9c-1,0.5-1.8,0.9-2.3,1.1c-0.5,0.3-0.9,0.4-0.9,0.4l-0.6-0.6c0,0,0.1-0.3,0.4-0.8
			c0.3-0.5,0.7-1.3,1.3-2.3c1.1-1.9,2.8-4.5,5.2-7.4c1.2-1.5,2.5-3,3.9-4.5c1.4-1.6,3-3.1,4.7-4.6c1.7-1.5,3.7-2.9,5.6-4.3
			c2-1.4,4-2.8,6-4.3c2-1.4,4-2.9,5.9-4.3c1.9-1.4,3.9-2.7,5.8-4.1c1.9-1.3,3.7-2.5,5.5-3.7c1.8-1.1,3.4-2.2,5-3.2
			c1.5-1,3-1.9,4.3-2.6c1.3-0.8,2.4-1.5,3.3-2c1.8-1.1,2.9-1.7,2.9-1.7L136.5,231.1z"/>
	</g>
	<g id="XMLID_231_">
		<path id="XMLID_56_" class="st1" d="M572.1,97.8l-4,4.8l-1-1.3l11.3-8l11.3-8c3.8-2.6,7.6-5.3,11.4-7.9l11.4-7.8
			c3.8-2.6,7.5-5.4,11.3-8c3.8-2.6,7.7-5,11.8-7.2c2-1.1,4.1-2.2,6.1-3.3c2.1-1.1,4.1-2.1,6.2-3.1c2.1-1,4.2-1.9,6.4-2.8
			c2.2-0.9,4.3-1.7,6.6-2.5l0.5,0.7c-1.6,1.7-3.4,3.3-5.1,4.9c-1.7,1.6-3.5,3.1-5.3,4.6c-1.8,1.5-3.6,2.9-5.5,4.3
			c-1.8,1.4-3.7,2.8-5.6,4.1c-3.7,2.7-7.6,5.2-11.6,7.5c-4,2.3-8.1,4.4-12.1,6.7l-12,6.9c-4,2.3-8,4.6-12,6.8l-12.1,6.8l-12.1,6.7
			l-5.9,3.2l4.8-4.5l4.6-4.3L572.1,97.8z"/>
	</g>
	<g id="XMLID_58_">
		<path id="XMLID_54_" class="st1" d="M569.2,161.9c0,0,1.5-0.4,4.1-1c1.3-0.3,2.9-0.7,4.8-1.1c1.8-0.4,3.9-0.9,6.2-1.3
			c2.3-0.5,4.7-1,7.4-1.5c2.6-0.5,5.4-1,8.2-1.5c2.9-0.5,5.8-1,8.9-1.4c3-0.5,6.1-0.9,9.2-1.3c3.1-0.4,6.2-0.8,9.2-1.3
			c3-0.5,6-0.8,8.9-1c2.9-0.2,5.7-0.2,8.4-0.1c2.7,0.1,5.2,0.2,7.5,0.5c2.3,0.2,4.5,0.5,6.4,0.8c1.9,0.3,3.5,0.6,4.9,0.9
			c1.4,0.3,2.3,0.6,3,0.8c0.7,0.2,1,0.3,1,0.3v0.9c0,0-0.2,0.1-1,0.3c-0.7,0.2-1.7,0.5-3,0.8c-1.3,0.3-2.9,0.7-4.8,1
			c-1.9,0.3-3.9,0.7-6.2,1c-2.3,0.3-4.8,0.7-7.4,0.9c-2.6,0.3-5.4,0.6-8.2,0.7c-2.9,0.1-5.8,0.1-8.9,0.1c-3,0-6.1,0-9.2,0.1
			c-3.1,0.1-6.1,0.2-9.2,0.4c-3,0.2-6,0.3-8.9,0.5c-5.8,0.4-11.1,0.7-15.7,1c-4.6,0.3-8.4,0.7-11.1,0.9c-2.7,0.2-4.2,0.4-4.2,0.4
			L569.2,161.9z"/>
	</g>
	<g id="XMLID_28_">
		<path id="XMLID_65_" class="st1" d="M560.6,204.1c0,0,1.1,0.9,3.1,2.5c1,0.8,2.2,1.8,3.6,2.9c1.4,1.1,3,2.3,4.7,3.6
			c1.7,1.3,3.6,2.7,5.6,4.2c2,1.5,4.2,3,6.4,4.5c2.2,1.5,4.6,3.1,6.9,4.6c2.4,1.6,4.8,3.1,7.2,4.6c2.5,1.5,5,2.9,7.5,4.2
			c2.5,1.3,5,2.6,7.3,4c2.3,1.3,4.5,2.8,6.6,4.1c2.1,1.4,4,2.7,5.8,3.9c1.8,1.3,3.4,2.4,4.8,3.5c1.4,1.1,2.7,2.1,3.7,2.9
			c1,0.8,1.8,1.5,2.3,2c0.5,0.5,0.8,0.7,0.8,0.7l-0.4,0.8c0,0-0.4,0-1.1-0.1c-0.7-0.1-1.7-0.3-3-0.6c-1.3-0.3-2.8-0.6-4.6-1.1
			c-1.8-0.5-3.7-1.1-5.8-1.9c-1-0.4-2.1-0.8-3.2-1.3c-1.1-0.5-2.2-1-3.4-1.5c-2.3-1-4.7-2.3-7.1-3.7c-2.4-1.5-4.7-3.1-7-4.9
			c-2.3-1.8-4.7-3.5-7-5.3c-2.3-1.8-4.7-3.6-6.9-5.4c-2.3-1.8-4.4-3.7-6.5-5.5c-2-1.9-4.1-3.6-5.9-5.4c-1.8-1.7-3.6-3.4-5.1-5
			c-1.6-1.5-3-3-4.2-4.3c-1.2-1.3-2.3-2.4-3.1-3.4c-1.7-1.9-2.7-3-2.7-3L560.6,204.1z"/>
	</g>
</g>
</svg>
