<?xml version="1.0" encoding="utf-8"?>
<!-- Generator: Adobe Illustrator 19.0.0, SVG Export Plug-In . SVG Version: 6.00 Build 0)  -->
<svg version="1.1" xmlns="http://www.w3.org/2000/svg" xmlns:xlink="http://www.w3.org/1999/xlink" x="0px" y="0px"
	 viewBox="0 0 378.2 236.6" style="enable-background:new 0 0 378.2 236.6;" xml:space="preserve">
<style type="text/css">
	.st0{fill:#2DA514;}
	.st1{fill:none;stroke:#FFFFFF;stroke-linecap:round;stroke-miterlimit:10;}
	.st2{fill:none;stroke:#FFFFFF;stroke-linecap:round;stroke-miterlimit:10;stroke-dasharray:12,12;}
</style>
<g id="caja">
	<g id="XMLID_28_">
		<path id="XMLID_12_" class="st0" d="M244.4,4c6.1-9.8,23.1-0.3,26.7,14.5c3.2,12.7,15.5,70.9,31.3,82.7c15.8,11.8,33,5.3,57.4,8.1
			c24.5,2.8,17.4,121.3,17.4,121.3C247,234.9,17.5,246.9,0,216.6l1.6-103c72.7-44.9,156.5,37.9,239.1-79
			C256.9,11.6,242.8,6.5,244.4,4z"/>
	</g>
</g>
<g id="linea">
	<g id="XMLID_2_">
		<g id="XMLID_14_">
			<line id="XMLID_17_" class="st1" x1="26" y1="216.5" x2="32" y2="216.5"/>
			<line id="XMLID_16_" class="st2" x1="44" y1="216.5" x2="340" y2="216.5"/>
			<line id="XMLID_15_" class="st1" x1="345" y1="216.5" x2="351" y2="216.5"/>
		</g>
	</g>
</g>
</svg>
