<?xml version="1.0" encoding="utf-8"?>
<!-- Generator: Adobe Illustrator 19.0.0, SVG Export Plug-In . SVG Version: 6.00 Build 0)  -->
<svg version="1.1" id="Capa_1" xmlns="http://www.w3.org/2000/svg" xmlns:xlink="http://www.w3.org/1999/xlink" x="0px" y="0px"
	 viewBox="0 0 171.8 24.6" style="enable-background:new 0 0 171.8 24.6;" xml:space="preserve">
<style type="text/css">
	.st0{fill:#FFFFFF;}
	.st1{fill:#D4145A;}
</style>
<path id="XMLID_3888_" class="st0" d="M9.2,3.2l-8.7,13c-2.9,4.3,6.2,8.4,18.4,8.4h134.4c0,0,41-22.2,0.9-24.1S9.2,3.2,9.2,3.2z"/>
<path id="XMLID_3887_" class="st1" d="M134.3,6.8l13.1,5.8c0,0-12.9,7.3-13.1,6.8C134.1,18.8,134.3,6.8,134.3,6.8z"/>
<g id="XMLID_3552_">
	<path id="XMLID_3570_" class="st1" d="M46.5,18.6c-0.1,0-0.2,0-0.3,0c-0.1,0-0.2,0-0.3,0c-1,0-1.9-0.2-2.7-0.6
		c-0.8-0.4-1.5-0.9-2-1.5s-1-1.3-1.3-2.1c-0.3-0.8-0.4-1.5-0.4-2.3c0-0.6,0.1-1.3,0.3-1.9c0.2-0.6,0.6-1.2,1-1.7
		c0.4-0.5,1-1,1.7-1.4s1.4-0.7,2.3-0.9c0.3-0.1,0.6-0.1,1-0.1c0.5,0,1.1,0.1,1.6,0.3c0.5,0.2,1,0.4,1.4,0.7c0.4,0.3,0.8,0.7,1.1,1.1
		c0.3,0.4,0.6,0.9,0.7,1.3L48.2,10c-0.2-0.4-0.4-0.7-0.6-1c-0.2-0.3-0.4-0.5-0.6-0.6c-0.2-0.1-0.4-0.2-0.6-0.3C46.1,8,45.9,8,45.7,8
		c-0.1,0-0.2,0-0.3,0c-0.1,0-0.2,0-0.3,0c-0.3,0-0.6,0.1-0.8,0.3c-0.3,0.1-0.5,0.3-0.8,0.5C43.2,9,43,9.2,42.8,9.5
		c-0.2,0.3-0.4,0.5-0.5,0.8c-0.1,0.3-0.2,0.6-0.3,1c-0.1,0.3-0.1,0.7-0.1,1c0,0.6,0.1,1.1,0.3,1.7s0.5,1,0.9,1.4s0.9,0.8,1.4,1
		c0.6,0.2,1.2,0.4,2,0.3c0.3,0,0.6-0.2,0.9-0.3c0.3-0.2,0.5-0.4,0.8-0.6c0.2-0.3,0.4-0.5,0.6-0.8s0.3-0.6,0.3-0.9l2.6,0.9
		c-0.1,0.5-0.4,0.9-0.7,1.3c-0.3,0.4-0.7,0.8-1.1,1.1c-0.4,0.3-0.9,0.6-1.5,0.8C47.7,18.4,47.1,18.5,46.5,18.6L46.5,18.6z"/>
	<path id="XMLID_3567_" class="st1" d="M53.3,12.6c0-0.5,0.1-1,0.2-1.5s0.3-1,0.5-1.5c0.2-0.5,0.5-0.9,0.8-1.4
		c0.3-0.4,0.7-0.8,1.1-1.1c0.4-0.3,0.9-0.6,1.4-0.8c0.5-0.2,1.1-0.3,1.7-0.3c0.5,0,1,0.1,1.4,0.2c0.5,0.2,0.9,0.4,1.3,0.7
		s0.8,0.6,1.1,1c0.3,0.4,0.6,0.8,0.9,1.2c0.2,0.4,0.5,0.9,0.6,1.4c0.2,0.5,0.3,1,0.4,1.5c0,0.2,0,0.4,0.1,0.5c0,0.2,0,0.4,0,0.6
		c0,0.6-0.1,1.2-0.3,1.8c-0.2,0.6-0.5,1.1-0.9,1.6c-0.4,0.5-0.9,0.9-1.4,1.2s-1.3,0.6-2,0.7c-0.2,0-0.3,0-0.5,0.1
		c-0.2,0-0.4,0-0.5,0c-1,0-1.8-0.2-2.5-0.5c-0.7-0.3-1.3-0.8-1.8-1.4c-0.5-0.6-0.8-1.2-1.1-1.9C53.4,14.1,53.3,13.4,53.3,12.6z
		 M59.1,8.1c-0.6,0-1.2,0.1-1.6,0.4c-0.5,0.3-0.8,0.6-1.1,1c-0.3,0.4-0.5,0.9-0.7,1.4c-0.1,0.5-0.2,1-0.2,1.4c0,0.6,0.1,1.1,0.3,1.7
		c0.2,0.6,0.4,1.1,0.8,1.5c0.3,0.4,0.8,0.8,1.3,1c0.5,0.2,1.1,0.4,1.7,0.3c0.5,0,1-0.2,1.3-0.4c0.4-0.2,0.7-0.5,1-0.9
		c0.3-0.4,0.4-0.8,0.6-1.2c0.1-0.5,0.2-1,0.2-1.5c0-0.1,0-0.2,0-0.2s0-0.2,0-0.2c0-0.5-0.1-1.1-0.3-1.6c-0.2-0.5-0.4-1-0.7-1.4
		c-0.3-0.4-0.6-0.7-1-1C60,8.3,59.6,8.1,59.1,8.1z"/>
	<path id="XMLID_3565_" class="st1" d="M66.8,18.7L66.6,5.5l6,6.2c0.4-0.5,0.9-1,1.4-1.5c0.5-0.5,1-1.1,1.5-1.6s1-1.1,1.5-1.6
		c0.5-0.5,0.9-1,1.3-1.4l0.4,13.7l-2.2-0.2L76,10.9c-0.5,0.7-1.1,1.4-1.7,2.1c-0.6,0.7-1.1,1.4-1.6,2l-4-4.2c0,1.3,0.1,2.7,0.1,4.2
		c0,1.4,0.1,2.8,0.1,4.1L66.8,18.7z"/>
	<path id="XMLID_3562_" class="st1" d="M82.4,6.3v0.3c0.1,0,0.2,0,0.3-0.1c0.3-0.1,0.7-0.1,1.1-0.1c0.4,0,0.7,0,1.1,0
		c0.5,0,1,0,1.5,0.1c0.5,0.1,1,0.2,1.4,0.4C88.2,7,88.6,7.3,89,7.6c0.4,0.3,0.7,0.6,0.9,1.1c0.4,0.6,0.5,1.2,0.5,1.9
		c0,0.5-0.1,0.9-0.3,1.4c-0.2,0.4-0.5,0.8-0.9,1.2c-0.4,0.3-0.9,0.6-1.5,0.8c-0.6,0.2-1.3,0.3-2.1,0.3c-0.6,0-1.1-0.1-1.7-0.2
		c-0.5-0.1-1-0.3-1.5-0.6c0,0.9,0,1.8,0.1,2.8c0,1,0,1.9,0.1,2.7l-2.4,0.2L80.4,6.3L82.4,6.3z M83.1,8.2c-0.1,0-0.1,0-0.2,0
		c0,0-0.1,0-0.1,0c0,0-0.1,0-0.1,0c0,0-0.1,0-0.2,0c0,0.4,0,0.8,0.1,1.1c0,0.4,0,0.8,0,1.1c0.1,0.3,0.2,0.5,0.4,0.7
		c0.2,0.2,0.5,0.4,0.8,0.6c0.3,0.2,0.6,0.3,1,0.4s0.7,0.1,1.1,0.1c0.4,0,0.8-0.1,1.1-0.2c0.3-0.1,0.6-0.2,0.8-0.4
		c0.2-0.2,0.3-0.4,0.4-0.6c0.1-0.2,0.1-0.4,0.1-0.7c0-0.2,0-0.4-0.1-0.6c-0.1-0.2-0.2-0.4-0.3-0.6c-0.2-0.3-0.4-0.5-0.6-0.6
		c-0.2-0.2-0.5-0.3-0.7-0.4c-0.3-0.1-0.5-0.2-0.8-0.2c-0.3,0-0.6-0.1-0.9-0.1c-0.3,0-0.6,0-0.9,0S83.4,8.2,83.1,8.2z"/>
	<path id="XMLID_3559_" class="st1" d="M93.7,6.3v0.1c0.5-0.1,1-0.2,1.6-0.2c0.5-0.1,1-0.1,1.5-0.1c0.6,0,1.2,0.1,1.7,0.2
		c0.5,0.1,1,0.3,1.4,0.5c0.4,0.2,0.7,0.6,0.9,1c0.2,0.4,0.3,0.9,0.3,1.5c0,0.6-0.2,1.2-0.5,1.7c-0.3,0.5-0.7,1-1.3,1.4
		c-0.5,0.4-1.1,0.7-1.8,1c-0.7,0.3-1.3,0.5-2.1,0.7c0.5,0.3,1.1,0.6,1.6,0.9c0.6,0.3,1.1,0.6,1.7,0.9c0.6,0.3,1.1,0.6,1.6,0.9
		s1.1,0.6,1.6,0.8l-1.8,1.6L94,15.3c0,0.6,0,1.2,0,1.8c0,0.6,0,1.2,0,1.8l-2.5,0.2l0.1-12.7L93.7,6.3z M98.9,9.3
		c0-0.3,0-0.5-0.1-0.7c-0.1-0.2-0.3-0.3-0.5-0.5c-0.2-0.1-0.5-0.2-0.8-0.2c-0.3,0-0.7-0.1-1-0.1c-0.5,0-0.9,0-1.4,0.1
		c-0.5,0.1-0.9,0.2-1.3,0.3c0,0.4,0,0.8,0.1,1.1c0,0.4,0,0.7,0,1c0,0.3,0,0.7,0,1c0,0.4,0,0.7,0.1,1.1c0.5-0.1,1.1-0.2,1.7-0.4
		c0.6-0.2,1.1-0.4,1.5-0.6s0.9-0.6,1.2-0.9C98.7,10.2,98.9,9.7,98.9,9.3z"/>
	<path id="XMLID_3556_" class="st1" d="M108.7,5.7l5.9,13.3l-2.5,0.1l-1.1-2.5c-0.8,0.1-1.7,0.2-2.5,0.2c-0.8,0.1-1.6,0.2-2.5,0.2
		c-0.1,0.3-0.3,0.7-0.5,1.1c-0.2,0.4-0.3,0.7-0.4,1l-2.6-0.3L108.7,5.7z M106.9,15.2c0.6,0,1.1-0.1,1.6-0.1s1.1-0.1,1.8-0.1
		c-0.2-0.4-0.3-0.7-0.4-1c-0.1-0.3-0.2-0.6-0.4-0.9c-0.1-0.3-0.3-0.6-0.4-0.9c-0.1-0.3-0.3-0.7-0.5-1.1L106.9,15.2z"/>
	<path id="XMLID_3553_" class="st1" d="M117.9,6.3v0.1c0.5-0.1,1-0.2,1.6-0.2c0.5-0.1,1-0.1,1.5-0.1c0.6,0,1.2,0.1,1.7,0.2
		c0.5,0.1,1,0.3,1.4,0.5c0.4,0.2,0.7,0.6,0.9,1c0.2,0.4,0.3,0.9,0.3,1.5c0,0.6-0.2,1.2-0.5,1.7c-0.3,0.5-0.7,1-1.3,1.4
		s-1.1,0.7-1.8,1c-0.7,0.3-1.3,0.5-2.1,0.7c0.5,0.3,1.1,0.6,1.6,0.9c0.6,0.3,1.1,0.6,1.7,0.9c0.6,0.3,1.1,0.6,1.6,0.9
		c0.5,0.3,1.1,0.6,1.6,0.8l-1.8,1.6l-6.1-3.9c0,0.6,0,1.2,0,1.8c0,0.6,0,1.2,0,1.8l-2.5,0.2l0.1-12.7L117.9,6.3z M123.1,9.3
		c0-0.3,0-0.5-0.1-0.7c-0.1-0.2-0.3-0.3-0.5-0.5c-0.2-0.1-0.5-0.2-0.8-0.2c-0.3,0-0.7-0.1-1-0.1c-0.5,0-0.9,0-1.4,0.1
		c-0.5,0.1-0.9,0.2-1.3,0.3c0,0.4,0,0.8,0.1,1.1c0,0.4,0,0.7,0,1c0,0.3,0,0.7,0,1c0,0.4,0,0.7,0.1,1.1c0.5-0.1,1.1-0.2,1.7-0.4
		c0.6-0.2,1.1-0.4,1.5-0.6c0.5-0.3,0.9-0.6,1.2-0.9S123,9.7,123.1,9.3z"/>
</g>
</svg>
