<?xml version="1.0" encoding="utf-8"?>
<!-- Generator: Adobe Illustrator 19.0.0, SVG Export Plug-In . SVG Version: 6.00 Build 0)  -->
<svg version="1.1" id="botonuso" xmlns="http://www.w3.org/2000/svg" xmlns:xlink="http://www.w3.org/1999/xlink" x="0px" y="0px"
	 viewBox="-7 28.3 34 49.7" style="enable-background:new -7 28.3 34 49.7;" xml:space="preserve">
<style type="text/css">
	.st0{fill:#D4145A;}
	.st1{fill:#FFFFFF;}
	.st2{fill:#D9E021;}
	.st3{fill:none;stroke:#D9A421;stroke-linecap:round;stroke-miterlimit:10;}
</style>
<g id="XMLID_291_">
	<path id="XMLID_304_" class="st0" d="M10.4,73.2h-0.3c-6.2,0-11.3-5-11.3-11.3V44.4c0-6.2,5-11.3,11.3-11.3h0.3
		c6.2,0,11.3,5,11.3,11.3v17.4C21.7,68.1,16.6,73.2,10.4,73.2z"/>
	<path id="XMLID_293_" class="st1" d="M10.4,70.3h-0.2c-4.5,0-8.2-3.7-8.2-8.2V44c0-4.5,3.7-8.2,8.2-8.2h0.2c4.5,0,8.2,3.7,8.2,8.2
		v18.1C18.6,66.6,14.9,70.3,10.4,70.3z"/>
	<ellipse id="XMLID_292_" class="st2" cx="9.7" cy="46.8" rx="11.4" ry="6.2"/>
	<line id="XMLID_20_" class="st3" x1="4.7" y1="50" x2="4.7" y2="43"/>
	<line id="XMLID_30_" class="st3" x1="9.7" y1="50" x2="9.7" y2="43"/>
	<line id="XMLID_265_" class="st3" x1="14.7" y1="50" x2="14.7" y2="43"/>
</g>
</svg>
