<?xml version="1.0" encoding="utf-8"?>
<!-- Generator: Adobe Illustrator 19.0.0, SVG Export Plug-In . SVG Version: 6.00 Build 0)  -->
<svg version="1.1" id="Capa_1" xmlns="http://www.w3.org/2000/svg" xmlns:xlink="http://www.w3.org/1999/xlink" x="0px" y="0px"
	 viewBox="0 0 23.9 20.3" style="enable-background:new 0 0 23.9 20.3;" xml:space="preserve">
<style type="text/css">
	.st0{fill:#D4145A;}
	.st1{fill:#FFFFFF;}
</style>
<ellipse id="XMLID_5823_" class="st0" cx="11.9" cy="10.2" rx="11.9" ry="10.2"/>
<g id="XMLID_5821_">
	<g id="XMLID_38_">
		<path id="XMLID_62_" class="st1" d="M10.2,5.7c0.4,3.1,0.5,6.2,0.2,9.3c-0.2,1.9,2.8,1.9,3,0c0.3-3.4,0.1-6.7-0.3-10.1
			C12.8,3,9.9,3.8,10.2,5.7L10.2,5.7z"/>
	</g>
</g>
<g id="XMLID_5820_">
	<g id="XMLID_33_">
		<path id="XMLID_37_" class="st1" d="M4.7,11.1c5.1,0.3,10.2,0.2,15.3-0.3c1.9-0.2,1.9-3.2,0-3C14.9,8.3,9.8,8.4,4.7,8.1
			C2.7,8,2.7,11,4.7,11.1L4.7,11.1z"/>
	</g>
</g>
</svg>
