<?xml version="1.0" encoding="utf-8"?>
<!-- Generator: Adobe Illustrator 19.0.0, SVG Export Plug-In . SVG Version: 6.00 Build 0)  -->
<svg version="1.1" id="boton_x5F_buscar_x5F_menú_x5F_01"
	 xmlns="http://www.w3.org/2000/svg" xmlns:xlink="http://www.w3.org/1999/xlink" x="0px" y="0px" viewBox="0 0 238.4 84.5"
	 style="enable-background:new 0 0 238.4 84.5;" xml:space="preserve">
<style type="text/css">
	.st0{fill:#00BCAD;}
	.st1{fill:#FFFFFF;}
	.st2{font-family:'KGShakeitOffChunky';}
	.st3{font-size:15.367px;}
</style>
<path id="XMLID_1190_" class="st0" d="M226.4,84.5H12c-6.6,0-12-5.4-12-12V12C0,5.4,5.4,0,12,0h214.4c6.6,0,12,5.4,12,12v60.5
	C238.4,79.1,233,84.5,226.4,84.5z"/>
<text id="XMLID_1189_" transform="matrix(1 0 0 1 119.7784 48.7816)" class="st1 st2 st3">Buscar</text>
<path id="XMLID_1186_" class="st1" d="M48.7,61.3l11.9-11.9c-2.9-4.1-4.3-8.8-4.3-13.8c0-3.3,0.6-6.5,1.9-9.5c1.3-3,3-5.6,5.2-7.8
	c2.2-2.2,4.8-3.9,7.8-5.2s6.2-1.9,9.5-1.9c3.3,0,6.5,0.6,9.5,1.9s5.6,3,7.8,5.2c2.2,2.2,3.9,4.8,5.2,7.8c1.3,3,1.9,6.2,1.9,9.5
	c0,3.3-0.6,6.5-1.9,9.5c-1.3,3-3,5.6-5.2,7.8c-2.2,2.2-4.8,3.9-7.8,5.2S84,60,80.7,60c-5.1,0-9.7-1.4-13.8-4.3L54.9,67.5
	c-0.8,0.9-1.9,1.3-3.1,1.3c-1.2,0-2.2-0.4-3.1-1.3c-0.9-0.9-1.3-1.9-1.3-3.1C47.4,63.2,47.8,62.1,48.7,61.3z M69.7,46.5
	c3,3,6.7,4.6,11,4.6s7.9-1.5,11-4.6s4.6-6.7,4.6-11s-1.5-7.9-4.6-11S85,20,80.7,20s-7.9,1.5-11,4.6s-4.6,6.7-4.6,11
	S66.7,43.5,69.7,46.5z"/>
</svg>
