<?xml version="1.0" encoding="utf-8"?>
<!-- Generator: Adobe Illustrator 19.0.0, SVG Export Plug-In . SVG Version: 6.00 Build 0)  -->
<svg version="1.1" id="boton_x5F_nuevo_x5F_menú_x5F_01"
	 xmlns="http://www.w3.org/2000/svg" xmlns:xlink="http://www.w3.org/1999/xlink" x="0px" y="0px" viewBox="0 0 238.4 84.5"
	 style="enable-background:new 0 0 238.4 84.5;" xml:space="preserve">
<style type="text/css">
	.st0{fill:#D4145A;}
	.st1{fill:#FFFFFF;}
	.st2{font-family:'KGShakeitOffChunky';}
	.st3{font-size:15.367px;}
</style>
<path id="XMLID_1309_" class="st0" d="M226.4,84.5H12c-6.6,0-12-5.4-12-12V12C0,5.4,5.4,0,12,0h214.4c6.6,0,12,5.4,12,12v60.5
	C238.4,79.1,233,84.5,226.4,84.5z"/>
<text id="XMLID_1308_" transform="matrix(1 0 0 1 109.9769 48.7815)" class="st1 st2 st3">Nuevo</text>
<path id="XMLID_1191_" class="st1" d="M90.4,35.6H79V24.3c0-1.6-0.6-2.9-1.7-4c-1.1-1.1-2.4-1.7-4-1.7c-1.6,0-2.9,0.6-4,1.7
	c-1.1,1.1-1.7,2.4-1.7,4v11.4H56.3c-1.6,0-2.9,0.6-4,1.7c-1.1,1.1-1.7,2.4-1.7,4s0.6,2.9,1.7,4c1.1,1.1,2.4,1.7,4,1.7h11.4v11.4
	c0,1.6,0.6,2.9,1.7,4c1.1,1.1,2.4,1.7,4,1.7c1.6,0,2.9-0.6,4-1.7c1.1-1.1,1.7-2.4,1.7-4V47h11.4c1.6,0,2.9-0.6,4-1.7
	c1.1-1.1,1.7-2.4,1.7-4s-0.6-2.9-1.7-4C93.3,36.2,91.9,35.6,90.4,35.6z"/>
</svg>
