<?xml version="1.0" encoding="utf-8"?>
<!-- Generator: Adobe Illustrator 19.0.0, SVG Export Plug-In . SVG Version: 6.00 Build 0)  -->
<svg version="1.1" xmlns="http://www.w3.org/2000/svg" xmlns:xlink="http://www.w3.org/1999/xlink" x="0px" y="0px"
	 viewBox="161 -308 405 720" style="enable-background:new 161 -308 405 720;" xml:space="preserve">
<style type="text/css">
	.st0{fill:#00BCAD;}
	.st1{opacity:0.85;fill:#F2F2F2;}
	.st2{fill:#39B54A;}
	.st3{font-family:'BROMO';}
	.st4{font-size:42px;}
	.st5{letter-spacing:3;}
	.st6{opacity:0.84;fill:#FFFFFF;}
	.st7{fill:#24A8DA;}
	.st8{fill:#D4145A;}
	.st9{fill:#93278F;}
</style>
<g id="cont-menu">
	<path id="XMLID_96_" class="st0" d="M161,331.1l0.2-639.1l141.2,0.1c364.1,28.3,97.5,168.7,182,235.2
		c121.9,96-64.6,126.4,43.9,294.2c45.7,70.7,15.5,139.6-38.7,153.8C428.9,391.4,161,331.1,161,331.1z"/>
</g>
<g id="menu">
	<g id="XMLID_2_">
		<path id="XMLID_300_" class="st1" d="M160.2-230.5l0.2-77.8l141.2,0.4c0,0,32.6,38.2,38.1,57.8
			C344.1-234.6,160.2-230.5,160.2-230.5z"/>
		<text id="XMLID_301_" transform="matrix(1 0 0 1 196.0343 -253.9405)" class="st2 st3 st4 st5">Menu</text>
		<polygon id="XMLID_3_" class="st2" points="262.8,-284.9 264.9,-284.9 268.6,-290.5 264.9,-294 		"/>
	</g>
</g>
<g id="buho">
	
		<image style="overflow:visible;" width="113" height="118" id="XMLID_13_" xlink:href="../vector/menu/buho/buho_static.png"  transform="matrix(0.8787 0 0 0.8787 217.1385 208.7051)">
	</image>
	<path id="XMLID_349_" class="st6" d="M332.2,258.4h158.3c5.9,0,10.8,4.9,10.8,10.8v19.1c0,5.9-4.9,10.8-10.8,10.8H332.2
		c-5.9,0-10.8-4.9-10.8-10.8v-19.1C321.4,263.3,326.3,258.4,332.2,258.4z"/>
	<g id="XMLID_34_">
		<path id="XMLID_347_" class="st7" d="M342.4,274.7c-0.4-0.3-0.9-0.5-1.4-0.5c-1.3-0.1-2.3,0.4-3,1.6c-0.4,0.6-0.6,1.2-0.7,2
			c-0.1,0.8-0.1,1.5,0,2.2c0.3,1.4,0.9,2.3,2,2.7c0.5,0.2,0.9,0.2,1.4,0.1s0.9-0.2,1.2-0.4c0.3-0.2,0.6-0.4,0.8-0.5
			c0.2-0.2,0.4-0.4,0.6-0.6l0.1,0.1c0.1,0,0.3,0.2,0.7,0.5c0.4,0.3,1,0.6,1.7,1.1c0.8,0.5,1.5,1,2.4,1.5l-0.1,0.1
			c0,0.1-0.2,0.2-0.4,0.5c-0.3,0.3-0.7,0.7-1.2,1.3c-0.5,0.5-1.2,1-2,1.5c-0.8,0.5-1.8,0.8-2.9,1.1c-1.1,0.2-2.2,0.2-3.4,0
			c-1.2-0.3-2.3-0.8-3.5-1.5c-1.1-0.8-2.1-1.6-2.8-2.6c-1.4-1.7-2.1-3.8-2-6.3c0-1.2,0.3-2.4,0.6-3.6s1-2.3,1.8-3.3
			c0.8-1,1.8-1.8,2.9-2.4c1.1-0.6,2.3-1,3.4-1.2c1.1-0.2,2.2-0.1,3.2,0.1c1,0.2,1.8,0.6,2.5,1c0.7,0.4,1.3,0.9,1.7,1.4
			c0.4,0.5,0.8,1.1,1.2,1.6l-0.1,0.1c0,0.1-0.2,0.2-0.5,0.5c-0.3,0.3-0.7,0.7-1.2,1.3c-0.5,0.6-1.1,1.1-1.7,1.7
			C343.2,275.3,342.8,275,342.4,274.7z"/>
		<path id="XMLID_344_" class="st7" d="M364.6,271.9c1.7,1.9,2.5,4.2,2.5,6.8c0,2.7-0.8,4.9-2.5,6.8c-1.7,1.9-3.7,2.8-6,2.8
			c-2.4,0-4.4-0.9-6-2.8c-1.7-1.9-2.5-4.2-2.5-6.8c0-2.7,0.8-4.9,2.5-6.8c1.7-1.9,3.7-2.8,6-2.8C360.9,269,362.9,270,364.6,271.9z
			 M355.9,275.9c-0.7,0.8-1.1,1.8-1.1,2.9c0,1.1,0.4,2.1,1.1,2.9c0.7,0.8,1.6,1.2,2.6,1.2c1,0,1.9-0.4,2.6-1.2
			c0.7-0.8,1.1-1.8,1.1-2.9c0-1.1-0.4-2.1-1.1-2.9c-0.7-0.8-1.6-1.2-2.6-1.2C357.5,274.7,356.6,275.1,355.9,275.9z"/>
		<path id="XMLID_342_" class="st7" d="M373.4,270.2l3.7,8.2c0.1,0.3,0.3,0.6,0.4,0.9c0.1,0.2,0.2,0.3,0.2,0.2l-0.5-9.1l7.1-0.5
			l-1.9,18.6l-3.3-0.5l-6.2-10.1l0.6,10.1l-4.4,0.7l0.2-17.6L373.4,270.2z"/>
		<path id="XMLID_340_" class="st7" d="M386.3,274.6l-0.7-8.2l16.3,0.7l0.2,5.1l-6,0.8l1.7,17l-7.4,0.1l1.1-17L386.3,274.6z"/>
		<path id="XMLID_337_" class="st7" d="M402.2,291l9-23.7l4.6-0.4l5.5,22.6l-5.8,0.7l-0.7-4l-4.6,0.4l-1.3,4.2L402.2,291z
			 M412.4,275.7l-1.8,8.1l3.5-0.1L412.4,275.7z"/>
		<path id="XMLID_335_" class="st7" d="M434.7,274.7c-0.4-0.3-0.9-0.5-1.4-0.5c-1.3-0.1-2.3,0.4-3,1.6c-0.4,0.6-0.6,1.2-0.7,2
			c-0.1,0.8-0.1,1.5,0,2.2c0.3,1.4,0.9,2.3,2,2.7c0.5,0.2,0.9,0.2,1.4,0.1s0.9-0.2,1.2-0.4c0.3-0.2,0.6-0.4,0.8-0.5
			c0.2-0.2,0.4-0.4,0.6-0.6l0.1,0.1c0.1,0,0.3,0.2,0.7,0.5c0.4,0.3,1,0.6,1.7,1.1c0.8,0.5,1.5,1,2.4,1.5l-0.1,0.1
			c0,0.1-0.2,0.2-0.4,0.5c-0.3,0.3-0.7,0.7-1.2,1.3c-0.5,0.5-1.2,1-2,1.5c-0.8,0.5-1.8,0.8-2.9,1.1c-1.1,0.2-2.2,0.2-3.4,0
			c-1.2-0.3-2.3-0.8-3.5-1.5c-1.1-0.8-2.1-1.6-2.8-2.6c-1.4-1.7-2-3.8-2-6.3c0-1.2,0.3-2.4,0.6-3.6c0.4-1.2,1-2.3,1.8-3.3
			c0.8-1,1.8-1.8,2.9-2.4c1.1-0.6,2.3-1,3.4-1.2c1.1-0.2,2.2-0.1,3.2,0.1c1,0.2,1.8,0.6,2.5,1c0.7,0.4,1.3,0.9,1.7,1.4
			c0.4,0.5,0.8,1.1,1.2,1.6l-0.1,0.1c0,0.1-0.2,0.2-0.5,0.5c-0.3,0.3-0.7,0.7-1.2,1.3c-0.5,0.6-1.1,1.1-1.7,1.7
			C435.6,275.3,435.2,275,434.7,274.7z"/>
		<path id="XMLID_333_" class="st7" d="M442.7,274.6l-0.7-8.2l16.3,0.7l0.2,5.1l-6,0.8l1.7,17l-7.4,0.1l1.1-17L442.7,274.6z"/>
		<path id="XMLID_330_" class="st7" d="M474.9,271.9c1.7,1.9,2.5,4.2,2.5,6.8c0,2.7-0.8,4.9-2.5,6.8c-1.7,1.9-3.7,2.8-6,2.8
			c-2.4,0-4.4-0.9-6-2.8c-1.7-1.9-2.5-4.2-2.5-6.8c0-2.7,0.8-4.9,2.5-6.8c1.7-1.9,3.7-2.8,6-2.8C471.2,269,473.2,270,474.9,271.9z
			 M466.2,275.9c-0.7,0.8-1.1,1.8-1.1,2.9c0,1.1,0.4,2.1,1.1,2.9c0.7,0.8,1.6,1.2,2.6,1.2c1,0,1.9-0.4,2.6-1.2
			c0.7-0.8,1.1-1.8,1.1-2.9c0-1.1-0.4-2.1-1.1-2.9c-0.7-0.8-1.6-1.2-2.6-1.2C467.8,274.7,466.9,275.1,466.2,275.9z"/>
		<path id="XMLID_328_" class="st7" d="M489.5,272.9c0,0-0.2,0-0.4,0c-0.2,0-0.5,0-0.9,0c-0.4,0-0.7,0-0.9,0.1
			c-0.4,0.1-0.7,0.3-0.7,0.5c0,0.1,0,0.3,0,0.6c0.1,0.2,0.2,0.7,0.5,1.3c0.3,0.6,0.6,1.3,1,2.2s0.8,1.7,1,2.3
			c0.3,0.7,0.4,1.2,0.5,1.6c0,0.4,0.1,0.7,0,1.1c-0.1,0.7-0.2,1.4-0.5,2c-0.3,0.6-0.8,1.3-1.4,1.8c-0.8,0.7-1.7,1.3-2.9,1.8
			c-0.7,0.3-1.4,0.6-2.3,0.9c-0.8,0.3-1.7,0.6-2.6,0.9c0,0,0,0,0-0.1c0-0.1,0-0.4,0-1.1c0-0.6,0-1.5,0-2.6c0-1.1,0-2.3,0-3.5h0.1
			c0,0,0.2,0,0.4,0c0.2,0,0.6,0,1,0c0.4,0,0.8-0.1,1.1-0.2c0.6-0.2,1-0.6,1.1-1.2c0.2-0.5,0.1-1.3-0.3-2.2c-0.2-0.5-0.5-1.2-0.8-1.9
			c-0.3-0.7-0.7-1.4-1-2c-0.3-0.6-0.6-1.2-0.9-1.7c-0.3-0.5-0.5-0.9-0.6-1.3c-0.3-0.7-0.4-1.4-0.4-2c0.1-0.7,0.4-1.2,0.9-1.6
			c0.5-0.4,1.4-0.7,2.6-0.8c1.1-0.1,2.3-0.1,3.6-0.1c0.5,0,1,0.1,1.4,0.2s0.8,0.1,1.2,0.2c0,0.8,0,1.6,0,2.4
			C489.5,271.3,489.5,272.1,489.5,272.9L489.5,272.9z"/>
	</g>
</g>
<g id="sapo">
	<path id="XMLID_370_" class="st6" d="M336.3,112.2h94.4c5.9,0,10.8,4.9,10.8,10.8v29.3c0,5.9-4.9,10.8-10.8,10.8h-94.4
		c-5.9,0-10.8-4.9-10.8-10.8V123C325.5,117.1,330.3,112.2,336.3,112.2z"/>
	<g id="XMLID_350_">
		<path id="XMLID_367_" class="st8" d="M347.3,142.7c-0.6-0.1-1.1-0.1-1.7-0.2l0-0.1c0,0,0-0.2-0.1-0.5c-0.1-0.3-0.1-0.7-0.2-1.3
			c-0.1-0.6-0.2-1.1-0.3-1.8l0.2,0c0.1,0,0.5,0,1.2,0c0.7,0,1.7,0,3,0.1c1.3,0,2.7,0.1,4.1,0.1l0,0.1c0,0.1,0,0.3,0,0.6
			c0,0.3,0,0.8-0.1,1.4c0,0.6-0.1,1.2-0.2,1.7c-0.2,1-0.5,1.9-0.9,2.5c-0.4,0.6-1,1.1-1.7,1.6c-0.7,0.5-1.4,0.9-2.2,1.1
			c-1,0.3-2,0.4-3,0.4c-0.9,0-1.8-0.2-2.9-0.6c-0.5-0.2-1.1-0.5-1.7-0.8c-0.6-0.3-1.2-0.8-1.7-1.3c-0.5-0.5-1-1.2-1.5-1.9
			c-0.4-0.7-0.8-1.5-1.1-2.2c-0.5-1.3-0.8-2.6-0.9-3.8c-0.1-1.3,0-2.5,0.4-3.7c0.3-1.3,0.9-2.3,1.6-3.1c0.8-0.9,1.8-1.5,3.1-2
			c1.3-0.5,2.5-0.6,3.7-0.6c1.2,0.1,2.3,0.4,3.4,1c0.5,0.3,1,0.6,1.4,1c0.4,0.4,0.8,0.8,1.2,1.1c0.3,0.4,0.7,0.7,0.9,1
			c0.3,0.3,0.5,0.7,0.8,1l-0.1,0.1c0,0-0.2,0.2-0.5,0.4c-0.3,0.2-0.7,0.5-1.3,0.9c-0.5,0.4-1.1,0.8-1.7,1.2l0,0c0,0-0.1-0.1-0.3-0.3
			c-0.2-0.2-0.4-0.4-0.8-0.7c-0.3-0.3-0.6-0.6-0.9-0.8c-0.5-0.3-1-0.5-1.7-0.5c-0.6,0-1.2,0.2-1.7,0.5c-0.7,0.4-1.2,0.9-1.5,1.5
			c-0.3,0.5-0.4,1.1-0.4,1.9c0,0.7,0.1,1.4,0.2,2c0.2,0.6,0.5,1.2,0.9,1.8c0.5,0.7,1.1,1.3,1.7,1.6c0.7,0.4,1.4,0.6,2.2,0.5
			c0.4,0,0.8-0.1,1.2-0.2c0.4-0.1,0.8-0.3,1.2-0.4C348.5,142.9,347.9,142.8,347.3,142.7z"/>
		<path id="XMLID_364_" class="st8" d="M350.1,151l9-23.7l4.6-0.4l5.5,22.6l-5.8,0.7l-0.7-4l-4.6,0.4l-1.3,4.2L350.1,151z
			 M360.3,135.7l-1.8,8.1l3.5-0.1L360.3,135.7z"/>
		<path id="XMLID_362_" class="st8" d="M372.9,128.4l-1.4,15.4l8.6-2.9l-1,8.2l-11.1,0.3l-1.5-21.5L372.9,128.4z"/>
		<path id="XMLID_360_" class="st8" d="M389.1,128.1l-0.5,6.1l-4.2,0.9v1.7l2.6-0.4v4.3l-2.7-0.1l-0.1,3.4l6.2-3l3,6.1l-13.2,1.2
			l-0.8-17.4L389.1,128.1z"/>
		<path id="XMLID_357_" class="st8" d="M391.8,123.9c0.4-0.1,0.9-0.1,1.4-0.2c0.6-0.1,1.3-0.1,2-0.1c0.8,0,1.7,0.1,2.6,0.2
			c1,0.2,2,0.4,3,0.8s1.9,0.8,2.6,1.5c0.7,0.6,1.3,1.4,1.6,2.3s0.6,1.7,0.7,2.5c0.2,1.5-0.2,2.9-0.9,4.2c-0.4,0.6-0.8,1.3-1.4,1.8
			c-0.5,0.6-0.9,1-1.2,1.3c-0.3,0.3-0.4,0.6-0.4,0.7c0,0.2,0.4,0.6,0.9,1.2c0.6,0.7,1.3,1.5,2.3,2.7c0.9,1.1,1.7,2,2.3,2.7
			c0.6,0.7,0.9,1.1,1,1.2l0.1,0.2c-0.9,0.9-1.8,1.7-2.7,2.5c-0.9,0.8-1.5,1.4-2,1.8c-0.5,0.4-0.7,0.7-0.8,0.8l-0.1,0.1
			c-0.9-1.8-1.7-3.6-2.6-5.3c-0.8-1.7-1.4-3-1.9-3.9c-0.4-0.9-0.7-1.4-0.8-1.4c-0.1,0,0,0.4,0,1.2c0.1,0.8,0.2,1.9,0.3,3.3
			c0.1,1.4,0.2,2.5,0.3,3.3c0.1,0.8,0.1,1.3,0.1,1.5l0,0.2c-1.3,0.2-2.6,0.4-3.8,0.7c-1.2,0.2-2.2,0.4-2.8,0.5
			c-0.7,0.1-1.1,0.2-1.2,0.2l-0.2,0c0-4.7,0.1-9.4,0.1-14.1c0-4.7,0.1-9.4,0.1-14.1C391.1,124.1,391.4,124,391.8,123.9z
			 M396.6,136.8c0,0,0.1-0.1,0.2-0.2c0.1-0.1,0.3-0.2,0.4-0.4c0.2-0.2,0.4-0.4,0.6-0.7c0.4-0.6,0.7-1.2,0.9-1.9
			c0.2-0.7,0.2-1.4,0.2-2.1c0-0.5-0.2-1-0.4-1.4c-0.2-0.3-0.5-0.6-0.8-0.7c-0.3-0.1-0.8-0.3-1.7-0.4c0.1,1.3,0.2,2.6,0.2,3.9
			C396.4,134.2,396.5,135.5,396.6,136.8L396.6,136.8z"/>
		<path id="XMLID_354_" class="st8" d="M412.6,125.9l-1.9,10l-4.2,0.4l-1.2-10L412.6,125.9z M410.7,138l1.5,12.4l-6.4,0.6l0.4-12.4
			L410.7,138z"/>
		<path id="XMLID_351_" class="st8" d="M409.5,151l9-23.7l4.6-0.4l5.5,22.6l-5.8,0.7l-0.7-4l-4.6,0.4l-1.3,4.2L409.5,151z
			 M419.7,135.7l-1.8,8.1l3.5-0.1L419.7,135.7z"/>
	</g>
	
		<image style="overflow:visible;" width="113" height="118" id="XMLID_468_" xlink:href="../vector/menu/sapo/sapo-static.png"  transform="matrix(0.8787 0 0 0.8787 207.2284 57.417)">
	</image>
</g>
<g id="dragon">
	
		<image style="overflow:visible;" width="174" height="125" id="XMLID_7_" xlink:href="../vector/menu/dragon/dragon-static.png"  transform="matrix(-0.8182 0 0 0.8182 320.8851 -80.0825)">
	</image>
	<path id="XMLID_3225_" class="st6" d="M331.8-28.7H462c5.9,0,10.8,4.9,10.8,10.8V1.3c0,5.9-4.9,10.8-10.8,10.8H331.8
		c-5.9,0-10.8-4.9-10.8-10.8v-19.1C321-23.8,325.8-28.7,331.8-28.7z"/>
	<g id="XMLID_3171_">
		<path id="XMLID_3222_" class="st9" d="M338.7-6.3c0.1-4.1,0.3-8.1,0.4-12.2c0.4,0,0.8,0,1.3,0c0.4,0,0.9,0,1.4,0
			c0.5,0,1.1,0,1.7,0.1c0.6,0,1.2,0.1,1.8,0.2c1.3,0.2,2.3,0.7,3.1,1.3c1,0.7,1.8,1.7,2.3,2.9c0.5,1.2,0.7,2.5,0.5,3.8
			c-0.2,1.3-0.7,2.5-1.5,3.8c-0.7,1.1-1.6,2-2.6,2.7c-0.5,0.4-1.1,0.7-1.7,0.9c-0.6,0.3-1.1,0.5-1.4,0.6c-0.3,0.1-0.5,0.3-0.6,0.4
			s-0.1,0.4-0.1,1v2.1v2.1v0.9v0.1c-0.8,0.2-1.6,0.4-2.4,0.7c-0.8,0.2-1.3,0.4-1.8,0.5c-0.4,0.1-0.7,0.2-0.7,0.2l-0.1,0
			C338.4,1.8,338.6-2.3,338.7-6.3z M343.4-7.2l0.2-0.2c0.1-0.1,0.3-0.3,0.5-0.6c0.2-0.3,0.4-0.5,0.7-0.8c0.5-0.7,0.9-1.3,1.1-1.8
			c0.2-0.6,0.3-1.1,0.1-1.6c-0.2-0.5-0.5-0.8-1-1c-0.3-0.1-0.9-0.3-1.7-0.3c0,1.1,0,2.2,0,3.3S343.4-8.3,343.4-7.2L343.4-7.2z"/>
		<path id="XMLID_3219_" class="st9" d="M350.8-21.1c0.4-0.1,0.9-0.1,1.4-0.2c0.6-0.1,1.3-0.1,2-0.1c0.8,0,1.7,0.1,2.6,0.2
			c1,0.2,2,0.4,3,0.8s1.9,0.8,2.6,1.5c0.7,0.6,1.3,1.4,1.6,2.3c0.4,0.9,0.6,1.7,0.7,2.5c0.2,1.5-0.2,2.9-0.9,4.2
			c-0.4,0.6-0.8,1.3-1.4,1.8c-0.5,0.6-0.9,1-1.2,1.3c-0.3,0.3-0.4,0.6-0.4,0.7c0,0.2,0.4,0.6,0.9,1.2c0.6,0.7,1.3,1.5,2.3,2.7
			c0.9,1.1,1.7,2,2.3,2.7c0.6,0.7,0.9,1,1,1.2l0.1,0.2c-0.9,0.9-1.8,1.7-2.7,2.5c-0.9,0.8-1.5,1.4-2,1.8c-0.5,0.4-0.7,0.7-0.8,0.8
			L361.9,7c-0.9-1.8-1.7-3.6-2.6-5.3c-0.8-1.7-1.4-3-1.9-3.9c-0.4-0.9-0.7-1.4-0.8-1.4c-0.1,0,0,0.4,0,1.2c0.1,0.8,0.2,1.9,0.3,3.3
			c0.1,1.4,0.2,2.5,0.3,3.3c0.1,0.8,0.1,1.3,0.1,1.5l0,0.2c-1.3,0.2-2.6,0.4-3.8,0.7c-1.2,0.2-2.2,0.4-2.8,0.5
			c-0.7,0.1-1.1,0.2-1.2,0.2l-0.2,0c0-4.7,0.1-9.4,0.1-14.1c0-4.7,0.1-9.4,0.1-14.1C350.1-21,350.4-21,350.8-21.1z M355.7-8.2
			c0,0,0.1-0.1,0.2-0.2c0.1-0.1,0.3-0.2,0.4-0.4s0.4-0.4,0.6-0.7c0.4-0.6,0.7-1.2,0.9-1.9c0.2-0.7,0.2-1.4,0.2-2.1
			c0-0.5-0.2-1-0.4-1.4c-0.2-0.3-0.5-0.6-0.8-0.7c-0.3-0.1-0.8-0.3-1.7-0.4c0.1,1.3,0.2,2.6,0.2,3.9C355.5-10.8,355.5-9.5,355.7-8.2
			L355.7-8.2z"/>
		<path id="XMLID_3188_" class="st9" d="M379-13.2c1.7,1.9,2.5,4.2,2.5,6.8s-0.8,4.9-2.5,6.8c-1.7,1.9-3.7,2.8-6,2.8
			c-2.4,0-4.4-0.9-6-2.8c-1.7-1.9-2.5-4.2-2.5-6.8s0.8-4.9,2.5-6.8c1.7-1.9,3.7-2.8,6-2.8C375.3-16,377.3-15.1,379-13.2z M370.3-9.1
			c-0.7,0.8-1.1,1.8-1.1,2.9s0.4,2.1,1.1,2.9c0.7,0.8,1.6,1.2,2.6,1.2c1,0,1.9-0.4,2.6-1.2c0.7-0.8,1.1-1.8,1.1-2.9
			s-0.4-2.1-1.1-2.9c-0.7-0.8-1.6-1.2-2.6-1.2C371.9-10.3,371-9.9,370.3-9.1z"/>
		<path id="XMLID_3185_" class="st9" d="M380.2-5.4c-0.2-3.5-0.3-6.1-0.4-8c-0.1-1.9-0.1-3-0.1-3.3s0-0.5,0-0.5
			c0.6-0.1,1.2-0.2,1.8-0.3c0.6-0.1,1.2-0.2,1.8-0.2c1.2-0.1,2.3-0.1,3.4,0c1,0.1,2,0.3,2.9,0.5c1,0.3,1.9,0.7,2.6,1.2
			c0.9,0.6,1.6,1.4,2.2,2.3c0.5,0.8,0.8,1.7,1,2.7c0.1,0.8,0.1,1.7-0.1,2.5c-0.8,3.9-2.6,7-5.2,9.3c-2.7,2.3-5.8,3.9-9.5,4.8
			C380.6,1.7,380.4-2,380.2-5.4z M384.6-6.3c-0.1,2.1-0.1,4.2-0.1,6.3c0,0,0,0,0.1,0c0.2-0.1,0.6-0.6,1.3-1.4
			c0.7-0.8,1.1-1.4,1.2-1.5c0.9-1.4,1.4-2.8,1.7-4.4c0.3-1.5,0.2-2.8-0.3-3.9c-0.4-0.8-0.9-1.4-1.7-1.6c-0.4-0.1-1.1-0.1-2,0.1
			C384.8-10.5,384.7-8.4,384.6-6.3z"/>
		<path id="XMLID_3183_" class="st9" d="M399.9-12c-0.2,1.2-0.3,2.3-0.4,3.4c-0.2,2-0.2,3.6,0,4.9c0.2,1.1,0.5,1.7,0.9,2
			c0.4,0.3,0.8,0.2,1.2-0.3c0.3-0.4,0.6-1.2,0.9-2.3c0.1-0.5,0.2-1,0.3-1.6c0.1-0.6,0.1-1.2,0.1-2c0-0.8-0.1-1.6-0.2-2.6
			c-0.1-0.9-0.3-1.9-0.4-2.9c0,0,0,0,0.1-0.1c0.1,0,0.3-0.1,0.7-0.2c0.4-0.1,0.9-0.3,1.6-0.5c0.7-0.2,1.5-0.4,2.2-0.7l0,0.1
			c0,0,0,0.1,0.1,0.3c0,0.2,0.1,0.5,0.2,0.9s0.2,0.9,0.2,1.5c0.2,1.4,0.2,2.9,0.2,4.5c0,1.7-0.2,3.3-0.5,4.7
			c-0.2,1.3-0.6,2.4-1.2,3.3c-0.7,1.1-1.4,2-2.2,2.6c-0.9,0.7-1.9,1-2.8,1c-1.1,0-2.1-0.4-3.1-1.1c-1-0.7-1.9-1.8-2.4-3.1
			c-0.6-1.4-1.1-3.1-1.2-5.1c-0.1-0.9-0.1-1.9-0.1-2.8c0-0.9,0.1-1.8,0.1-2.8c0.1-0.9,0.1-1.8,0.2-2.7c0.1-0.9,0.2-1.7,0.3-2.6
			l0.1,0l0.9,0.1c0.5,0,1.2,0.1,2.1,0.2c0.9,0.1,1.8,0.1,2.8,0.2C400.3-14.4,400.1-13.2,399.9-12z"/>
		<path id="XMLID_3180_" class="st9" d="M418.9-10.4c-0.4-0.3-0.9-0.5-1.4-0.5c-1.3-0.1-2.3,0.4-3,1.6c-0.4,0.6-0.6,1.2-0.7,2
			c-0.1,0.8-0.1,1.5,0,2.2c0.3,1.4,0.9,2.3,2,2.7c0.5,0.2,0.9,0.2,1.4,0.1c0.5-0.1,0.9-0.2,1.2-0.4c0.3-0.2,0.6-0.4,0.8-0.6
			c0.2-0.2,0.4-0.4,0.6-0.6l0.1,0.1c0.1,0,0.3,0.2,0.7,0.5c0.4,0.3,1,0.6,1.7,1.1c0.8,0.5,1.5,1,2.4,1.5l-0.1,0.1
			c0,0.1-0.2,0.2-0.4,0.5c-0.3,0.3-0.7,0.7-1.2,1.3c-0.5,0.5-1.2,1-2,1.5c-0.8,0.5-1.8,0.8-2.9,1.1c-1.1,0.2-2.2,0.2-3.4,0
			c-1.2-0.3-2.3-0.8-3.5-1.5c-1.1-0.8-2.1-1.6-2.8-2.6c-1.4-1.7-2-3.8-2-6.3c0-1.2,0.3-2.4,0.6-3.6c0.4-1.2,1-2.3,1.8-3.3
			c0.8-1,1.8-1.8,2.9-2.4c1.1-0.6,2.3-1,3.4-1.2c1.1-0.2,2.2-0.1,3.2,0.1c1,0.2,1.8,0.6,2.5,1c0.7,0.4,1.3,0.9,1.7,1.4
			c0.4,0.5,0.8,1.1,1.2,1.6l-0.1,0.1c0,0.1-0.2,0.2-0.5,0.5c-0.3,0.3-0.7,0.7-1.2,1.3c-0.5,0.6-1.1,1.1-1.7,1.7
			C419.7-9.7,419.3-10.1,418.9-10.4z"/>
		<path id="XMLID_3178_" class="st9" d="M423.2-10.5l-0.7-8.2l16.3,0.7l0.2,5.1l-6,0.8l1.7,17L427.3,5l1.1-17L423.2-10.5z"/>
		<path id="XMLID_3174_" class="st9" d="M451.8-13.2c1.7,1.9,2.5,4.2,2.5,6.8s-0.8,4.9-2.5,6.8c-1.7,1.9-3.7,2.8-6,2.8
			c-2.4,0-4.4-0.9-6-2.8c-1.7-1.9-2.5-4.2-2.5-6.8s0.8-4.9,2.5-6.8c1.7-1.9,3.7-2.8,6-2.8C448.1-16,450.1-15.1,451.8-13.2z
			 M443.1-9.1c-0.7,0.8-1.1,1.8-1.1,2.9s0.4,2.1,1.1,2.9c0.7,0.8,1.6,1.2,2.6,1.2c1,0,1.9-0.4,2.6-1.2c0.7-0.8,1.1-1.8,1.1-2.9
			s-0.4-2.1-1.1-2.9c-0.7-0.8-1.6-1.2-2.6-1.2C444.7-10.3,443.8-9.9,443.1-9.1z"/>
		<path id="XMLID_3172_" class="st9" d="M462.8-12.2c0,0-0.2,0-0.4,0c-0.2,0-0.5,0-0.9,0c-0.4,0-0.7,0-0.9,0.1
			c-0.4,0.1-0.7,0.3-0.7,0.5c0,0.1,0,0.3,0,0.6c0.1,0.2,0.2,0.7,0.5,1.3c0.3,0.6,0.6,1.3,1,2.2s0.8,1.7,1,2.3
			c0.3,0.7,0.4,1.2,0.5,1.6c0,0.4,0.1,0.7,0,1.1c-0.1,0.7-0.2,1.4-0.5,2c-0.3,0.6-0.8,1.3-1.4,1.9c-0.8,0.7-1.7,1.3-2.9,1.8
			c-0.7,0.3-1.4,0.6-2.3,0.9c-0.8,0.3-1.7,0.6-2.6,0.8c0,0,0,0,0-0.1c0-0.1,0-0.4,0-1.1c0-0.6,0-1.5,0-2.6c0-1.1,0-2.3,0-3.5h0.1
			c0,0,0.2,0,0.4,0c0.2,0,0.6,0,1,0c0.4,0,0.8-0.1,1.1-0.2c0.6-0.2,1-0.6,1.1-1.2c0.2-0.5,0.1-1.3-0.3-2.2c-0.2-0.5-0.5-1.2-0.8-1.9
			c-0.3-0.7-0.7-1.4-1-2c-0.3-0.6-0.6-1.2-0.9-1.7c-0.3-0.5-0.5-0.9-0.6-1.3c-0.3-0.7-0.4-1.4-0.4-2c0.1-0.7,0.4-1.2,0.9-1.6
			c0.5-0.4,1.4-0.7,2.6-0.8c1.1-0.1,2.3-0.1,3.6-0.1c0.5,0,1,0.1,1.4,0.2c0.4,0.1,0.8,0.1,1.2,0.2c0,0.8,0,1.6,0,2.4
			C462.8-13.7,462.8-12.9,462.8-12.2L462.8-12.2z"/>
	</g>
</g>
<g id="cangrejo">
	
		<image style="overflow:visible;" width="178" height="118" id="XMLID_462_" xlink:href="../vector/menu/crab/crab-static.png"  transform="matrix(0.8787 0 0 0.8787 161.353 -214.2664)">
	</image>
	<path id="XMLID_3045_" class="st6" d="M331.7-156.6h78.8c5.9,0,10.8,4.9,10.8,10.8v26.1c0,5.9-4.9,10.8-10.8,10.8h-78.8
		c-5.9,0-10.8-4.9-10.8-10.8v-26.1C320.8-151.7,325.7-156.6,331.7-156.6z"/>
	<g id="home">
		<g>
			<path id="XMLID_76_" class="st0" d="M340.7-146.7l1.7,12.7l3.4,0l0.6-8.7l6.6,0.3l-1.5,21.4l-5,1.5l0.2-8.7l-3.7-0.2l2.5,11.1
				l-8.3-0.6l-1.5-27.9L340.7-146.7z"/>
			<path id="XMLID_73_" class="st0" d="M369.3-138.2c1.7,1.9,2.5,4.2,2.5,6.8s-0.8,4.9-2.5,6.8c-1.7,1.9-3.7,2.8-6,2.8
				c-2.4,0-4.4-0.9-6-2.8c-1.7-1.9-2.5-4.2-2.5-6.8s0.8-4.9,2.5-6.8c1.7-1.9,3.7-2.8,6-2.8C365.6-141,367.6-140.1,369.3-138.2z
				 M360.6-134.1c-0.7,0.8-1.1,1.8-1.1,2.9s0.4,2.1,1.1,2.9c0.7,0.8,1.6,1.2,2.6,1.2c1,0,1.9-0.4,2.6-1.2c0.7-0.8,1.1-1.8,1.1-2.9
				s-0.4-2.1-1.1-2.9c-0.7-0.8-1.6-1.2-2.6-1.2C362.2-135.3,361.3-134.9,360.6-134.1z"/>
			<path id="XMLID_71_" class="st0" d="M374.2-141.2l5.8-0.8l2.4,12.9l2.2-13.3l5.2-0.5l1.6,22.4l-4.9,0.9l-0.6-11.9l-1.4,7.7h-3.1
				l-2.6-9.4l-0.3,12.5l-5.1,1L374.2-141.2z"/>
			<path id="XMLID_69_" class="st0" d="M403.1-142l-0.5,6.1l-4.2,0.9v1.7l2.6-0.4v4.3l-2.7-0.1l-0.1,3.4l6.2-3l3,6.1l-13.2,1.2
				l-0.8-17.4L403.1-142z"/>
		</g>
	</g>
</g>
</svg>
