<?xml version="1.0" encoding="utf-8"?>
<!-- Generator: Adobe Illustrator 19.0.0, SVG Export Plug-In . SVG Version: 6.00 Build 0)  -->
<svg version="1.1" id="boton_x5F_nuevo_x5F_confir" xmlns="http://www.w3.org/2000/svg" xmlns:xlink="http://www.w3.org/1999/xlink"
	 x="0px" y="0px" viewBox="204.3 180.2 33.6 32.6" style="enable-background:new 204.3 180.2 33.6 32.6;" xml:space="preserve">
<style type="text/css">
	.st0{fill:#D4145A;}
	.st1{fill:#FFFFFF;}
</style>
<path id="XMLID_279_" class="st0" d="M225.9,212.8h-9.6c-6.6,0-12-5.4-12-12v-8.6c0-6.6,5.4-12,12-12h9.6c6.6,0,12,5.4,12,12v8.6
	C237.9,207.4,232.5,212.8,225.9,212.8z"/>
<path id="XMLID_278_" class="st1" d="M227.5,193.9h-4.4v-4.4c0-0.6-0.2-1.1-0.6-1.5s-0.9-0.6-1.5-0.6c-0.6,0-1.1,0.2-1.5,0.6
	s-0.6,0.9-0.6,1.5v4.4h-4.4c-0.6,0-1.1,0.2-1.5,0.6c-0.4,0.4-0.6,0.9-0.6,1.5c0,0.6,0.2,1.1,0.6,1.5s0.9,0.6,1.5,0.6h4.4v4.4
	c0,0.6,0.2,1.1,0.6,1.5c0.4,0.4,0.9,0.6,1.5,0.6c0.6,0,1.1-0.2,1.5-0.6c0.4-0.4,0.6-0.9,0.6-1.5v-4.4h4.4c0.6,0,1.1-0.2,1.5-0.6
	s0.6-0.9,0.6-1.5c0-0.6-0.2-1.1-0.6-1.5C228.7,194.1,228.1,193.9,227.5,193.9z"/>
</svg>
