<?xml version="1.0" encoding="utf-8"?>
<!-- Generator: Adobe Illustrator 19.0.0, SVG Export Plug-In . SVG Version: 6.00 Build 0)  -->
<svg version="1.1" id="boton_x5F_buscar_x5F_confir"
	 xmlns="http://www.w3.org/2000/svg" xmlns:xlink="http://www.w3.org/1999/xlink" x="0px" y="0px" viewBox="202.9 180.2 36.4 32.6"
	 style="enable-background:new 202.9 180.2 36.4 32.6;" xml:space="preserve">
<style type="text/css">
	.st0{fill:#00BCAD;}
	.st1{fill:#FFFFFF;}
</style>
<path id="XMLID_83_" class="st0" d="M227.3,212.8h-12.4c-6.6,0-12-5.4-12-12v-8.6c0-6.6,5.4-12,12-12h12.4c6.6,0,12,5.4,12,12v8.6
	C239.3,207.4,233.9,212.8,227.3,212.8z"/>
<path id="XMLID_80_" class="st1" d="M210.1,203.8l4.6-4.6c-1.1-1.6-1.7-3.4-1.7-5.3c0-1.3,0.2-2.5,0.7-3.7c0.5-1.2,1.2-2.2,2-3
	c0.8-0.8,1.8-1.5,3-2c1.2-0.5,2.4-0.7,3.7-0.7s2.5,0.2,3.7,0.7c1.2,0.5,2.2,1.2,3,2c0.8,0.8,1.5,1.8,2,3c0.5,1.2,0.7,2.4,0.7,3.7
	c0,1.3-0.2,2.5-0.7,3.7c-0.5,1.2-1.2,2.2-2,3c-0.8,0.8-1.8,1.5-3,2c-1.2,0.5-2.4,0.7-3.7,0.7c-2,0-3.7-0.6-5.3-1.7l-4.6,4.6
	c-0.3,0.3-0.7,0.5-1.2,0.5c-0.5,0-0.9-0.2-1.2-0.5s-0.5-0.7-0.5-1.2C209.6,204.6,209.7,204.1,210.1,203.8z M218.2,198.1
	c1.2,1.2,2.6,1.8,4.2,1.8s3.1-0.6,4.2-1.8s1.8-2.6,1.8-4.2c0-1.7-0.6-3.1-1.8-4.2s-2.6-1.8-4.2-1.8s-3.1,0.6-4.2,1.8
	s-1.8,2.6-1.8,4.2C216.4,195.5,217,197,218.2,198.1z"/>
</svg>
