<?xml version="1.0" encoding="utf-8"?>
<!-- Generator: Adobe Illustrator 19.0.0, SVG Export Plug-In . SVG Version: 6.00 Build 0)  -->
<svg version="1.1" id="cont_x5F_formulario_x5F_nuevo"
	 xmlns="http://www.w3.org/2000/svg" xmlns:xlink="http://www.w3.org/1999/xlink" x="0px" y="0px"
	 viewBox="-294.4 -184.3 916.3 543.1" style="enable-background:new -294.4 -184.3 916.3 543.1;" xml:space="preserve">
<style type="text/css">
	.st0{fill:#D4145A;}
</style>
<g>
	<path class="st0" d="M166.9-129.7"/>
</g>
<g>
	<path class="st0" d="M247.6-122.9L247-93.3c63.8-0.1,262.6,3,326.4,2.9c7.9,0,16.2,0.1,23.1,3.2c6.6,3,10.8,8.4,14.3,13.8
		c18.1,28,12,416.4-2.9,425.2c-11.6,6.9-27.1,7.1-41.5,7c-283.4-2-531.2-3.9-814.6-5.9c-14.4-0.1-20.4-0.8-29.9-9.5
		c-8.5-7.7-27.3-390-7.4-409.2C-255.4-94.9-96-89.5-72.7-89.6c77.3-0.1,161.3-3.2,238.6-3.3l0.7-22.8l0.5-56c0-7.3,5.4-12.7,12-12.7
		h56.5c6.6,0,12,5.4,12,12L247.6-122.9z"/>
</g>
<path class="st0" d="M179-106.7"/>
<path class="st0" d="M235.5-106.7"/>
</svg>
