<?xml version="1.0" encoding="utf-8"?>
<!-- Generator: Adobe Illustrator 19.0.0, SVG Export Plug-In . SVG Version: 6.00 Build 0)  -->
<svg version="1.1" id="logofacebook" xmlns="http://www.w3.org/2000/svg" xmlns:xlink="http://www.w3.org/1999/xlink" x="0px"
	 y="0px" viewBox="0 0 36.5 36.5" style="enable-background:new 0 0 36.5 36.5;" xml:space="preserve">
<style type="text/css">
	.st0{fill:#E0225F;}
</style>
<path id="instaicon_1_" class="st0" d="M22.9,17.8H20v11h-4v-11h-3v-4h3v-1.6c0-1.7,0.3-3.1,0.9-4c0.6-0.8,1.7-1.5,3.4-1.5H23v4
	h-1.6c-0.7,0-1.1,0.2-1.2,0.5C20.1,11.5,20,12,20,12.6v1.2h3.4L22.9,17.8z M18.2,0c-5,0-9.3,1.8-12.9,5.3S0,13.2,0,18.2
	s1.8,9.3,5.3,12.9s7.9,5.3,12.9,5.3s9.3-1.8,12.9-5.3s5.3-7.9,5.3-12.9s-1.8-9.3-5.3-12.9S23.3,0,18.2,0z"/>
</svg>
