<?xml version="1.0" encoding="utf-8"?>
<!-- Generator: Adobe Illustrator 19.0.0, SVG Export Plug-In . SVG Version: 6.00 Build 0)  -->
<svg version="1.1" id="logoinstagram" xmlns="http://www.w3.org/2000/svg" xmlns:xlink="http://www.w3.org/1999/xlink" x="0px"
	 y="0px" viewBox="0 0 36.2 36.2" style="enable-background:new 0 0 36.2 36.2;" xml:space="preserve">
<style type="text/css">
	.st0{fill:#E0225F;}
</style>
<path id="instaicon" class="st0" d="M24.8,18.8c0,1.8-0.7,3.1-2,4.4S19.9,25,18.1,25s-3.4-0.7-4.7-2.1s-2-2.3-2-4.1
	c0-0.3,0-0.5,0.1-0.5H9v10h18v-10h-2.3C24.8,18.3,24.8,18.5,24.8,18.8z M23,15.3h4v-5h-4V15.3z M13.6,18.1c0,1.2,0.4,2.3,1.3,3.2
	c0.9,0.9,2,1.3,3.2,1.3s2.3-0.4,3.2-1.3c0.9-0.9,1.3-2,1.3-3.2s-0.4-2.3-1.3-3.2c-0.9-0.9-2-1.3-3.2-1.3s-2.3,0.4-3.2,1.3
	S13.6,16.9,13.6,18.1z M29,28.6c0,0.2,0.1,0.9,0,1.1c-0.2,0.2-0.2,0.7-0.4,0.7H7.6c-0.2,0-0.3-0.5-0.5-0.7C7,29.5,7,28.8,7,28.6V7.6
	C7,7.4,7,8,7.1,7.8c0.2-0.2,0.3,0.5,0.5,0.5h20.9c0.2,0,0.2-0.7,0.4-0.5c0.2,0.2,0-0.4,0-0.2V28.6z M18.1,0c-5,0-9.3,1.8-12.8,5.3
	S0,13.1,0,18.1s1.8,9.3,5.3,12.8s7.8,5.3,12.8,5.3s9.3-1.8,12.8-5.3s5.3-7.8,5.3-12.8s-1.8-9.3-5.3-12.8S23.1,0,18.1,0z"/>
</svg>
