<?xml version="1.0" encoding="UTF-8" standalone="no"?>
<svg
   xmlns:dc="http://purl.org/dc/elements/1.1/"
   xmlns:cc="http://creativecommons.org/ns#"
   xmlns:rdf="http://www.w3.org/1999/02/22-rdf-syntax-ns#"
   xmlns:svg="http://www.w3.org/2000/svg"
   xmlns="http://www.w3.org/2000/svg"
   xmlns:xlink="http://www.w3.org/1999/xlink"
   viewBox="0 0 265.40799 217.78267"
   height="217.78267"
   width="265.40799"
   xml:space="preserve"
   id="svg2"
   version="1.1"><metadata
     id="metadata8"><rdf:RDF><cc:Work
         rdf:about=""><dc:format>image/svg+xml</dc:format><dc:type
           rdf:resource="http://purl.org/dc/dcmitype/StillImage" /><dc:title></dc:title></cc:Work></rdf:RDF></metadata><defs
     id="defs6"><clipPath
       id="clipPath18"
       clipPathUnits="userSpaceOnUse"><path
         id="path16"
         d="M 0,163.337 H 199.056 V 0 H 0 Z" /></clipPath></defs><g
     transform="matrix(1.3333333,0,0,-1.3333333,0,217.78267)"
     id="g10"><image
       transform="scale(1,-1)"
       width="126.66164"
       height="71.261147"
       preserveAspectRatio="none"
       xlink:href="file:///home/camilog/Downloads/linpic.jpg"
       id="image238"
       x="34.228985"
       y="-109.29804" /><g
       transform="matrix(0.94385783,0,0,0.82393664,4.7863208,11.28325)"
       id="g12"><g
         clip-path="url(#clipPath18)"
         id="g14"><g
           transform="translate(152.2232,27.062)"
           id="g20"><path
             id="path22"
             d="M 0.47213352,6.4902112 C -16.287929,16.543762 -36.628425,6.3924618 -54.938401,9.7281458 -71.186981,11.86562 -98.033037,1.4237461 -107.7107,11.977129 c 1.57964,16.422666 -1.52203,32.475126 -6.7445,47.989681 -4.76976,20.415206 24.599649,19.321409 37.976567,23.184336 21.286854,2.707054 43.270664,1.356622 63.940024,7.564571 C 11.497817,89.929795 -0.2141415,60.383426 6.3559557,45.845046 6.4127756,38.954096 20.729466,3.6882926 8.9705369,8.112764 M 46.578,13.828 c -6.5737,21.386515 -33.96107,32.439467 -31.182811,57.665455 0.840335,17.97609 21.053199,39.395465 2.807758,54.618935 -18.03422132,13.24458 -42.296225,10.10271 -63.337314,9.2047 -22.323412,-0.95591 -40.477991,-16.19569 -52.045103,-34.22364 -12.68238,-14.297735 -33.9852,1.49041 -46.58888,-11.676099 -15.84505,-17.381659 -4.90666,-41.228526 0.0812,-60.623838 2.7611,-15.880985 6.45763,-32.1337637 15.54054,-45.756861 21.47276,-10.977173 46.616114,5.460441 68.959297,8.2744618 18.112228,5.2307422 34.210126,-6.6739318 48.605174,-15.6905548 C 8.7862204,-32.17024 28.08264,-17.693758 41.084864,-4.6502654 45.309836,0.43985404 47.651227,7.2072857 46.578,13.828 Z"
             style="fill:#abbc00;fill-opacity:1;fill-rule:nonzero;stroke:none" /></g></g></g></g></svg>