<?xml version="1.0" encoding="utf-8"?>
<!-- Generator: Adobe Illustrator 19.0.0, SVG Export Plug-In . SVG Version: 6.00 Build 0)  -->
<svg version="1.1" id="Capa_1" xmlns="http://www.w3.org/2000/svg" xmlns:xlink="http://www.w3.org/1999/xlink" x="0px" y="0px"
	 viewBox="0 0 200 193" style="enable-background:new 0 0 200 193;" xml:space="preserve">
<style type="text/css">
	.st0{fill:#AFBB2B;}
</style>
<path id="XMLID_3011_" class="st0" d="M194.7,164.1c-15.4-4.2-22.1-22.3-13.3-35.5v0c6.6-9.9,3.5-23.3-6.7-29.3l-5.2-3.1
	c-11.2-3.2-17.1-15.5-12.4-26.2l1.5-3.3L151.4,47c0-6.4-5.2-11.6-11.6-11.6c-38.6,0-26.3-20.6-63.5-30.8C55.9-1,19.5-8.9,10.5,18.1
	c-1.4,4.2,2.8,8,5.7,11.3c7.7,8.8,7.5,23.6-0.6,32.1c-3.8,4-9.4,7.9-8.5,13.3c0.3,1.8,1.4,3.4,2.4,4.9c10.4,15.5,18.8,25.8,7.4,43.5
	C6.8,139,44.3,157.4,0.8,165.8c-0.4,0.1-0.4,0.9-0.2,2.2c1.4,10.2,11.3,17.2,21.3,14.8c21.4-5,49.6,17.5,167,8.5
	c6.4-0.5,11.6-5.2,11.6-11.6L194.7,164.1z M154.5,168.5c-10.9-9.1-119.4,4.4-104.8-10.3S44.3,33,44.3,33s83.8,17.3,82,26.2
	C124.6,68.2,165.4,177.6,154.5,168.5z"/>
</svg>
