<?xml version="1.0" encoding="utf-8"?>
<!-- Generator: Adobe Illustrator 19.0.0, SVG Export Plug-In . SVG Version: 6.00 Build 0)  -->
<svg version="1.1" id="Capa_1" xmlns="http://www.w3.org/2000/svg" xmlns:xlink="http://www.w3.org/1999/xlink" x="0px" y="0px"
	 viewBox="0 0 191.2 192.5" style="enable-background:new 0 0 191.2 192.5;" xml:space="preserve">
<style type="text/css">
	.st0{fill:#AFBB2B;}
</style>
<path id="XMLID_2953_" class="st0" d="M191.1,26.2c-0.8-6.8-9.1-12.7-14.5-8.5c-4,3-3.8,9-5.9,13.5c-5.2,11-22.1,9.6-31.7,2.1
	c-9.6-7.6-15.6-19.1-25.6-26c-10.2-7-23.5-8.4-35.8-6.4C65.3,2.9,53.8,7.9,42.5,13c-8.2,3.6-16.4,7.3-24.6,10.9
	C-6.7,34.8,9.2,47.4,9.2,47.4c5.1,3.2,7.9,9.6,6.8,15.5c-1.1,5.8-5.6,10.4-7.6,16c-2.7,7.2-1,15.9,4.3,21.6c7.5,8,22,11.8,22.1,22.8
	c0,6.2-5.3,11.2-10.9,14c-5.6,2.8-11.8,4.5-16.6,8.4c-11.1,9.1-8.8,29.6,3.9,36c16.8,8.4,35.3-6.8,53.7-10.8
	c28.3-6.1,54.6,15.2,83,21c3.8,0.8,8,1.2,11.4-0.5c3.5-1.7,5.7-6.4,3.6-9.7c-1.9-2.9-6-3.3-8.8-5.4c-6.5-4.9-2.4-15.4,2.8-21.7
	c6.1-7.3,13-13.9,18.2-21.9c5.1-8,8.3-17.9,5.7-27c-1.5-5.1-4.6-9.5-6.4-14.4c-5.7-15.3,1.8-32.2,10.3-46.2
	C188,39.3,191.9,32.9,191.1,26.2z M133.3,153.1c-2.5-18-104.4,20.3-88.1-10.7s0-102.3,0-102.3l96.7,6.8
	C141.9,47,135.8,171.2,133.3,153.1z"/>
</svg>
