<?xml version="1.0" encoding="utf-8"?>
<!-- Generator: Adobe Illustrator 19.0.0, SVG Export Plug-In . SVG Version: 6.00 Build 0)  -->
<svg version="1.1" id="Capa_1" xmlns="http://www.w3.org/2000/svg" xmlns:xlink="http://www.w3.org/1999/xlink" x="0px" y="0px"
	 viewBox="0 0 158.4 176.7" style="enable-background:new 0 0 158.4 176.7;" xml:space="preserve">
<style type="text/css">
	.st0{fill:#AFBB2B;}
</style>
<path id="XMLID_2965_" class="st0" d="M24.2,166.4c11.2,1.7,21.2-6.6,31.8-10.5c13.4-4.9,29.3-2.2,40.4,6.8
	c5.7,4.6,10.4,10.9,17.4,13.1c8.1,2.6,17.2-1.3,23-7.4c5.9-6.2,9.1-14.3,12.2-22.2c7.5-19.8,14.1-42.4,4.9-61.4
	c-5.8-12-17.9-23.3-14.3-36.1c1.4-5,5.2-9.2,6.6-14.2c3.8-13.1-9.5-25.6-22.8-28.6c-13.4-3-27.5-0.4-40.8-3.3
	C77.2,1.5,71.6-0.5,66.3,1c-2.3,0.6-4.4,1.9-6.7,2.5C55.5,4.5,50.9,3.1,48,0c-17.3,23.2-9.3,45.3-14.5,73.3
	c-3.2,17.6-24.3,27.5-29,35C-3,120.2,0.6,126.2,3,140C5.1,151.8,12.3,164.5,24.2,166.4z M25.3,121.6C48.4,111.5,59.4,19,65,28.3
	c5.6,9.3,54.6,10.7,54.6,10.7s7,124.6-1,106.2C110.6,126.7,2.1,131.7,25.3,121.6z"/>
</svg>
