<?xml version="1.0" encoding="utf-8"?>
<!-- Generator: Adobe Illustrator 19.0.0, SVG Export Plug-In . SVG Version: 6.00 Build 0)  -->
<svg version="1.1" id="Capa_1" xmlns="http://www.w3.org/2000/svg" xmlns:xlink="http://www.w3.org/1999/xlink" x="0px" y="0px"
	 viewBox="0 0 179.3 187.5" style="enable-background:new 0 0 179.3 187.5;" xml:space="preserve">
<style type="text/css">
	.st0{fill:#AFBB2B;}
</style>
<path id="XMLID_3005_" class="st0" d="M169.3,143.2c-6.3-5.7-15.1-9.7-17.3-17.9c-4.7-17.2,24.5-29.9,20.1-47.2
	c-1.9-7.4-9.7-12.4-11.3-19.9c-1.8-8.5,5-16.3,7.2-24.8c3.5-13.5-6.4-28.2-19.7-32.2c-13.3-4-28.4,1.6-37.7,12
	c-3.2,3.6-6,7.9-10.3,10.2c-10.5,5.6-22.4-3.1-33.3-8C50.3,8,29.7,10.2,14.9,21C5.6,28-0.9,43.2,8.3,50.5c2,1.6,4.4,2.5,6.3,4.2
	c5.9,5.4,2.8,15.3-2.2,21.6S0.7,88.4,0.1,96.4c-1.4,17,25.1,27,22.8,44c-1.1,8.1-8.4,13.5-13.9,19.6s-9.1,16.3-3.1,21.7l6.2,5.9
	c6.5-12.6,21.7-19.9,35.6-17.1c6.6,1.3,12.6,4.6,18.4,7.9c11.2,6.3,25,12.9,36,6.4c9.7-5.8,14.8-21,26.1-20.1
	c10,0.8,13.8,13.7,22.3,19c9.4,5.9,23.1,0,27.3-10.3C181.9,162.9,177.5,150.6,169.3,143.2z M137,152.7c-10.2-7.3-92.3-4.5-92.3-4.5
	v-101c0,0,85.3-16.5,83,5.7C125.3,75.1,147.2,160,137,152.7z"/>
</svg>
