<?xml version="1.0" encoding="utf-8"?>
<!-- Generator: Adobe Illustrator 19.0.0, SVG Export Plug-In . SVG Version: 6.00 Build 0)  -->
<svg version="1.1" id="Capa_1" xmlns="http://www.w3.org/2000/svg" xmlns:xlink="http://www.w3.org/1999/xlink" x="0px" y="0px"
	 viewBox="0 0 172.9 181.2" style="enable-background:new 0 0 172.9 181.2;" xml:space="preserve">
<style type="text/css">
	.st0{fill:#AFBB2B;}
</style>
<path id="XMLID_2956_" class="st0" d="M172.7,120.5c-1.8-12.3-19.9-16.2-23.2-28.3c-2.9-10.5,7-20,9-30.7c2.4-13-10-26.6-23.2-25.4
	c-7.8,0.7-14.5,5.5-22,7.9c-7.4,2.4-17.5,1.3-20.4-6c-1.8-4.5-0.2-9.6-0.3-14.4C92.3,9.7,77.1-0.2,63.1,0S36.3,7.6,24.2,14.8
	L11.8,25.3C4.1,37.2,5.1,53,10,66.4c4.9,13.3,13.2,25.1,19.9,37.7c1.1,2.1,2.2,4.3,2,6.6c-0.3,4-4,6.8-7.3,9.1
	c-9.8,6.8-19.5,15-23.3,26.3c-3.8,11.3,1,26.2,12.4,29.4c21.3,6,39.4-29.6,59.7-21c6.3,2.7,10.2,9,14.9,14
	c13,13.6,35.6,16.7,51.8,7.3c3.5-2.1,6.9-4.8,8.7-8.4c2.1-4.3,1.9-9.3,3.5-13.8C156.9,141,174.7,133.7,172.7,120.5z M128.6,75.8
	c-3.6,19.9-4.6,96.2-6.9,79.8c-2.3-16.5-90.6-3.3-80.2-21.6c10.5-18.3,0-77.2,0-77.2S132.1,55.9,128.6,75.8z"/>
</svg>
