<?xml version="1.0" encoding="utf-8"?>
<!-- Generator: Adobe Illustrator 19.0.0, SVG Export Plug-In . SVG Version: 6.00 Build 0)  -->
<svg version="1.1" id="Capa_1" xmlns="http://www.w3.org/2000/svg" xmlns:xlink="http://www.w3.org/1999/xlink" x="0px" y="0px"
	 viewBox="0 0 199.1 163.3" style="enable-background:new 0 0 199.1 163.3;" xml:space="preserve">
<style type="text/css">
	.st0{fill:#AFBB2B;}
</style>
<path id="XMLID_2996_" class="st0" d="M198.8,122.4c-1.9-12.2-13.9-19.7-21.4-29.4c-9.5-12.2-12-29.5-6.4-44
	c2.9-7.4,7.8-14.4,7.8-22.3c0-9.2-7-17.3-15.3-21.3c-8.3-4-17.8-4.7-27-5.1c-22.9-1.2-48.5-0.4-65,15.5C61,25.9,53.3,42.1,38.9,42.6
	c-5.7,0.2-11.2-2.3-16.8-2.1C7.2,40.9-1.2,58.8,0.1,73.6c1.4,14.8,8.7,28.5,10.2,43.2c0.6,5.9,0.4,12.3,3.7,17.3
	c1.4,2.2,3.4,3.9,4.8,6.1c2.4,3.9,2.6,9.1,0.3,13.1c29.7,10.2,49.8-5.4,80.5-9.5c19.3-2.5,36.5,15.9,45.8,18.3
	c14.7,3.7,19.7-2,33.1-9.1C190.2,147,200.9,135.4,198.8,122.4z M152.2,136.3c-18.1-20.6-117.3-1-109.5-9.9
	c7.7-8.9-7.1-59.9-7.1-59.9s126.3-48.8,109.9-34.4C129.1,46.5,170.3,156.8,152.2,136.3z"/>
</svg>
