<?xml version="1.0" encoding="utf-8"?>
<!-- Generator: Adobe Illustrator 19.0.0, SVG Export Plug-In . SVG Version: 6.00 Build 0)  -->
<svg version="1.1" id="Capa_1" xmlns="http://www.w3.org/2000/svg" xmlns:xlink="http://www.w3.org/1999/xlink" x="0px" y="0px"
	 viewBox="0 0 203.8 178.8" style="enable-background:new 0 0 203.8 178.8;" xml:space="preserve">
<style type="text/css">
	.st0{fill:#AFBB2B;}
</style>
<path id="XMLID_2959_" class="st0" d="M7,43.2C15.6,57.8,28,72,27.4,89c-0.6,18.2-16.1,33.1-17.9,51.2
	c-1.9,19.4,15.2,38.4,34.7,38.6c5.1,0,11.3-2.1,12.1-7.1l9.8-10.2c11.7-2,22.8,5.2,33.7,9.8c16.3,6.9,34.9,8.2,52,3.7
	c9.1-2.4,18.3-6.8,23-15c4.7-8.1,2.8-20.5-5.7-24.4c-4.5-2-9.6-1.5-14.5-2.2c-4.9-0.7-10.2-3.8-10.4-8.7c-0.2-3.3,2.2-6.3,4.5-8.6
	c8.2-8.1,18.7-13.4,28.5-19.5c9.8-6.1,19.3-13.6,24-24.2c4.7-10.5,2.9-24.7-6.7-31.1c-4.5-3-10.8-4.7-12.5-9.9
	c-2.5-7.5,7.1-14.1,6.7-22c-0.6-10.1-15.4-11.5-24.6-7.3c-14.9,6.6-29.5,19.6-45.2,15.1C105.5,13.3,95-3.1,81.4,0.7
	C68.9,4.3,64.7,23.3,51.8,24.3C37.7,25.4,30.7,3.7,16.5,3C8.1,2.7,1.1,10.8,0.2,19.2C-0.8,27.6,2.7,35.9,7,43.2z M44.3,47.9
	C59.4,60.2,156,38.5,156,38.5s-9.3,32.6-20.5,64.2c-11.2,31.6-3.8,47.4-3.8,47.4s-96.4-1.7-87.4-6.8S29.1,35.5,44.3,47.9z"/>
</svg>
