<?xml version="1.0" encoding="utf-8"?>
<!-- Generator: Adobe Illustrator 19.0.0, SVG Export Plug-In . SVG Version: 6.00 Build 0)  -->
<svg version="1.1" id="Capa_1" xmlns="http://www.w3.org/2000/svg" xmlns:xlink="http://www.w3.org/1999/xlink" x="0px" y="0px"
	 viewBox="0 0 203.8 178.8" style="enable-background:new 0 0 203.8 178.8;" xml:space="preserve">
<style type="text/css">
	.st0{fill:#AFBB2B;}
</style>
<path id="XMLID_2962_" class="st0" d="M196.8,135.6c-8.6-14.7-20.9-28.9-20.4-45.8c0.6-18.2,16.1-33.1,17.9-51.2
	C196.2,19.2,179,0.1,159.6,0c-5.1,0-11.3,2.1-12.1,7.1l-9.8,10.2c-11.7,2-22.8-5.2-33.7-9.8C87.6,0.6,69-0.7,51.9,3.8
	c-9.1,2.4-18.3,6.8-23,15c-4.7,8.1-2.8,20.5,5.7,24.4c4.5,2,9.6,1.5,14.5,2.2s10.2,3.8,10.4,8.7c0.2,3.3-2.2,6.3-4.5,8.6
	C46.8,70.7,36.3,76,26.5,82.1c-9.8,6.1-19.3,13.6-24,24.2c-4.7,10.5-2.9,24.7,6.7,31.1c4.5,3,10.8,4.7,12.5,9.9
	c2.5,7.5-7.1,14.1-6.7,22c0.6,10.1,15.4,11.5,24.6,7.3c14.9-6.6,29.5-19.6,45.2-15.1c13.6,3.9,24.1,20.4,37.6,16.5
	c12.4-3.5,16.7-22.6,29.6-23.6c14.1-1.1,21.1,20.7,35.3,21.3c8.4,0.4,15.4-7.8,16.4-16.2C204.6,151.2,201,142.9,196.8,135.6z
	 M159.5,130.9c-15.2-12.4-111.7,9.4-111.7,9.4s9.3-32.6,20.5-64.2c11.2-31.6,3.8-47.4,3.8-47.4s96.4,1.7,87.4,6.8
	S174.7,143.3,159.5,130.9z"/>
</svg>
