<?xml version="1.0" encoding="utf-8"?>
<!-- Generator: Adobe Illustrator 19.0.0, SVG Export Plug-In . SVG Version: 6.00 Build 0)  -->
<svg version="1.1" id="logo_x5F_admin" xmlns="http://www.w3.org/2000/svg" xmlns:xlink="http://www.w3.org/1999/xlink" x="0px"
	 y="0px" viewBox="0 0 258.9 258.9" style="enable-background:new 0 0 258.9 258.9;" xml:space="preserve">
<style type="text/css">
	.st0{fill:#FFFFFF;}
	.st1{fill:#00A6D8;}
	.st2{fill:#17FF3E;}
	.st3{fill:#C10F1B;}
	.st4{fill:#E53ECE;}
	.st5{fill:#D37239;}
	.st6{fill:#FCEF06;}
	.st7{fill:#59287F;stroke:#1B1A16;stroke-width:0.5669;stroke-miterlimit:10;}
	.st8{fill:#99CCE8;}
</style>
<g id="logo_1_">
	<circle id="XMLID_2282_" class="st0" cx="129.5" cy="129.5" r="129.5"/>
	<g id="XMLID_2250_">
		<path id="XMLID_2279_" class="st1" d="M230.3,140.2c-0.9-4.1-3.9-14.8-6.1-16.8c-4.2-1.3-11.7,5-14.6,7.8c0,0-11-1.3-16.2-1.1
			c-15.4,0.6-20,4-23.1,5c0,0-5.9-7.5-10.4-7.9c-3.9,5.6-6.2,18.2-5.9,26.9c0.3,8.9,7.6,15.2,15.2,18c13.7,5,29.2,4.2,42.7-0.9
			C226.4,165.5,232.9,152.2,230.3,140.2z M191.1,164.5c-6.9,0.3-9.9-6.2-10.1-12.3c0-0.9-0.7-14.5,7.9-16.4
			c8-1.8,10.8,14.1,10.9,14.8C200.4,159.3,198.3,164.3,191.1,164.5z"/>
		<path id="XMLID_2278_" class="st2" d="M168.5,136.5c-1.8,0.2-5.4-8.4-8.4-6.1c-1.1,0.8-3.4,12.6-3.6,15.2c0,0,1.9-3.9,5.7-6.8"/>
		<path id="XMLID_2277_" class="st2" d="M211.4,133.8c2.6-3.4,5.5-6,9.4-7.6c1.8,3.5,3.9,7.5,5.9,10.8c-2.3,0-8.2-3.4-7.9-3.3"/>
		<path id="XMLID_2276_" class="st3" d="M105,200.5c9.9-4.3,16.7-12,20.7-21.7c3-7.2,5.3-34.8,5.4-39.9c0.1-4.4-0.5-8.3-0.6-12.6
			c-0.1-5.4-0.2-6.9,4.4-8.5c3.6-1.2,8-2.6,11.5-2c0.3,5.1-18.3,83.9,15,92.9c9,2.4,18.9,3.1,27-0.8c9-4.2,15-25.8-2.3-21.2
			c6.9,0.6,7.7,5.5,6.6,7c-1.4,2-5.1,2.6-7.3,2.5c-7.7-0.4-15.2-11,2.4-19.5c10.3-5,20.2,0.8,23.7,5.4
			c23.4,30.8-45.9,66.3-69.8,35.1c-6.8-8.8-7.3-22.2-8.8-32.5c0.4,5.3-16,27-26.3,37.8C106.6,217.8,104.9,204.4,105,200.5z"/>
		<path id="XMLID_2274_" class="st4" d="M144.6,129.8c-3.8-0.1-10.1,1.2-13.7,1.8c0,0-0.2-8.6-0.3-9c-0.7-2.8,12.8-5.3,15.7-4.9
			L144.6,129.8z"/>
		<path id="XMLID_2273_" class="st4" d="M143.3,138.6c-2.1,0.6-10.3,1.2-12.2,1.1c-0.2,3.4,0.1,8.5-1.3,15.3c3.8-0.5,8-2.1,12-1.5
			c0.2-5.6,1-11.4,1.4-14.8"/>
		<path id="XMLID_2272_" class="st4" d="M141.7,169.4c0.1,1.9,0,3.4,0.3,5.5c-2.7,1-5.5,0.9-8.3,2.3c-2.5,1.2-4.9,0.6-7.6,0.9
			c1-2.7,1.9-8.1,1.9-8.1s0.7-5.6,1-6.6c1.9-0.6,3.3-0.3,5.3-0.6c2.1-0.4,5.6-0.6,7.4-1.3C141.6,161.4,141.6,167.4,141.7,169.4z"/>
		<path id="XMLID_2271_" class="st4" d="M123.2,193.3c1.6,0.3,4.1,1.1,5.7,1.1c0,0-5.1,7.5-6.9,10c-2.1,2.8-12.2,15.8-14.6,17.5
			c0-1.5-0.9-7.9-1.1-9.8c-0.4-2.9-1.4-11.5-1.4-11.5c4.4-0.8,13.4-9.5,13.4-9.5"/>
		<path id="XMLID_2269_" class="st4" d="M134.6,197c0.7,3.2,1.2,7.9,3,12.5c2.5,6.4,6.1,10.1,6.1,10.1c1-3.1,11.5-12.5,11.6-13.5
			c0,0-4.4-4.3-5.4-5.5c-1.6-1.9-2.5-4-3.6-6.4c-3.7,0.2-8.1,2.1-11.9,0.7L134.6,197z"/>
		<path id="XMLID_2268_" class="st4" d="M163.6,209.5c-0.2,3.4,0.1,6.8-0.3,10.2c-0.4,3.3-1.2,5.9-1,9.3c2,0.3,6.5,0.6,9.5,0.4
			c5-0.3,12.7-2.3,12.7-2.3c0.3-0.7-2.9-15.2-3.8-16.8c0,0-5.1,0.5-8.5,0.3C167.9,210.3,163.6,209.5,163.6,209.5z"/>
		<path id="XMLID_2267_" class="st4" d="M196.9,190.2c0.7,2.2,0.3,3.7,0,6.1c-0.3,2.5-1.9,4.7-3.1,6.9c1.6-0.3,16.5,6,18.1,6
			c2.1-4.8,5.4-9,5-14.6c-0.2-2.3-1.1-5.1-1.9-7.2"/>
		<path id="XMLID_2266_" class="st5" d="M152.7,70.2c1.9,0.6,4.5,0.7,6.4,0.1c2.9-1,0.6-3.1-1.1-4.1c-3.5-2.3-7.5-4.6-11.6-5.5
			c-4.2-0.9-8.6-0.6-12.8,0.3c-9.9,2.2-19.7,7.3-23.9,17c-2.9,6.6-2.8,14.3-0.1,20.9c2.7,6.7,8.3,12.6,21.3,13.2
			c7.8,0.4,20.9-4,26.7-10.4c3.5-3.9,15.1-18.8-0.2-28.1c-6-3.6-13-3.9-19.8-1.9c-3.7,1.1-7.3,2.9-10.3,5.4
			c-2.7,2.3-5.1,5.2-5.7,8.8c-0.8,4.5,1.8,9.3,5.8,11.5c4,2.2,9.2,1.9,13.1-0.4c1.8-1.1,3.5-2.9,3.3-5c-0.1-1.1-0.9-2.1-2-2.2
			c-1.1-0.1-2.1,0.6-2.8,1.5s-1.2,1.9-2.1,2.5c-1.6,1.1-4.1,0.5-5-1.2c-0.7-1.4-0.5-3.1,0.4-4.4c0.9-1.3,2.4-2.1,3.9-2.5
			c2.2-0.6,4.5-0.4,6.5,0.7s3.4,3.2,3.5,5.4c0.2,2.9-1.8,5.5-4,7.2c-3.8,2.8-9,3.8-13.5,2.4c-4.5-1.4-8.2-5.3-9.3-9.9
			c-1.7-7.2,3-14.4,8.5-18.2C134.8,68.4,144.6,67.4,152.7,70.2z"/>
		<path id="XMLID_2265_" class="st6" d="M128,73.2l-6.8-7.5c0,0,7.6-4,12.5-4.7c4.9-0.8,2.2,8.7,2.2,8.7S130.5,71.1,128,73.2z"/>
		<path id="XMLID_2264_" class="st6" d="M137.7,71.7l-1.4,13.9c0,0,5.2-1.7,8.3,2.2c3.1,3.9,13.6-13.7,13.6-13.7s-5.3-3.6-12.1-3.7
			C139.4,70.3,137.7,71.7,137.7,71.7z"/>
		<path id="XMLID_2263_" class="st6" d="M111.3,102.3l9.9-6.8c0,0,2.8,3.9,7.5,5.8c4.8,1.9-3.9,10-3.9,10s-2.2,0.3-7.5-2.9
			C113.6,106.1,111.3,102.3,111.3,102.3z"/>
		<path id="XMLID_2262_" class="st6" d="M135.7,98.7l-0.5-4.4c0,0,1.2,0.5,2.6-1.3c1.4-1.8,2.8,4,2.8,4S138.4,98.5,135.7,98.7z"/>
		<path id="XMLID_2261_" class="st6" d="M142.2,98.9c-0.5,0.3,11.7,6,11.7,6l2.7-2.1l-10.3-10.2C146.3,92.6,145.9,96.7,142.2,98.9z"
			/>
		<path id="XMLID_2260_" class="st7" d="M40.7,47.6c5.5-0.9,40.2-2.4,48.5-1.9c1.3,47.5-4.1,92.8-2.9,140.2
			c5.3-0.1,11.2-0.3,16.7,0.1c1.6,14.2,2.7,24.7,3.7,36.7c-14.4,0.5-30.9,1.9-45.3,1.9C61.5,209.3,39.1,55.4,40.7,47.6L40.7,47.6z"
			/>
		<path id="XMLID_2259_" class="st2" d="M48.6,55.6c-3.1,3.8-3.5,11.3,1.9,13c5.2,1.6,12.3-1.2,15.1-5.8c2.8-4.5-1.5-6.6-5.7-8.6
			C60,54.1,51.8,51.5,48.6,55.6z"/>
		<path id="XMLID_2258_" class="st2" d="M53.3,96.2c-7,4.5-4.2,16.1,3.7,20c6.1,3.1,16.2-2.8,17.4-9.2
			C75.3,101.6,68.7,86.3,53.3,96.2z"/>
		<path id="XMLID_2257_" class="st2" d="M63.2,134.8c-3.1,5.2,3.7,7.5,7.3,7.4C85.3,141.5,73,118.2,63.2,134.8z"/>
		<path id="XMLID_2256_" class="st2" d="M69,177.1c-3.9,2.5,0.6,12.6,5.4,11.8C87.7,186.6,85,167,69,177.1z"/>
		<path id="XMLID_2255_" class="st2" d="M55.4,173.5c-0.2-2.3-3.8-30.6-3.8-30.6c4-1.9,9.6,2,13.3,4.8c3.7,2.8,5.7,8.1,5.5,12.6
			C70,168.9,55.4,173.5,55.4,173.5z"/>
		<path id="XMLID_2254_" class="st2" d="M89.6,63.6c-3.4-0.4-6.8,0.5-9.3,2c-4,2.6-5.9,5.7-6.4,10.3c-1.1,9.6,7.5,12.1,15.1,12.2
			L89.6,63.6z"/>
		<path id="XMLID_2253_" class="st2" d="M89.3,190.1c-5.9,2.8-5.7,17.1,7.5,11.3C101.9,197.6,99.5,186.6,89.3,190.1z"/>
		<path id="XMLID_2252_" class="st2" d="M77.4,200.6c4.8,0.6,5.9,6.5,5.1,10.6c-0.8,4-0.9,4.4-4.8,5.6c-4.5,1.4-12,2.7-16.7,3.1
			c-0.5-2.5-1.5-15.7-2.1-18.4C59.1,200.9,74.2,200.2,77.4,200.6z"/>
		<path id="XMLID_2251_" class="st8" d="M236.3,50.9C236.3,50.9,236.3,50.9,236.3,50.9c0.1,0.7,0.1,1.4,0.1,2.1l0,0l0,0
			C236.3,52.3,236.3,51.6,236.3,50.9z"/>
	</g>
</g>
</svg>
