<?xml version="1.0" encoding="utf-8"?>
<!-- Generator: Adobe Illustrator 19.0.0, SVG Export Plug-In . SVG Version: 6.00 Build 0)  -->
<svg version="1.1" id="icono-intagram" xmlns="http://www.w3.org/2000/svg" xmlns:xlink="http://www.w3.org/1999/xlink" x="0px"
	 y="0px" viewBox="0 0 23.3 22.6" style="enable-background:new 0 0 23.3 22.6;" xml:space="preserve">
<style type="text/css">
	.st0{fill:#FFFFFF;}
</style>
<path id="XMLID_185_" class="st0" d="M16,11.3c0,1.1-0.4,2.1-1.3,3c-0.8,0.8-1.9,1.2-3,1.2s-2.2-0.4-3-1.2c-0.8-0.8-1.3-1.8-1.3-3
	c0-0.2,0-0.4,0.1-0.7H5.8v6.3h11.6v-6.3h-1.6C15.9,10.9,16,11.1,16,11.3z M14.6,8.5h2.9V5.6h-2.9V8.5z M8.7,11.3
	c0,0.8,0.3,1.4,0.9,2c0.6,0.6,1.3,0.8,2,0.8c0.8,0,1.5-0.3,2-0.8c0.6-0.6,0.9-1.2,0.9-2s-0.3-1.4-0.9-2c-0.6-0.6-1.3-0.8-2-0.8
	c-0.8,0-1.5,0.3-2,0.8C9,9.9,8.7,10.5,8.7,11.3z M18.9,17.8c0,0.1-0.1,0.3-0.2,0.4c-0.1,0.1-0.2,0.2-0.4,0.2H4.9
	c-0.2,0-0.3-0.1-0.4-0.2c-0.1-0.1-0.2-0.2-0.2-0.4v-13c0-0.1,0.1-0.3,0.2-0.4c0.1-0.1,0.2-0.2,0.4-0.2h13.5c0.2,0,0.3,0.1,0.4,0.2
	c0.1,0.1,0.2,0.2,0.2,0.4V17.8z M11.6,0c-3.2,0-6,1.1-8.2,3.3S0,8.2,0,11.3s1.1,5.8,3.4,8s5,3.3,8.2,3.3s6-1.1,8.2-3.3
	s3.4-4.9,3.4-8s-1.1-5.8-3.4-8S14.9,0,11.6,0z"/>
</svg>
