<?xml version="1.0" encoding="utf-8"?>
<!-- Generator: Adobe Illustrator 19.0.0, SVG Export Plug-In . SVG Version: 6.00 Build 0)  -->
<svg version="1.1" id="icono-facebook" xmlns="http://www.w3.org/2000/svg" xmlns:xlink="http://www.w3.org/1999/xlink" x="0px"
	 y="0px" viewBox="0 0 23.3 22.6" style="enable-background:new 0 0 23.3 22.6;" xml:space="preserve">
<style type="text/css">
	.st0{fill:#FFFFFF;}
</style>
<path id="XMLID_274_" class="st0" d="M14.5,11.3h-1.8v6.4h-2.4v-6.4H8.6V9.1h1.7V7.8c0-1,0.2-1.7,0.6-2.2c0.4-0.5,1.1-0.7,2.1-0.7
	h1.8v2.2h-1.1c-0.4,0-0.7,0.1-0.8,0.2c-0.1,0.1-0.2,0.4-0.2,0.7v1.1h2.1L14.5,11.3z M11.6,0.6c-3,0-5.6,1-7.8,3.1s-3.2,4.6-3.2,7.5
	s1.1,5.4,3.2,7.5s4.7,3.1,7.8,3.1s5.6-1,7.8-3.1s3.2-4.6,3.2-7.5s-1.1-5.4-3.2-7.5S14.7,0.6,11.6,0.6z"/>
</svg>
