<?xml version="1.0" encoding="utf-8"?>
<!-- Generator: Adobe Illustrator 19.0.0, SVG Export Plug-In . SVG Version: 6.00 Build 0)  -->
<svg version="1.1" id="cont_x5F_formulario_x5F_buscador_x5F_01"
	 xmlns="http://www.w3.org/2000/svg" xmlns:xlink="http://www.w3.org/1999/xlink" x="0px" y="0px"
	 viewBox="-432.9 -115.3 1055.3 203.5" style="enable-background:new -432.9 -115.3 1055.3 203.5;" xml:space="preserve">
<style type="text/css">
	.st0{fill:#00BCAD;}
</style>
<path class="st0" d="M266.3-38.7l-0.1,14.9c-77.3,0.1-405.4-0.3-482.7-0.2c-23.2,0-194.7-4.3-209.6,17.7c-15.4,22.9-1,71.4,7.4,79.1
	c9.5,8.7,15.6,9.4,29.9,9.5c283.4,2,653.2,3.9,936.6,5.9c14.4,0.1,34.9-0.1,46.5-7c14.9-8.9,35.3-20,25.4-106.1L353-27v-11.9v-10.5
	v-53.9c0-6.6-5-11.7-11.6-11.7h-63.2c-6.6,0-12.2,5.1-12.2,11.7V-49L266.3-38.7z"/>
</svg>
